<svg width="18" height="19" viewBox="0 0 18 19" fill="none" xmlns="http://www.w3.org/2000/svg">
<g clip-path="url(#clip0_821_1505)">
<path d="M6.13092 17.609C7.70789 19.1517 10.2265 19.158 11.8112 17.6233L14.7976 14.8635C18.0327 11.6715 18.0676 6.46128 14.8755 3.2262C11.6835 -0.00887656 6.47331 -0.043822 3.23823 3.14823C3.21208 3.17403 3.18606 3.20005 3.16026 3.2262C-0.0531307 6.44008 -0.0527088 11.6504 3.16117 14.8638C3.16781 14.8704 3.17449 14.8771 3.18117 14.8837L6.13092 17.609ZM4.21804 4.28402C6.84161 1.64888 11.1046 1.63949 13.7398 4.26307C16.3749 6.88664 16.3843 11.1496 13.7607 13.7848L10.7803 16.5393C9.76232 17.4974 8.17262 17.4914 7.16178 16.5258L4.21804 13.8057C1.5887 11.1764 1.58867 6.91342 4.21797 4.28405L4.21804 4.28402ZM5.23845 9.04488C5.23845 8.63172 5.57338 8.29679 5.98654 8.29679H8.23081V6.05252C8.23081 5.63936 8.56574 5.30443 8.9789 5.30443C9.39205 5.30443 9.72699 5.63936 9.72699 6.05252V8.29679H11.9713C12.3844 8.29679 12.7193 8.63172 12.7193 9.04488C12.7193 9.45803 12.3844 9.79297 11.9713 9.79297H9.72699V12.0372C9.72699 12.4504 9.39205 12.7853 8.9789 12.7853C8.56574 12.7853 8.23081 12.4504 8.23081 12.0372V9.79297H5.98654C5.57338 9.79297 5.23845 9.45803 5.23845 9.04488Z" fill="#53666D"/>
</g>
<defs>
<clipPath id="clip0_821_1505">
<rect width="18" height="18" fill="white" transform="translate(0 0.772949)"/>
</clipPath>
</defs>
</svg>
