<?xml version="1.0" encoding="utf-8"?>
<!-- Generator: Adobe Illustrator 17.0.0, SVG Export Plug-In . SVG Version: 6.00 Build 0)  -->
<!DOCTYPE svg PUBLIC "-//W3C//DTD SVG 1.1//EN" "http://www.w3.org/Graphics/SVG/1.1/DTD/svg11.dtd">
<svg version="1.1" id="Layer_1" xmlns="http://www.w3.org/2000/svg" xmlns:xlink="http://www.w3.org/1999/xlink" x="0px" y="0px"
	 width="1984.25px" height="1984.25px" viewBox="0 0 1984.25 1984.25" enable-background="new 0 0 1984.25 1984.25"
	 xml:space="preserve">
<g>
	<g>
		<g>
			<path d="M690.903,1382.346c8.886,4.399,15.551,8.767,19.996,13.1c4.441,4.336,6.665,9.867,6.665,16.593
				c0,6.211-0.999,12.615-2.999,19.214c-17.664,9.831-37.826,14.749-60.488,14.749c-18.109,0-31.578-4.497-40.41-13.488
				c-8.831-8.99-13.246-20.99-13.246-36c0-9.573,1.332-19.02,3.998-28.335l12.165-2.717l0.833,0.971
				c-1.891,8.8-2.833,16.884-2.833,24.259c-0.224,23.808,14.164,35.709,43.159,35.709c18.105,0,33.326-2.717,45.657-8.15
				l0.167-2.717c0-2.718-1.666-5.498-4.999-8.346c-3.333-2.845-8.777-6.338-16.331-10.479c-7.889-4.397-13.775-8.7-17.662-12.906
				c-3.891-4.203-5.833-9.734-5.833-16.593c0-7.375,1.722-14.877,5.166-22.513c8.44-5.304,17.885-7.957,28.327-7.957
				c6.775,0,13.832,1.231,21.163,3.688l-0.167,18.631l-0.832,0.582c-8.332-2.329-15.664-3.493-21.996-3.493
				c-6.444,0-12.164,0.906-17.164,2.717c-0.224,1.165-0.333,2.784-0.333,4.852c0,3.755,1.276,6.89,3.833,9.413
				C679.293,1375.649,684.014,1378.725,690.903,1382.346z M645.578,1459.004l10.998,15.526l-13.831,13.391l-10.998-15.525
				L645.578,1459.004z M670.407,1459.004l10.998,15.526l-13.664,13.391l-11.165-15.525L670.407,1459.004z"/>
			<path d="M767.054,1336.156h1.833c18.106,26.267,29.216,50.72,33.327,73.359l-8.832,18.631h-54.656l-3.999-18.049l1.333-1.747
				h51.156c-5.443-17.724-15.83-37.52-31.16-59.386L767.054,1336.156z"/>
			<path d="M860.2,1410.68v15.332l-1.666,2.135h-32.66v-145.555h14.996v125.759h17.664L860.2,1410.68z"/>
			<path d="M858.534,1408.351h26.994c1.555,0,2.333,0.907,2.333,2.718v14.361c0,1.813-0.778,2.717-2.333,2.717h-26.994
				c-1.555,0-2.334-0.903-2.334-2.717v-14.361C856.2,1409.258,856.98,1408.351,858.534,1408.351z"/>
			<path d="M885.526,1408.351h26.994c1.555,0,2.334,0.907,2.334,2.718v14.361c0,1.813-0.779,2.717-2.334,2.717h-26.994
				c-1.555,0-2.333-0.903-2.333-2.717v-14.361C883.193,1409.258,883.972,1408.351,885.526,1408.351z"/>
			<path d="M923.018,1444.448l10.998,15.526l-13.831,13.391l-10.998-15.525L923.018,1444.448z M912.52,1428.146l-2.333-2.717
				v-14.943l2.333-2.136h26.661v-58.027h14.998v77.823H912.52z M958.845,1459.975l-13.664,13.391l-11.165-15.525l13.831-13.392
				L958.845,1459.975z"/>
			<path d="M1005.001,1269.978l1.333,9.897c-5.11,1.553-11.222,2.329-18.329,2.329h-16.164v-10.868l8.332,0.388
				c-2.111-3.232-3.166-6.531-3.166-9.897c0-4.785,1-9.379,2.999-13.779c4.108-1.68,8.331-2.523,12.664-2.523
				c3.221,0,6.499,0.455,9.831,1.359l-0.832,9.703c-3.557-0.516-6.999-0.776-10.332-0.776c-1.666,0-3.499,0.194-5.499,0.582
				c-0.224,0.776-0.333,2.202-0.333,4.27c0,4.531,1.109,8.282,3.332,11.257c6.332,0,11.441-0.776,15.331-2.329L1005.001,1269.978z
				 M981.339,1295.595h14.997v132.552h-14.997V1295.595z"/>
			<path d="M1135.806,1410.486v15.72l-1.666,1.94h-4.666c-7.556,0-14.109-3.427-19.662-10.286
				c-5.224,3.754-10.582,6.404-16.08,7.957c-5.5,1.553-12.248,2.329-20.246,2.329h-17.664l-3.999-18.049l1.333-1.747h23.496
				c10.219,0,18.662-1.164,25.328-3.493l-2.666-5.434c-7.777-17.467-15.055-35.127-21.83-52.982l11.665-9.703h1.499
				c6.221,17.078,12.887,33.899,19.996,50.459c4,8.927,7.416,14.686,10.248,17.272c2.834,2.59,6.75,3.881,11.748,3.881h1.5
				L1135.806,1410.486z"/>
			<path d="M1134.139,1408.351h26.995c1.555,0,2.332,0.907,2.332,2.718v14.361c0,1.813-0.777,2.717-2.332,2.717h-26.995
				c-1.554,0-2.333-0.903-2.333-2.717v-14.361C1131.806,1409.258,1132.585,1408.351,1134.139,1408.351z"/>
			<path d="M1161.132,1408.351h26.994c1.555,0,2.334,0.907,2.334,2.718v14.361c0,1.813-0.779,2.717-2.334,2.717h-26.994
				c-1.555,0-2.333-0.903-2.333-2.717v-14.361C1158.799,1409.258,1159.577,1408.351,1161.132,1408.351z"/>
			<path d="M1313.601,1410.486v15.72l-1.666,1.94h-2.666c-6.111,0-12.609-3.493-19.496-10.479
				c-1.779,5.434-3.891,10.801-6.333,16.107c-16.442-2.459-31.218-6.986-44.325-13.585c-9.776,5.307-22.328,7.957-37.659,7.957
				h-13.331l-1.666-2.522v-14.556l1.666-2.718h33.16c-7.664-6.079-14.221-14.294-19.662-24.646
				c2.666-6.987,5.998-13.066,9.998-18.243l-10.832,3.105l-1.166-1.165V1351.1c15.552-4.27,28.717-6.404,39.492-6.404
				c16.553,0,29.799,4.336,39.743,13.003c9.94,8.669,14.913,20.766,14.913,36.291c0,3.105-0.277,6.599-0.832,10.48
				c4.441,2.59,9.939,3.881,16.496,3.881h2.5L1313.601,1410.486z M1240.281,1403.693c3.333-2.845,5.887-6.274,7.665-10.286
				c1.775-4.009,2.666-7.826,2.666-11.45c0-5.822-1.582-10.607-4.749-14.361c-3.166-3.751-7.14-5.562-11.914-5.434
				c-7.332,0.388-13.276,6.34-17.83,17.854C1221.228,1390.369,1229.283,1398.259,1240.281,1403.693z M1279.606,1397.289
				c0-8.151-1.832-15.008-5.498-20.572c-3.666-5.561-8.723-9.637-15.164-12.227c3.666,5.177,5.499,10.547,5.499,16.108
				c0,10.74-3.778,20.314-11.331,28.723c7.887,2.978,15.605,5.046,23.162,6.211
				C1278.495,1409.194,1279.606,1403.111,1279.606,1397.289z"/>
			<path d="M1420.913,1411.068v14.361l-1.666,2.717h-20.996c-11.556,0-22.163-3.169-31.828-9.51
				c-11.664,6.341-25.607,9.51-41.825,9.51h-12.664l-1.667-2.522v-14.556l1.667-2.718h17.497c8.886,0,16.663-0.646,23.328-1.94
				c-8.664-10.737-15.055-23.546-19.162-38.426l-6.832,2.135l-1.334-0.971l1.5-17.272c14.439-5.435,27.883-8.151,40.326-8.151
				c11.773,0,23.662,2.266,35.659,6.793l2.333,19.602c-4.666,14.622-12.331,26.976-22.996,37.067
				c4.333,0.776,9.275,1.164,14.831,1.164h22.163L1420.913,1411.068z M1391.419,1366.237c-6.445-2.329-14.998-3.493-25.662-3.493
				c-6.332,0-12.443,0.582-18.33,1.746c3.221,13.07,9.107,24.326,17.664,33.769c0.999,1.165,2.108,2.202,3.332,3.105
				C1379.196,1392.825,1386.862,1381.117,1391.419,1366.237z"/>
			<path d="M1475.735,1348.576c7.332,0,13.303,3.882,17.913,11.645c4.608,7.764,6.915,17.661,6.915,29.693
				c0,10.223-2.111,19.796-6.332,28.723l-11.664,13.003l-37.992-20.184c-3.445,6.083-6.945,10.383-10.498,12.906
				c-3.557,2.522-8.057,3.784-13.498,3.784h-1.333l-1.667-2.911v-13.585l1.667-3.3h2.666c3.999,0,7.358-1.713,10.081-5.143
				c2.721-3.427,6.137-9.733,10.248-18.922c5.109-11.384,10.332-20.184,15.664-26.394
				C1463.237,1351.682,1469.179,1348.576,1475.735,1348.576z M1451.907,1396.513l30.826,16.496
				c2.443-6.468,3.666-13.066,3.666-19.796c0-7.632-1.249-13.682-3.748-18.146c-2.5-4.464-5.807-6.695-9.916-6.695
				c-3.332,0-6.443,2.038-9.331,6.113c-2.89,4.075-6.277,10.514-10.165,19.311L1451.907,1396.513z"/>
		</g>
		<g>
			<path d="M652.778,1610.957h-36.585l-9.774,32.909h-13.685l33.932-112.374h17.175l33.652,112.374h-15.08L652.778,1610.957z
				 M648.73,1596.99l-14.104-47.84l-14.243,47.84H648.73z"/>
			<path d="M746.054,1564.563l-36.445,118.795h-13.824l12.148-39.491h-4.049l-23.041-79.304h14.941l17.314,62.447l19.131-62.447
				H746.054z"/>
			<path d="M807.214,1591.371v31.946c0,6.851,1.162,13.22,3.49,19.104l-0.559,1.444h-13.404c-0.652-1.605-1.211-3.371-1.676-5.298
				c-6.145,5.138-13.035,7.706-20.666,7.706c-7.541,0-13.384-2.063-17.525-6.181c-4.143-4.119-6.213-9.926-6.213-17.418
				c0-6.206,1.348-12.254,4.049-18.141c10.055-2.995,23.086-4.708,39.098-5.137v-5.619c0-6.101-1.211-10.46-3.63-13.084
				c-2.422-2.621-6.099-3.933-11.031-3.933c-6.517,0-14.291,1.553-23.319,4.655l-0.978-0.642v-13.646
				c9.495-3.104,18.339-4.655,26.531-4.655c9.028,0,15.591,2.167,19.688,6.501C805.165,1573.312,807.214,1580.776,807.214,1591.371z
				 M777.191,1633.913c5.306,0,10.844-1.871,16.616-5.619v-18.782c-11.637,0.537-21.133,1.553-28.485,3.05
				c-1.025,2.569-1.536,5.298-1.536,8.188C763.786,1629.526,768.255,1633.913,777.191,1633.913z"/>
			<path d="M883.872,1523.465v99.532c0,6.742,1.117,13.219,3.352,19.425l-0.559,1.444h-13.824c-0.746-2.14-1.258-3.745-1.537-4.816
				c-5.958,4.816-12.521,7.225-19.688,7.225c-9.311,0-16.432-3.291-21.365-9.873c-4.936-6.582-7.4-16.239-7.4-28.977
				c0-7.49,0.768-14.77,2.305-21.833c1.535-7.063,3.512-12.787,5.934-17.177c6.795-4.066,14.149-6.101,22.063-6.101
				c6.424,0,12.009,1.019,16.757,3.05v-41.899H883.872z M836.815,1605.819c0,17.554,5.91,26.328,17.733,26.328
				c5.213,0,10.334-1.818,15.36-5.458v-46.877c-4.563-2.247-9.962-3.371-16.198-3.371c-4.563,0-8.891,0.911-12.986,2.729
				C838.116,1587.413,836.815,1596.295,836.815,1605.819z"/>
			<path d="M915.708,1552.201L904.956,1540l10.752-12.361L926.319,1540L915.708,1552.201z M922.69,1564.563v79.304h-13.964v-79.304
				H922.69z"/>
			<path d="M990.829,1531.492v112.374h-14.243v-112.374H990.829z"/>
			<path d="M1050.314,1562.314c15.731,0,23.599,8.509,23.599,25.525v56.026h-13.964v-52.816c0-9.311-4.423-13.966-13.266-13.966
				c-6.423,0-12.567,2.623-18.432,7.866v58.916h-13.964v-79.304h12.009l1.257,6.1
				C1035.279,1565.099,1042.866,1562.314,1050.314,1562.314z"/>
			<path d="M1120.411,1597.312c8.658,2.354,14.894,5.458,18.711,9.311c3.816,3.853,5.726,8.776,5.726,14.77
				c0,6.315-1.396,12.095-4.188,17.338c-5.307,5.031-13.08,7.545-23.32,7.545c-7.913,0-16.105-1.661-24.575-4.977l0.14-13.646
				l0.977-0.481c8.1,3.426,15.92,5.192,23.459,5.297c6.051,0,10.799-0.802,14.244-2.407c0.464-1.605,0.697-3.532,0.697-5.779
				c0-3.104-1.28-5.645-3.84-7.626c-2.562-1.979-7.006-3.878-13.335-5.698c-8.378-2.461-14.313-5.483-17.804-9.07
				c-3.491-3.585-5.236-8.481-5.236-14.689c0-5.779,1.441-11.559,4.328-17.338c2.514-2.247,5.911-4.038,10.193-5.378
				c4.281-1.337,8.609-2.006,12.986-2.006c7.262,0,14.195,1.552,20.807,4.655v13.646l-0.979,0.642
				c-7.075-3.315-13.732-4.977-19.967-4.977c-5.307,0-10.009,0.964-14.104,2.89c-0.467,2.143-0.699,4.068-0.699,5.779
				c0,2.89,1.117,5.218,3.352,6.983S1114.358,1595.601,1120.411,1597.312z"/>
			<path d="M1200.004,1625.887l3.771,12.843c-6.053,4.815-12.615,7.224-19.689,7.224c-12.66,0-18.99-8.079-18.99-24.24v-43.023
				h-10.612v-14.127h10.612v-20.228h13.964v20.228h22.481v14.127h-22.481v40.936c0,7.493,2.514,11.238,7.54,11.238
				C1190.509,1630.863,1194.978,1629.205,1200.004,1625.887z"/>
			<path d="M1223.88,1552.201L1213.128,1540l10.752-12.361l10.613,12.361L1223.88,1552.201z M1230.862,1564.563v79.304h-13.964
				v-79.304H1230.862z"/>
			<path d="M1291.185,1625.887l3.77,12.843c-6.053,4.815-12.615,7.224-19.688,7.224c-12.661,0-18.991-8.079-18.991-24.24v-43.023
				h-10.611v-14.127h10.611v-20.228h13.965v20.228h22.48v14.127h-22.48v40.936c0,7.493,2.514,11.238,7.54,11.238
				C1281.688,1630.863,1286.157,1629.205,1291.185,1625.887z"/>
			<path d="M1367.285,1564.563v79.304h-12.009l-1.117-6.261c-7.729,5.779-15.359,8.669-22.9,8.669
				c-15.732,0-23.599-8.562-23.599-25.686v-56.026h13.964v52.815c0,9.419,4.42,14.127,13.266,14.127
				c6.423,0,12.566-2.621,18.432-7.866v-59.076H1367.285z"/>
			<path d="M1427.607,1625.887l3.771,12.843c-6.053,4.815-12.615,7.224-19.689,7.224c-12.66,0-18.99-8.079-18.99-24.24v-43.023
				h-10.612v-14.127h10.612v-20.228h13.964v20.228h22.481v14.127h-22.481v40.936c0,7.493,2.514,11.238,7.54,11.238
				C1418.112,1630.863,1422.581,1629.205,1427.607,1625.887z"/>
			<path d="M1497.983,1595.063c0,4.282-0.374,8.563-1.117,12.843h-44.266c0.371,8.348,2.095,14.448,5.167,18.301
				c3.071,3.854,7.959,5.779,14.661,5.779c7.541,0,15.081-1.605,22.621-4.815l0.979,0.642v13.164
				c-7.635,3.532-15.967,5.298-24.996,5.298c-10.984,0-19.06-3.291-24.227-9.873c-5.166-6.582-7.75-16.561-7.75-29.939
				c0-14.554,2.793-27.236,8.379-38.047c7.726-4.066,15.5-6.101,23.318-6.101C1488.906,1562.314,1497.983,1573.23,1497.983,1595.063
				z M1484.718,1596.829v-1.926c0-6.742-1.166-11.559-3.491-14.448c-2.328-2.89-5.819-4.335-10.474-4.335
				c-5.306,0-9.914,0.964-13.823,2.89c-2.049,5.245-3.352,11.186-3.909,17.819H1484.718z"/>
		</g>
	</g>
	<g>
		<path fill-rule="evenodd" clip-rule="evenodd" fill="#4AA8B4" d="M734.815,880.183c27.535,0,49.857,22.413,49.857,50.061l0,0
			c0,27.648-22.322,50.061-49.857,50.061l0,0c-27.535,0-49.857-22.413-49.857-50.061l0,0
			C684.958,902.596,707.279,880.183,734.815,880.183L734.815,880.183z"/>
		<path fill-rule="evenodd" clip-rule="evenodd" fill="#4AA8B4" d="M732.519,582.172c27.535,0,49.857,22.413,49.857,50.061l0,0
			c0,27.648-22.322,50.061-49.857,50.061l0,0c-27.535,0-49.857-22.413-49.857-50.061l0,0
			C682.662,604.584,704.984,582.172,732.519,582.172L732.519,582.172z"/>
		<path fill-rule="evenodd" clip-rule="evenodd" fill="#4AA8B4" d="M887.014,1033.005c27.535,0,49.857,22.413,49.857,50.061l0,0
			c0,27.648-22.322,50.061-49.857,50.061l0,0c-27.535,0-49.857-22.413-49.857-50.061l0,0
			C837.157,1055.418,859.479,1033.005,887.014,1033.005L887.014,1033.005z"/>
		<path fill-rule="evenodd" clip-rule="evenodd" fill="#4AA8B4" d="M1039.214,880.183c27.535,0,49.857,22.413,49.857,50.061l0,0
			c0,27.648-22.322,50.061-49.857,50.061l0,0c-27.535,0-49.857-22.413-49.857-50.061l0,0
			C989.357,902.596,1011.679,880.183,1039.214,880.183L1039.214,880.183z"/>
		<path fill-rule="evenodd" clip-rule="evenodd" fill="#4AA8B4" d="M1038.826,574.93c27.535,0,49.857,22.413,49.857,50.061l0,0
			c0,27.648-22.322,50.061-49.857,50.061l0,0c-27.535,0-49.857-22.413-49.857-50.061l0,0
			C988.969,597.343,1011.29,574.93,1038.826,574.93L1038.826,574.93z"/>
		<path fill-rule="evenodd" clip-rule="evenodd" fill="#4AA8B4" d="M1334.675,583.516c27.535,0,49.857,22.413,49.857,50.061l0,0
			c0,27.648-22.322,50.061-49.857,50.061l0,0c-27.535,0-49.857-22.413-49.857-50.061l0,0
			C1284.818,605.928,1307.139,583.516,1334.675,583.516L1334.675,583.516z"/>
		<path fill-rule="evenodd" clip-rule="evenodd" fill="#4AA8B4" d="M1184.733,1029.248c27.535,0,49.857,22.413,49.857,50.061l0,0
			c0,27.648-22.322,50.061-49.857,50.061l0,0c-27.535,0-49.857-22.413-49.857-50.061l0,0
			C1134.876,1051.661,1157.198,1029.248,1184.733,1029.248L1184.733,1029.248z"/>
		<path fill-rule="evenodd" clip-rule="evenodd" fill="#4AA8B4" d="M1342.063,871.275c27.535,0,49.857,22.413,49.857,50.061l0,0
			c0,27.648-22.322,50.061-49.857,50.061l0,0c-27.535,0-49.857-22.413-49.857-50.061l0,0
			C1292.206,893.688,1314.528,871.275,1342.063,871.275L1342.063,871.275z"/>
		<path fill-rule="evenodd" clip-rule="evenodd" fill="#AF336B" d="M889.849,424.198c27.535,0,49.857,22.413,49.857,50.061l0,0
			c0,27.648-22.322,50.061-49.857,50.061l0,0c-27.535,0-49.857-22.413-49.857-50.061l0,0
			C839.992,446.611,862.314,424.198,889.849,424.198L889.849,424.198z"/>
		<path fill-rule="evenodd" clip-rule="evenodd" fill="#AF336B" d="M779.711,483.728l57.276,57.51c0,0,49.685,52.508,105.471-3.507
			l15.719-16.324l15.367-15.429c0,0,17.825-21.377,38.417-0.701c0,0,12.912,15.089-2.095,30.158L826.509,720.079L652.673,894.621
			c0,0-15.367,11.221-29.336-2.805c0,0-13.62-14.377,2.794-30.859L792.284,694.13c0,0,64.674-59.858,13.97-113.617l-65.658-65.926
			l-7.683-7.715c0,0-15.367-14.027,2.794-32.262c0,0,16.589-16.657,31.432-3.507L779.711,483.728z"/>
		<path fill-rule="evenodd" clip-rule="evenodd" fill="#AF336B" d="M1003.324,707.34l-31.207-30.973c0,0-52.204-49.381,3.81-105.168
			l16.323-15.721l15.429-15.367c0,0,21.367-17.836,0.813-38.304c0,0-15.005-12.829-30.074,2.179l-92.943,91.661l-44.71,44.009
			c0,0-11.234,15.354,2.71,29.241c0,0,14.294,13.537,30.775-2.877l-54.703,55.373c0,0,59.872-64.659,113.32-14.266l39.574,39.305
			l7.669,7.638c0,0,13.939,15.279,32.174-2.882c0,0,16.657-16.589,3.59-31.349L1003.324,707.34z"/>
		<path fill-rule="evenodd" clip-rule="evenodd" fill="#0F5A83" d="M1191.025,727.752c27.535,0,49.857,22.413,49.857,50.061l0,0
			c0,27.648-22.322,50.061-49.857,50.061l0,0c-27.535,0-49.857-22.413-49.857-50.061l0,0
			C1141.168,750.165,1163.49,727.752,1191.025,727.752L1191.025,727.752z"/>
		<path fill-rule="evenodd" clip-rule="evenodd" fill="#0F5A83" d="M953.633,1126.856L969,1111.427c0,0,17.825-21.377,38.417-0.701
			c0,0,12.912,15.089-2.095,30.158l-14.668,14.728l-38.417,38.574c0,0-15.367,11.221-29.336-2.805c0,0-15.577-15.669,0-33.664
			L953.633,1126.856"/>
		<path fill-rule="evenodd" clip-rule="evenodd" fill="#AF336B" d="M1093.829,387.6l15.367-15.429c0,0,17.825-21.377,38.417-0.701
			c0,0,12.912,15.089-2.095,30.158l-14.668,14.728l-38.417,38.574c0,0-15.367,11.221-29.336-2.805c0,0-15.577-15.669,0-33.664
			L1093.829,387.6"/>
		<path fill-rule="evenodd" clip-rule="evenodd" fill="#0F5A83" d="M1071.896,776.658l64.042,64.753
			c0,0,49.685,52.508,105.471-3.507l148.079-148.684l15.367-15.429c0,0,17.825-21.377,38.417-0.701c0,0,12.912,15.089-2.095,30.158
			l-315.715,317.005l-38.417,38.574c0,0-15.367,11.221-29.336-2.805c0,0-13.62-14.377,2.794-30.859l29.336-29.456
			c0,0,64.085-63.824,15.367-115.02l-72.424-73.169l-13.193-13.224c0,0-15.367-14.027,2.794-32.262c0,0,16.589-16.657,31.432-3.507
			L1071.896,776.658z"/>
		<path fill-rule="evenodd" clip-rule="evenodd" fill="#0F5A83" d="M1326.875,1031.629l-53.882-53.172
			c0,0-52.4-49.577,3.614-105.364l148.683-148.079l15.429-15.367c0,0,21.373-17.829,0.741-38.377c0,0-15.059-12.883-30.128,2.125
			l-317.004,315.716l-38.573,38.417c0,0-11.226,15.362,2.771,29.302c0,0,14.348,13.591,30.829-2.823l29.456-29.336
			c0,0,63.824-64.085,114.915-15.471l62.281,61.536l7.698,7.667c0,0,13.996,15.336,32.231-2.825c0,0,16.657-16.589,3.536-31.402
			L1326.875,1031.629z"/>
		<path fill-rule="evenodd" clip-rule="evenodd" fill="#85A63F" d="M887.014,727.362c27.535,0,49.857,22.413,49.857,50.061l0,0
			c0,27.648-22.322,50.061-49.857,50.061l0,0c-27.535,0-49.857-22.413-49.857-50.061l0,0
			C837.157,749.774,859.479,727.362,887.014,727.362L887.014,727.362z"/>
		<path fill-rule="evenodd" clip-rule="evenodd" fill="#85A63F" d="M1006.02,851.23l-35.623,35.768c0,0-52.294,49.888,3.492,105.902
			l12.573,12.624l142.491,143.073c0,0,21.29,17.898,0.698,38.574c0,0-15.027,12.965-30.035-2.104L792.284,876.478l-38.417-38.574
			c0,0-11.176-15.429,2.794-29.456c0,0,14.319-13.676,30.733,2.805l29.336,29.456c0,0,63.564,64.347,114.551,15.429l44.005-44.184
			l7.683-7.715c0,0,13.97-15.429,32.13,2.805c0,0,16.589,16.657,3.492,31.56L1006.02,851.23z"/>
		<path fill-rule="evenodd" clip-rule="evenodd" fill="#85A63F" d="M778.941,1078.307l58.079-57.933c0,0,48.36-50.766,104.371,5.023
			l12.623,12.573l143.064,142.5c0,0,17.949,21.239,38.007,1.265c0,0,12.546-14.609-2.522-29.617l-308.57-307.352l-38.571-38.419
			c0,0-15.366-11.239-28.974,2.312c0,0-13.258,13.9,3.223,30.316l29.454,29.338c0,0,64.335,63.576,16.911,113.07l-66.244,66.064
			l-7.484,7.453c0,0-14.99,13.53,3.244,31.692c0,0,16.656,16.59,31.141,3.912L778.941,1078.307z"/>
		<path fill-rule="evenodd" clip-rule="evenodd" fill="#E18F38" d="M1182.475,430.694c27.535,0,49.857,22.413,49.857,50.061l0,0
			c0,27.648-22.322,50.061-49.857,50.061l0,0c-27.535,0-49.857-22.413-49.857-50.061l0,0
			C1132.618,453.107,1154.94,430.694,1182.475,430.694L1182.475,430.694z"/>
		<path fill-rule="evenodd" clip-rule="evenodd" fill="#E18F38" d="M1325.926,530.017l-51.688,51.899
			c0,0-52.294,49.888,3.492,105.902l12.573,12.624l15.367,15.429c0,0,21.29,17.898,0.698,38.574c0,0-15.027,12.965-30.035-2.104
			l-180.209-180.945l-38.417-38.574c0,0-11.176-15.429,2.794-29.456c0,0,14.319-13.676,30.733,2.805l29.336,29.456
			c0,0,63.564,64.347,114.551,15.429l60.07-60.315l7.683-7.715c0,0,13.97-15.429,32.13,2.805c0,0,16.589,16.657,3.492,31.56
			L1325.926,530.017z"/>
		<path fill-rule="evenodd" clip-rule="evenodd" fill="#E18F38" d="M1112.118,743.821l25.637-25.426c0,0,49.72-52.126,105.734,3.661
			l12.624,12.573l15.429,15.367c0,0,17.903,21.284,38.511,0.761c0,0,12.919-14.981-2.15-29.989l-180.944-180.21l-38.573-38.417
			c0,0-15.422-11.183-29.403,2.741c0,0-13.63,14.273,2.851,30.687l29.456,29.337c0,0,64.346,63.565,15.593,114.388l-34.026,33.78
			l-7.689,7.658c0,0-15.381,13.921,2.854,32.082c0,0,16.657,16.589,31.514,3.539L1112.118,743.821z"/>
		<path fill-rule="evenodd" clip-rule="evenodd" fill="#E18F38" d="M1426.464,838.65l15.367,15.429c0,0,21.288,17.9,0.724,38.549
			c0,0-15.009,12.946-30.016-2.123l-14.668-14.728l-38.417-38.574c0,0-11.179-15.427,2.773-29.435c0,0,15.585-15.62,33.505,0.022
			L1426.464,838.65"/>
		<path fill-rule="evenodd" clip-rule="evenodd" fill="#E18F38" d="M1142.458,550.944l15.367,15.429c0,0,21.288,17.9,0.724,38.549
			c0,0-15.009,12.946-30.016-2.123l-14.668-14.728L926.593,400.643c0,0-11.179-15.427,2.773-29.435c0,0,15.585-15.62,33.505,0.023
			L1142.458,550.944"/>
		<path fill-rule="evenodd" clip-rule="evenodd" fill="#85A63F" d="M689.565,706.128l15.367,15.43c0,0,21.288,17.9,0.724,38.548
			c0,0-15.009,12.946-30.016-2.123l-14.668-14.728l-38.417-38.574c0,0-11.179-15.427,2.773-29.435c0,0,15.585-15.62,33.505,0.023
			L689.565,706.128"/>
		<path fill-rule="evenodd" clip-rule="evenodd" fill="#E18F38" d="M1078.525,820.281"/>
	</g>
</g>
<g>
	<g>
		<path d="M-1165.173,960.69c8.155,4.038,14.271,8.044,18.35,12.021c4.076,3.979,6.117,9.055,6.117,15.227
			c0,5.7-0.918,11.576-2.753,17.631c-16.209,9.021-34.711,13.535-55.508,13.535c-16.617,0-28.978-4.127-37.082-12.378
			c-8.104-8.25-12.156-19.262-12.156-33.036c0-8.785,1.224-17.453,3.67-26.001l11.163-2.493l0.765,0.89
			c-1.735,8.076-2.6,15.494-2.6,22.262c-0.206,21.847,12.997,32.77,39.604,32.77c16.615,0,30.583-2.493,41.898-7.479l0.153-2.494
			c0-2.493-1.529-5.045-4.588-7.658c-3.059-2.61-8.054-5.816-14.985-9.617c-7.239-4.035-12.642-7.983-16.209-11.843
			c-3.569-3.857-5.352-8.933-5.352-15.227c0-6.768,1.579-13.652,4.74-20.659c7.746-4.867,16.412-7.302,25.995-7.302
			c6.217,0,12.691,1.13,19.42,3.384l-0.152,17.097l-0.765,0.535c-7.646-2.137-14.374-3.206-20.185-3.206
			c-5.914,0-11.163,0.832-15.751,2.494c-0.205,1.068-0.306,2.554-0.306,4.452c0,3.445,1.171,6.322,3.518,8.638
			C-1175.826,954.545-1171.494,957.367-1165.173,960.69z M-1206.766,1031.036l10.093,14.248l-12.692,12.288l-10.092-14.247
			L-1206.766,1031.036z M-1183.981,1031.036l10.093,14.248l-12.539,12.288l-10.245-14.247L-1183.981,1031.036z"/>
		<path d="M-1095.292,918.304h1.682c16.615,24.104,26.811,46.543,30.583,67.319l-8.104,17.097h-50.156l-3.67-16.563l1.224-1.603
			h46.945c-4.996-16.265-14.527-34.43-28.596-54.497L-1095.292,918.304z"/>
		<path d="M-1009.814,986.691v14.069l-1.529,1.959h-29.971V869.15h13.762v115.404h16.209L-1009.814,986.691z"/>
		<path d="M-1011.344,984.554h24.771c1.427,0,2.142,0.832,2.142,2.493v13.179c0,1.664-0.715,2.493-2.142,2.493h-24.771
			c-1.427,0-2.141-0.829-2.141-2.493v-13.179C-1013.484,985.386-1012.77,984.554-1011.344,984.554z"/>
		<path d="M-986.574,984.554h24.772c1.427,0,2.141,0.832,2.141,2.493v13.179c0,1.664-0.714,2.493-2.141,2.493h-24.772
			c-1.426,0-2.141-0.829-2.141-2.493v-13.179C-988.715,985.386-988,984.554-986.574,984.554z"/>
		<path d="M-952.17,1017.68l10.093,14.247l-12.692,12.289l-10.092-14.248L-952.17,1017.68z M-961.804,1002.72l-2.141-2.493v-13.713
			l2.141-1.959h24.467v-53.25h13.762v71.416H-961.804z M-919.293,1031.927l-12.539,12.289l-10.245-14.248l12.691-12.288
			L-919.293,1031.927z"/>
		<path d="M-876.936,857.574l1.224,9.083c-4.69,1.424-10.298,2.137-16.821,2.137h-14.832v-9.973l7.646,0.356
			c-1.938-2.966-2.905-5.994-2.905-9.083c0-4.391,0.917-8.607,2.752-12.645c3.771-1.542,7.646-2.315,11.622-2.315
			c2.955,0,5.964,0.417,9.021,1.247l-0.765,8.904c-3.264-0.473-6.422-0.712-9.48-0.712c-1.529,0-3.211,0.178-5.046,0.535
			c-0.206,0.712-0.306,2.02-0.306,3.918c0,4.157,1.018,7.6,3.058,10.329c5.812,0,10.499-0.712,14.068-2.137L-876.936,857.574z
			 M-898.65,881.082h13.763v121.638h-13.763V881.082z"/>
		<path d="M-756.901,986.513v14.425l-1.529,1.781h-4.282c-6.934,0-12.947-3.145-18.043-9.438c-4.793,3.444-9.711,5.877-14.757,7.302
			s-11.239,2.137-18.579,2.137h-16.209l-3.67-16.563l1.224-1.603h21.561c9.378,0,17.127-1.068,23.243-3.206l-2.446-4.987
			c-7.137-16.028-13.815-32.235-20.032-48.619l10.704-8.905h1.376c5.708,15.672,11.825,31.108,18.35,46.304
			c3.67,8.192,6.805,13.477,9.404,15.85c2.6,2.376,6.193,3.562,10.781,3.562h1.376L-756.901,986.513z"/>
		<path d="M-758.432,984.554h24.771c1.427,0,2.142,0.832,2.142,2.493v13.179c0,1.664-0.715,2.493-2.142,2.493h-24.771
			c-1.427,0-2.141-0.829-2.141-2.493v-13.179C-760.572,985.386-759.858,984.554-758.432,984.554z"/>
		<path d="M-733.662,984.554h24.772c1.427,0,2.141,0.832,2.141,2.493v13.179c0,1.664-0.714,2.493-2.141,2.493h-24.772
			c-1.426,0-2.141-0.829-2.141-2.493v-13.179C-735.803,985.386-735.088,984.554-733.662,984.554z"/>
		<path d="M-593.747,986.513v14.425l-1.529,1.781h-2.446c-5.607,0-11.571-3.206-17.891-9.617c-1.632,4.986-3.57,9.912-5.812,14.782
			c-15.088-2.257-28.647-6.412-40.675-12.467c-8.972,4.87-20.49,7.302-34.559,7.302h-12.233l-1.529-2.315v-13.357l1.529-2.493
			h30.431c-7.034-5.579-13.051-13.118-18.044-22.618c2.446-6.412,5.505-11.991,9.175-16.741l-9.939,2.849l-1.07-1.068v-14.96
			c14.271-3.918,26.351-5.877,36.24-5.877c15.188,0,27.346,3.979,36.47,11.932c9.123,7.956,13.687,19.056,13.687,33.304
			c0,2.849-0.256,6.055-0.765,9.617c4.076,2.376,9.122,3.562,15.139,3.562h2.293L-593.747,986.513z M-661.029,980.28
			c3.059-2.61,5.402-5.757,7.034-9.439c1.63-3.679,2.446-7.182,2.446-10.507c0-5.343-1.452-9.734-4.357-13.179
			c-2.905-3.442-6.552-5.104-10.934-4.987c-6.729,0.356-12.183,5.819-16.362,16.385
			C-678.514,968.053-671.121,975.293-661.029,980.28z M-624.941,974.403c0-7.48-1.682-13.771-5.046-18.878
			c-3.364-5.104-8.004-8.843-13.915-11.22c3.363,4.75,5.046,9.678,5.046,14.782c0,9.856-3.467,18.641-10.398,26.358
			c7.237,2.732,14.321,4.63,21.255,5.699C-625.962,985.328-624.941,979.746-624.941,974.403z"/>
		<path d="M-495.27,987.047v13.179l-1.529,2.493h-19.268c-10.604,0-20.337-2.908-29.206-8.727
			c-10.704,5.818-23.499,8.727-38.382,8.727h-11.621l-1.529-2.315v-13.357l1.529-2.493h16.056c8.154,0,15.292-0.593,21.408-1.781
			c-7.951-9.854-13.815-21.608-17.585-35.263l-6.27,1.959l-1.224-0.89l1.376-15.851c13.251-4.986,25.587-7.48,37.006-7.48
			c10.804,0,21.714,2.079,32.724,6.233l2.141,17.987c-4.281,13.418-11.315,24.755-21.103,34.016
			c3.977,0.712,8.511,1.068,13.609,1.068h20.338L-495.27,987.047z M-522.337,945.908c-5.913-2.137-13.762-3.206-23.549-3.206
			c-5.811,0-11.418,0.535-16.82,1.603c2.956,11.994,8.358,22.323,16.209,30.988c0.918,1.068,1.936,2.02,3.059,2.85
			C-533.552,970.307-526.518,959.563-522.337,945.908z"/>
		<path d="M-444.962,929.702c6.729,0,12.207,3.562,16.438,10.686c4.229,7.124,6.346,16.207,6.346,27.248
			c0,9.38-1.938,18.166-5.811,26.358l-10.704,11.933l-34.864-18.522c-3.161,5.582-6.373,9.528-9.634,11.843
			c-3.264,2.315-7.393,3.473-12.387,3.473h-1.223l-1.529-2.672v-12.466l1.529-3.028h2.446c3.67,0,6.752-1.572,9.251-4.719
			c2.497-3.145,5.632-8.933,9.404-17.364c4.688-10.446,9.481-18.522,14.374-24.221
			C-456.431,932.551-450.978,929.702-444.962,929.702z M-466.829,973.69l28.289,15.138c2.241-5.936,3.364-11.991,3.364-18.166
			c0-7.004-1.146-12.556-3.44-16.652s-5.328-6.144-9.099-6.144c-3.058,0-5.913,1.87-8.563,5.61c-2.652,3.74-5.761,9.647-9.328,17.72
			L-466.829,973.69z"/>
	</g>
	<g>
		<path d="M-1200.165,1170.48h-33.572l-8.97,30.2h-12.558l31.138-103.122h15.761l30.882,103.122h-13.839L-1200.165,1170.48z
			 M-1203.881,1157.664l-12.942-43.9l-13.07,43.9H-1203.881z"/>
		<path d="M-1114.57,1127.906l-33.444,109.015h-12.686l11.148-36.24h-3.716l-21.144-72.774h13.711l15.89,57.307l17.555-57.307
			H-1114.57z"/>
		<path d="M-1058.446,1152.508v29.316c0,6.286,1.067,12.131,3.204,17.53l-0.513,1.326h-12.302c-0.599-1.474-1.11-3.094-1.537-4.861
			c-5.639,4.714-11.961,7.071-18.965,7.071c-6.919,0-12.281-1.893-16.081-5.672c-3.803-3.779-5.702-9.108-5.702-15.983
			c0-5.695,1.237-11.245,3.716-16.647c9.226-2.748,21.185-4.32,35.879-4.714v-5.156c0-5.598-1.111-9.599-3.332-12.006
			c-2.222-2.405-5.596-3.609-10.123-3.609c-5.98,0-13.114,1.425-21.398,4.272l-0.897-0.59v-12.521
			c8.714-2.848,16.828-4.272,24.347-4.272c8.285,0,14.308,1.988,18.067,5.966
			C-1060.326,1135.935-1058.446,1142.785-1058.446,1152.508z M-1085.996,1191.547c4.87,0,9.951-1.717,15.249-5.156v-17.235
			c-10.68,0.492-19.394,1.425-26.141,2.799c-0.94,2.356-1.409,4.861-1.409,7.513
			C-1098.297,1187.521-1094.196,1191.547-1085.996,1191.547z"/>
		<path d="M-988.1,1090.193v91.336c0,6.188,1.025,12.131,3.075,17.825l-0.513,1.326h-12.686c-0.685-1.964-1.153-3.437-1.409-4.42
			c-5.468,4.42-11.49,6.63-18.067,6.63c-8.544,0-15.079-3.021-19.606-9.061c-4.529-6.04-6.791-14.901-6.791-26.59
			c0-6.874,0.704-13.554,2.114-20.035c1.409-6.482,3.223-11.735,5.445-15.764c6.235-3.73,12.984-5.598,20.246-5.598
			c5.895,0,11.02,0.935,15.377,2.799v-38.449H-988.1z M-1031.282,1165.767c0,16.108,5.424,24.16,16.273,24.16
			c4.783,0,9.482-1.669,14.096-5.009v-43.017c-4.187-2.063-9.143-3.094-14.864-3.094c-4.187,0-8.159,0.836-11.917,2.505
			C-1030.087,1148.876-1031.282,1157.026-1031.282,1165.767z"/>
		<path d="M-958.885,1116.563l-9.867-11.195l9.867-11.344l9.738,11.344L-958.885,1116.563z M-952.478,1127.906v72.774h-12.813
			v-72.774H-952.478z"/>
		<path d="M-889.949,1097.559v103.122h-13.069v-103.122H-889.949z"/>
		<path d="M-835.361,1125.844c14.436,0,21.655,7.808,21.655,23.424v51.413h-12.814v-48.467c0-8.545-4.058-12.816-12.173-12.816
			c-5.895,0-11.532,2.407-16.914,7.218v54.065h-12.814v-72.774h11.021l1.153,5.598
			C-849.158,1128.398-842.197,1125.844-835.361,1125.844z"/>
		<path d="M-771.036,1157.959c7.944,2.161,13.667,5.009,17.171,8.544c3.502,3.536,5.254,8.055,5.254,13.554
			c0,5.796-1.282,11.099-3.845,15.91c-4.869,4.617-12.003,6.924-21.399,6.924c-7.262,0-14.779-1.524-22.552-4.567l0.128-12.521
			l0.896-0.442c7.433,3.145,14.608,4.765,21.527,4.861c5.553,0,9.909-0.736,13.07-2.209c0.427-1.474,0.641-3.241,0.641-5.304
			c0-2.848-1.175-5.179-3.523-6.997c-2.351-1.816-6.429-3.559-12.237-5.23c-7.688-2.258-13.135-5.031-16.338-8.323
			c-3.203-3.289-4.805-7.782-4.805-13.479c0-5.303,1.323-10.606,3.972-15.91c2.307-2.063,5.424-3.706,9.354-4.935
			c3.928-1.228,7.9-1.842,11.917-1.842c6.663,0,13.026,1.425,19.093,4.272v12.521l-0.897,0.59
			c-6.493-3.044-12.602-4.567-18.323-4.567c-4.87,0-9.185,0.884-12.942,2.651c-0.429,1.966-0.641,3.734-0.641,5.304
			c0,2.651,1.025,4.788,3.075,6.408C-780.391,1154.792-776.59,1156.389-771.036,1157.959z"/>
		<path d="M-697.997,1184.182l3.46,11.785c-5.554,4.419-11.576,6.629-18.067,6.629c-11.619,0-17.427-7.414-17.427-22.245v-39.48
			h-9.739v-12.964h9.739v-18.562h12.813v18.562h20.631v12.964h-20.631v37.565c0,6.876,2.307,10.313,6.92,10.313
			C-706.71,1188.748-702.61,1187.227-697.997,1184.182z"/>
		<path d="M-676.086,1116.563l-9.867-11.195l9.867-11.344l9.738,11.344L-676.086,1116.563z M-669.68,1127.906v72.774h-12.813
			v-72.774H-669.68z"/>
		<path d="M-614.324,1184.182l3.46,11.785c-5.554,4.419-11.576,6.629-18.067,6.629c-11.619,0-17.427-7.414-17.427-22.245v-39.48
			h-9.739v-12.964h9.739v-18.562h12.813v18.562h20.631v12.964h-20.631v37.565c0,6.876,2.307,10.313,6.92,10.313
			C-623.037,1188.748-618.937,1187.227-614.324,1184.182z"/>
		<path d="M-544.489,1127.906v72.774h-11.021l-1.024-5.745c-7.092,5.303-14.096,7.955-21.016,7.955
			c-14.438,0-21.655-7.856-21.655-23.571v-51.413h12.814v48.467c0,8.644,4.056,12.964,12.173,12.964
			c5.895,0,11.532-2.405,16.914-7.218v-54.213H-544.489z"/>
		<path d="M-489.134,1184.182l3.46,11.785c-5.554,4.419-11.576,6.629-18.067,6.629c-11.619,0-17.427-7.414-17.427-22.245v-39.48
			h-9.739v-12.964h9.739v-18.562h12.813v18.562h20.631v12.964h-20.631v37.565c0,6.876,2.307,10.313,6.92,10.313
			C-497.847,1188.748-493.747,1187.227-489.134,1184.182z"/>
		<path d="M-424.553,1155.896c0,3.929-0.343,7.858-1.025,11.785h-40.62c0.341,7.66,1.923,13.259,4.741,16.794
			c2.819,3.536,7.304,5.304,13.455,5.304c6.919,0,13.839-1.474,20.758-4.42l0.897,0.59v12.08c-7.006,3.24-14.652,4.861-22.937,4.861
			c-10.081,0-17.491-3.021-22.232-9.061s-7.111-15.196-7.111-27.475c0-13.354,2.563-24.993,7.688-34.914
			c7.09-3.73,14.224-5.598,21.399-5.598C-432.882,1125.844-424.553,1135.861-424.553,1155.896z M-436.726,1157.517v-1.768
			c0-6.188-1.069-10.606-3.204-13.259c-2.136-2.651-5.34-3.978-9.61-3.978c-4.869,0-9.098,0.885-12.686,2.652
			c-1.88,4.813-3.075,10.264-3.588,16.352H-436.726z"/>
	</g>
</g>
<g>
	<path fill-rule="evenodd" clip-rule="evenodd" fill="#4AA8B4" d="M-1672.777,1105.186c14.364,0,26.009,11.692,26.009,26.115l0,0
		c0,14.423-11.645,26.115-26.009,26.115l0,0c-14.364,0-26.009-11.692-26.009-26.115l0,0
		C-1698.786,1116.879-1687.141,1105.186-1672.777,1105.186L-1672.777,1105.186z"/>
	<path fill-rule="evenodd" clip-rule="evenodd" fill="#4AA8B4" d="M-1673.974,949.721c14.364,0,26.009,11.692,26.009,26.115l0,0
		c0,14.423-11.645,26.115-26.009,26.115l0,0c-14.364,0-26.009-11.692-26.009-26.115l0,0
		C-1699.983,961.414-1688.339,949.721-1673.974,949.721L-1673.974,949.721z"/>
	<path fill-rule="evenodd" clip-rule="evenodd" fill="#4AA8B4" d="M-1593.378,1184.91c14.364,0,26.009,11.692,26.009,26.115l0,0
		c0,14.423-11.645,26.115-26.009,26.115l0,0c-14.364,0-26.009-11.692-26.009-26.115l0,0
		C-1619.387,1196.602-1607.742,1184.91-1593.378,1184.91L-1593.378,1184.91z"/>
	<path fill-rule="evenodd" clip-rule="evenodd" fill="#4AA8B4" d="M-1513.979,1105.186c14.364,0,26.009,11.692,26.009,26.115l0,0
		c0,14.423-11.645,26.115-26.009,26.115l0,0c-14.364,0-26.009-11.692-26.009-26.115l0,0
		C-1539.988,1116.879-1528.344,1105.186-1513.979,1105.186L-1513.979,1105.186z"/>
	<path fill-rule="evenodd" clip-rule="evenodd" fill="#4AA8B4" d="M-1514.182,945.944c14.364,0,26.009,11.692,26.009,26.115l0,0
		c0,14.423-11.645,26.115-26.009,26.115l0,0c-14.364,0-26.009-11.692-26.009-26.115l0,0
		C-1540.191,957.636-1528.547,945.944-1514.182,945.944L-1514.182,945.944z"/>
	<path fill-rule="evenodd" clip-rule="evenodd" fill="#4AA8B4" d="M-1359.845,950.423c14.364,0,26.009,11.692,26.009,26.115l0,0
		c0,14.423-11.645,26.115-26.009,26.115l0,0c-14.364,0-26.009-11.692-26.009-26.115l0,0
		C-1385.854,962.115-1374.21,950.423-1359.845,950.423L-1359.845,950.423z"/>
	<path fill-rule="evenodd" clip-rule="evenodd" fill="#4AA8B4" d="M-1438.066,1182.949c14.364,0,26.009,11.692,26.009,26.115l0,0
		c0,14.423-11.645,26.115-26.009,26.115l0,0c-14.364,0-26.009-11.692-26.009-26.115l0,0
		C-1464.075,1194.642-1452.431,1182.949-1438.066,1182.949L-1438.066,1182.949z"/>
	<path fill-rule="evenodd" clip-rule="evenodd" fill="#4AA8B4" d="M-1355.991,1100.539c14.364,0,26.009,11.692,26.009,26.115l0,0
		c0,14.423-11.645,26.115-26.009,26.115l0,0c-14.364,0-26.009-11.692-26.009-26.115l0,0
		C-1382,1112.231-1370.356,1100.539-1355.991,1100.539L-1355.991,1100.539z"/>
	<path fill-rule="evenodd" clip-rule="evenodd" fill="#AF336B" d="M-1591.899,867.311c14.364,0,26.009,11.692,26.009,26.115l0,0
		c0,14.423-11.645,26.115-26.009,26.115l0,0c-14.364,0-26.009-11.692-26.009-26.115l0,0
		C-1617.908,879.003-1606.263,867.311-1591.899,867.311L-1591.899,867.311z"/>
	<path fill-rule="evenodd" clip-rule="evenodd" fill="#AF336B" d="M-1649.355,898.366l29.879,30.001c0,0,25.919,27.392,55.021-1.829
		l8.2-8.516l8.016-8.049c0,0,9.299-11.152,20.041-0.366c0,0,6.736,7.871-1.093,15.732l-95.652,96.325l-90.686,91.054
		c0,0-8.016,5.854-15.304-1.464c0,0-7.105-7.5,1.458-16.098l86.678-87.029c0,0,33.739-31.226,7.288-59.271l-34.252-34.392
		l-4.008-4.025c0,0-8.016-7.317,1.458-16.83c0,0,8.654-8.689,16.397-1.829L-1649.355,898.366z"/>
	<path fill-rule="evenodd" clip-rule="evenodd" fill="#AF336B" d="M-1532.702,1015.019l-16.28-16.158
		c0,0-27.233-25.761,1.988-54.863l8.515-8.201l8.049-8.016c0,0,11.146-9.304,0.424-19.982c0,0-7.828-6.692-15.689,1.137
		l-48.486,47.817l-23.324,22.958c0,0-5.86,8.01,1.414,15.254c0,0,7.457,7.062,16.055-1.501l-28.537,28.887
		c0,0,31.234-33.731,59.116-7.442l20.645,20.505l4.001,3.984c0,0,7.272,7.971,16.784-1.503c0,0,8.689-8.654,1.873-16.354
		L-1532.702,1015.019z"/>
	<path fill-rule="evenodd" clip-rule="evenodd" fill="#0F5A83" d="M-1434.783,1025.667c14.364,0,26.009,11.692,26.009,26.115l0,0
		c0,14.423-11.645,26.115-26.009,26.115l0,0c-14.364,0-26.009-11.692-26.009-26.115l0,0
		C-1460.792,1037.359-1449.148,1025.667-1434.783,1025.667L-1434.783,1025.667z"/>
	<path fill-rule="evenodd" clip-rule="evenodd" fill="#0F5A83" d="M-1558.625,1233.869l8.016-8.049c0,0,9.299-11.152,20.041-0.366
		c0,0,6.736,7.871-1.093,15.732l-7.652,7.683l-20.041,20.123c0,0-8.016,5.854-15.304-1.464c0,0-8.126-8.174,0-17.562
		L-1558.625,1233.869"/>
	<path fill-rule="evenodd" clip-rule="evenodd" fill="#AF336B" d="M-1485.488,848.219l8.016-8.049c0,0,9.299-11.152,20.041-0.366
		c0,0,6.736,7.871-1.093,15.732l-7.652,7.683l-20.041,20.123c0,0-8.016,5.854-15.304-1.464c0,0-8.126-8.174,0-17.562
		L-1485.488,848.219"/>
	<path fill-rule="evenodd" clip-rule="evenodd" fill="#0F5A83" d="M-1496.93,1051.18l33.409,33.78c0,0,25.919,27.392,55.021-1.829
		l77.249-77.564l8.016-8.049c0,0,9.299-11.152,20.041-0.366c0,0,6.736,7.871-1.093,15.732l-164.7,165.373l-20.041,20.123
		c0,0-8.016,5.854-15.304-1.464c0,0-7.105-7.5,1.458-16.098l15.304-15.367c0,0,33.431-33.295,8.016-60.003l-37.782-38.17
		l-6.882-6.899c0,0-8.016-7.317,1.458-16.83c0,0,8.654-8.689,16.397-1.829L-1496.93,1051.18z"/>
	<path fill-rule="evenodd" clip-rule="evenodd" fill="#0F5A83" d="M-1363.915,1184.192l-28.109-27.738
		c0,0-27.336-25.863,1.885-54.966l77.564-77.249l8.049-8.016c0,0,11.15-9.301,0.387-20.02c0,0-7.856-6.721-15.717,1.109
		l-165.372,164.701l-20.123,20.041c0,0-5.856,8.014,1.446,15.286c0,0,7.485,7.09,16.083-1.473l15.366-15.304
		c0,0,33.295-33.431,59.948-8.071l32.49,32.102l4.016,4c0,0,7.301,8,16.814-1.474c0,0,8.689-8.654,1.845-16.382L-1363.915,1184.192z
		"/>
	<path fill-rule="evenodd" clip-rule="evenodd" fill="#85A63F" d="M-1593.378,1025.463c14.364,0,26.009,11.692,26.009,26.115l0,0
		c0,14.423-11.645,26.115-26.009,26.115l0,0c-14.364,0-26.009-11.692-26.009-26.115l0,0
		C-1619.387,1037.156-1607.742,1025.463-1593.378,1025.463L-1593.378,1025.463z"/>
	<path fill-rule="evenodd" clip-rule="evenodd" fill="#85A63F" d="M-1531.296,1090.082l-18.583,18.659
		c0,0-27.28,26.025,1.822,55.246l6.559,6.586l74.334,74.637c0,0,11.106,9.337,0.364,20.123c0,0-7.839,6.763-15.668-1.098
		l-160.328-160.983l-20.041-20.123c0,0-5.83-8.049,1.458-15.367c0,0,7.47-7.134,16.033,1.464l15.304,15.367
		c0,0,33.16,33.568,59.759,8.049l22.956-23.05l4.008-4.025c0,0,7.288-8.049,16.762,1.464c0,0,8.654,8.689,1.822,16.464
		L-1531.296,1090.082z"/>
	<path fill-rule="evenodd" clip-rule="evenodd" fill="#85A63F" d="M-1649.757,1208.542l30.298-30.222
		c0,0,25.228-26.483,54.448,2.621l6.585,6.559l74.633,74.338c0,0,9.363,11.08,19.828,0.66c0,0,6.545-7.621-1.315-15.451
		l-160.973-160.337l-20.122-20.042c0,0-8.016-5.863-15.115,1.206c0,0-6.916,7.251,1.681,15.815l15.366,15.305
		c0,0,33.562,33.166,8.822,58.985l-34.558,34.464l-3.904,3.888c0,0-7.82,7.058,1.692,16.533c0,0,8.689,8.655,16.245,2.041
		L-1649.757,1208.542z"/>
	<path fill-rule="evenodd" clip-rule="evenodd" fill="#E18F38" d="M-1439.244,870.7c14.364,0,26.009,11.692,26.009,26.115l0,0
		c0,14.423-11.645,26.115-26.009,26.115l0,0c-14.364,0-26.009-11.692-26.009-26.115l0,0
		C-1465.253,882.392-1453.608,870.7-1439.244,870.7L-1439.244,870.7z"/>
	<path fill-rule="evenodd" clip-rule="evenodd" fill="#E18F38" d="M-1364.41,922.514l-26.964,27.074c0,0-27.28,26.025,1.822,55.246
		l6.559,6.586l8.016,8.049c0,0,11.106,9.337,0.364,20.123c0,0-7.839,6.763-15.668-1.098l-94.01-94.394l-20.041-20.123
		c0,0-5.83-8.049,1.458-15.367c0,0,7.47-7.134,16.033,1.464l15.304,15.367c0,0,33.16,33.568,59.758,8.049l31.337-31.465l4.008-4.025
		c0,0,7.288-8.049,16.761,1.463c0,0,8.654,8.689,1.822,16.464L-1364.41,922.514z"/>
	<path fill-rule="evenodd" clip-rule="evenodd" fill="#E18F38" d="M-1475.948,1034.05l13.374-13.264c0,0,25.938-27.193,55.158,1.91
		l6.586,6.559l8.049,8.016c0,0,9.34,11.104,20.09,0.397c0,0,6.739-7.815-1.122-15.644l-94.394-94.011l-20.123-20.041
		c0,0-8.046-5.834-15.339,1.43c0,0-7.11,7.446,1.487,16.009l15.366,15.304c0,0,33.568,33.16,8.134,59.673l-17.75,17.622
		l-4.011,3.995c0,0-8.024,7.262,1.489,16.736c0,0,8.689,8.654,16.44,1.846L-1475.948,1034.05z"/>
	<path fill-rule="evenodd" clip-rule="evenodd" fill="#E18F38" d="M-1311.961,1083.519l8.016,8.049c0,0,11.105,9.338,0.377,20.11
		c0,0-7.83,6.754-15.659-1.107l-7.652-7.683l-20.041-20.123c0,0-5.832-8.048,1.446-15.355c0,0,8.13-8.148,17.479,0.012
		L-1311.961,1083.519"/>
	<path fill-rule="evenodd" clip-rule="evenodd" fill="#E18F38" d="M-1460.12,933.431l8.016,8.049c0,0,11.105,9.338,0.377,20.11
		c0,0-7.83,6.754-15.659-1.107l-7.652-7.683l-97.694-97.776c0,0-5.832-8.048,1.446-15.355c0,0,8.13-8.148,17.479,0.012
		L-1460.12,933.431"/>
	<path fill-rule="evenodd" clip-rule="evenodd" fill="#85A63F" d="M-1696.382,1014.386l8.016,8.049c0,0,11.105,9.338,0.377,20.11
		c0,0-7.83,6.754-15.659-1.107l-7.652-7.683l-20.041-20.123c0,0-5.832-8.048,1.446-15.355c0,0,8.13-8.148,17.479,0.012
		L-1696.382,1014.386"/>
	<path fill-rule="evenodd" clip-rule="evenodd" fill="#E18F38" d="M-1493.472,1073.937"/>
</g>
</svg>
