<svg width="57" height="56" viewBox="0 0 57 56" fill="none" xmlns="http://www.w3.org/2000/svg">
<ellipse cx="28.2917" cy="28" rx="28.2917" ry="28" fill="#EAE7DF"/>
<path d="M46.1453 26.1487L39.2113 22.483C39.0749 22.4127 38.9082 22.3776 38.749 22.3834V40.9991H45.7209C46.1377 40.9991 46.4787 40.7356 46.4787 40.4135V26.6348C46.4787 26.4357 46.3575 26.26 46.1453 26.1487ZM45.2207 37.1167C45.0768 37.2924 44.8343 37.3861 44.5842 37.3861C44.4478 37.3861 44.3038 37.3568 44.175 37.2924L40.2343 35.3483C39.8782 35.1726 39.7796 34.8095 40.007 34.5401C40.2343 34.2708 40.7042 34.1888 41.0528 34.3645L44.9934 36.3086C45.342 36.4843 45.4481 36.8473 45.2207 37.1167ZM45.2207 33.5622C45.0768 33.7379 44.8343 33.8316 44.5842 33.8316C44.4478 33.8316 44.3038 33.8023 44.175 33.7379L40.2343 31.7938C39.8782 31.6181 39.7796 31.255 40.007 30.9857C40.2343 30.7163 40.7042 30.6343 41.0528 30.81L44.9934 32.7541C45.342 32.9298 45.4481 33.2929 45.2207 33.5622ZM45.2207 30.0136C45.0768 30.1893 44.8343 30.283 44.5842 30.283C44.4478 30.283 44.3038 30.2537 44.175 30.1893L40.2343 28.2451C39.8782 28.0695 39.7796 27.7064 40.007 27.437C40.2343 27.1677 40.7042 27.0857 41.0528 27.2614L44.9934 29.2055C45.342 29.3753 45.4481 29.7384 45.2207 30.0136Z" fill="#878484"/>
<path d="M19.4327 21.0262C19.175 20.8739 18.8188 20.8622 18.5536 21.0028L10.445 25.1019C10.2328 25.2131 10.104 25.3947 10.104 25.5937V40.4149C10.104 40.7369 10.445 41.0004 10.8618 41.0004H19.7131V21.196L19.4327 21.0262ZM18.0231 34.7757L12.5669 37.3054C12.4456 37.364 12.3092 37.3874 12.1804 37.3874C11.9228 37.3874 11.6727 37.2878 11.5287 37.1005C11.3165 36.8252 11.4302 36.4622 11.7863 36.2982L17.2426 33.7685C17.5988 33.6045 18.0686 33.6924 18.2808 33.9676C18.5006 34.2487 18.3869 34.6059 18.0231 34.7757ZM18.0231 31.2212L12.5669 33.7509C12.4456 33.8095 12.3092 33.8329 12.1804 33.8329C11.9228 33.8329 11.6727 33.7334 11.5287 33.546C11.3165 33.2707 11.4302 32.9077 11.7863 32.7437L17.2426 30.214C17.5988 30.05 18.0686 30.1379 18.2808 30.4131C18.5006 30.6942 18.3869 31.0572 18.0231 31.2212ZM18.0231 27.6667L12.5669 30.1964C12.4456 30.255 12.3092 30.2784 12.1804 30.2784C11.9228 30.2784 11.6727 30.1789 11.5287 29.9915C11.3165 29.7163 11.4302 29.3532 11.7863 29.1892L17.2426 26.6595C17.5988 26.4955 18.0686 26.5834 18.2808 26.8586C18.5006 27.1455 18.3869 27.5028 18.0231 27.6667Z" fill="#878484"/>
<path d="M36.9077 18.9878L29.663 15.1054C29.3977 14.9649 29.0567 14.9649 28.7991 15.1054L21.5544 18.9878C21.3498 19.0932 21.2285 19.2748 21.2285 19.468V40.9999H37.2335V19.468C37.2335 19.2748 37.1047 19.0932 36.9077 18.9878ZM26.1998 37.4864C26.1998 37.8085 25.8587 38.072 25.442 38.072C25.0252 38.072 24.6841 37.8085 24.6841 37.4864V21.0901C24.6841 20.768 25.0252 20.5045 25.442 20.5045C25.8587 20.5045 26.1998 20.768 26.1998 21.0901V37.4864ZM29.9888 37.4864C29.9888 37.8085 29.6478 38.072 29.231 38.072C28.8142 38.072 28.4732 37.8085 28.4732 37.4864V21.0901C28.4732 20.768 28.8142 20.5045 29.231 20.5045C29.6478 20.5045 29.9888 20.768 29.9888 21.0901V37.4864ZM33.7779 37.4864C33.7779 37.8085 33.4369 38.072 33.0201 38.072C32.6033 38.072 32.2623 37.8085 32.2623 37.4864V21.0901C32.2623 20.768 32.6033 20.5045 33.0201 20.5045C33.4369 20.5045 33.7779 20.768 33.7779 21.0901V37.4864Z" fill="#B4975A"/>
</svg>
