<svg width="22" height="22" viewBox="0 0 22 22" fill="none" xmlns="http://www.w3.org/2000/svg">
<g clip-path="url(#clip0_3_4570)">
<path d="M19.0047 1.98438H2.9957C1.58315 1.98438 0.437988 3.12953 0.437988 4.54209V19.4425C0.437988 20.8551 1.58315 22.0002 2.9957 22.0002H19.0047C20.4173 22.0002 21.5624 20.8551 21.5624 19.4425V4.54209C21.5624 3.12946 20.4173 1.98438 19.0047 1.98438Z" fill="#EBF0F3"/>
<path d="M21.5624 6.78959V3.69053C21.5624 2.27797 20.4173 1.13281 19.0047 1.13281H2.9957C1.58315 1.13281 0.437988 2.27797 0.437988 3.69053V6.78959H21.5624Z" fill="#CE412D"/>
<path d="M21.5624 7.36824V4.54209C21.5624 3.12953 20.4173 1.98438 19.0047 1.98438H2.9957C1.58315 1.98438 0.437988 3.12953 0.437988 4.54209V7.36824H21.5624Z" fill="#E56353" fill-opacity="0.7"/>
<path d="M4.62755 3.35742C4.13453 3.35742 3.73486 3.75709 3.73486 4.25011C3.73486 4.74313 4.13453 5.14272 4.62755 5.14272C5.12057 5.14272 5.52017 4.74306 5.52017 4.25011C5.52024 3.75709 5.12057 3.35742 4.62755 3.35742Z" fill="#D15241"/>
<path d="M4.62747 0C4.36375 0 4.1499 0.213848 4.1499 0.477572V4.19847C4.1499 4.46226 4.36375 4.67604 4.62747 4.67604C4.8912 4.67604 5.10505 4.46226 5.10505 4.19847V0.477572C5.10505 0.213848 4.89127 0 4.62747 0Z" fill="#4D5C7D"/>
<path d="M8.87609 3.35742C8.38307 3.35742 7.9834 3.75709 7.9834 4.25011C7.9834 4.74313 8.38307 5.14272 8.87609 5.14272C9.36911 5.14272 9.7687 4.74306 9.7687 4.25011C9.76878 3.75709 9.36911 3.35742 8.87609 3.35742Z" fill="#D15241"/>
<path d="M8.87601 0C8.61229 0 8.39844 0.213848 8.39844 0.477572V4.19847C8.39844 4.46226 8.61229 4.67604 8.87601 4.67604C9.13973 4.67604 9.35358 4.46226 9.35358 4.19847V0.477572C9.35358 0.213848 9.13973 0 8.87601 0Z" fill="#4D5C7D"/>
<path d="M13.1246 3.35742C12.6316 3.35742 12.2319 3.75709 12.2319 4.25011C12.2319 4.74313 12.6316 5.14272 13.1246 5.14272C13.6176 5.14272 14.0172 4.74306 14.0172 4.25011C14.0172 3.75709 13.6176 3.35742 13.1246 3.35742Z" fill="#D15241"/>
<path d="M13.1245 0C12.8608 0 12.647 0.213848 12.647 0.477572V4.19847C12.647 4.46226 12.8608 4.67604 13.1245 4.67604C13.3883 4.67604 13.6021 4.46226 13.6021 4.19847V0.477572C13.6021 0.213848 13.3883 0 13.1245 0Z" fill="#4D5C7D"/>
<path d="M17.3732 3.35742C16.8801 3.35742 16.4805 3.75709 16.4805 4.25011C16.4805 4.74313 16.8801 5.14272 17.3732 5.14272C17.8662 5.14272 18.2658 4.74306 18.2658 4.25011C18.2658 3.75709 17.8661 3.35742 17.3732 3.35742Z" fill="#D15241"/>
<path d="M17.3731 0C17.1094 0 16.8955 0.213848 16.8955 0.477572V4.19847C16.8955 4.46226 17.1094 4.67604 17.3731 4.67604C17.6368 4.67604 17.8507 4.46226 17.8507 4.19847V0.477572C17.8507 0.213848 17.6369 0 17.3731 0Z" fill="#4D5C7D"/>
<path d="M8.23242 10.9023H10.1631V12.833H8.23242V10.9023Z" fill="#DBDADA"/>
<path d="M11.8374 10.9023H13.7681V12.833H11.8374V10.9023Z" fill="#DBDADA"/>
<path d="M15.4424 10.9023H17.373V12.833H15.4424V10.9023Z" fill="#DBDADA"/>
<path d="M4.62744 13.9297H6.5581V15.8604H4.62744V13.9297Z" fill="#DBDADA"/>
<path d="M8.23242 13.9297H10.1631V15.8604H8.23242V13.9297Z" fill="#DBDADA"/>
<path d="M11.8374 13.9297H13.7681V15.8604H11.8374V13.9297Z" fill="#DBDADA"/>
<path d="M15.4424 13.9297H17.373V15.8604H15.4424V13.9297Z" fill="#DBDADA"/>
<path d="M4.62744 16.9551H6.5581V18.8857H4.62744V16.9551Z" fill="#DBDADA"/>
<path d="M8.23242 16.9551H10.1631V18.8857H8.23242V16.9551Z" fill="#DBDADA"/>
<path d="M11.8374 16.9551H13.7681V18.8857H11.8374V16.9551Z" fill="#DBDADA"/>
</g>
<defs>
<clipPath id="clip0_3_4570">
<rect width="22" height="22" fill="white"/>
</clipPath>
</defs>
</svg>
