<svg width="44" height="44" viewBox="0 0 44 44" fill="none" xmlns="http://www.w3.org/2000/svg">
<path d="M44 7.08365V13.9005H0V7.08365C0 6.06466 0.637852 5.17936 1.57494 4.73494C1.9864 4.5384 2.45494 4.42773 2.95302 4.42773H41.047C42.18 4.42773 43.1643 5.00141 43.6584 5.84422C43.877 6.21428 44 6.63568 44 7.08365Z" fill="#FD646F"/>
<path d="M11.8121 4.42773V9.38544C11.8121 9.87413 11.3711 10.2707 10.8277 10.2707H6.29977C5.75641 10.2707 5.31543 9.87413 5.31543 9.38544V4.42773H11.8121Z" fill="#FC4755"/>
<path d="M37.1094 4.42773V9.38544C37.1094 9.87413 36.6685 10.2707 36.1251 10.2707H31.5971C31.0538 10.2707 30.6128 9.87413 30.6128 9.38544V4.42773H37.1094Z" fill="#FC4755"/>
<path d="M1.57494 4.73242V13.898H0V7.08114C0 6.06215 0.637852 5.17684 1.57494 4.73242Z" fill="#FC4755"/>
<path d="M8.07176 19.1934H13.1362C13.408 19.1934 13.6284 19.3916 13.6284 19.636V24.1909C13.6284 24.4353 13.408 24.6336 13.1362 24.6336H8.07176C7.79998 24.6336 7.57959 24.4353 7.57959 24.1909V19.636C7.57959 19.3916 7.79998 19.1934 8.07176 19.1934Z" fill="#E6E6E6"/>
<path d="M8.07176 25.9609H13.1362C13.408 25.9609 13.6284 26.1592 13.6284 26.4036V30.9594C13.6284 31.2038 13.408 31.402 13.1362 31.402H8.07176C7.79998 31.402 7.57959 31.2038 7.57959 30.9594V26.4036C7.57959 26.1592 7.79998 25.9609 8.07176 25.9609Z" fill="#E6E6E6"/>
<path d="M8.07176 32.7305H13.1362C13.408 32.7305 13.6284 32.9287 13.6284 33.1731V37.728C13.6284 37.9724 13.408 38.1707 13.1362 38.1707H8.07176C7.79998 38.1707 7.57959 37.9724 7.57959 37.728V33.1731C7.57959 32.9287 7.79998 32.7305 8.07176 32.7305Z" fill="#E6E6E6"/>
<path d="M15.5972 19.1934H20.7699C21.0416 19.1934 21.262 19.3916 21.262 19.636V24.1909C21.262 24.4353 21.0416 24.6336 20.7699 24.6336H15.5972C15.3254 24.6336 15.105 24.4353 15.105 24.1909V19.636C15.105 19.3916 15.3254 19.1934 15.5972 19.1934Z" fill="#E6E6E6"/>
<path d="M15.5972 25.9609H20.7699C21.0416 25.9609 21.262 26.1592 21.262 26.4036V30.9594C21.262 31.2038 21.0416 31.402 20.7699 31.402H15.5972C15.3254 31.402 15.105 31.2038 15.105 30.9594V26.4036C15.105 26.1592 15.3254 25.9609 15.5972 25.9609Z" fill="#E6E6E6"/>
<path d="M15.5972 32.7305H20.7699C21.0416 32.7305 21.262 32.9287 21.262 33.1731V37.728C21.262 37.9724 21.0416 38.1707 20.7699 38.1707H15.5972C15.3254 38.1707 15.105 37.9724 15.105 37.728V33.1731C15.105 32.9287 15.3254 32.7305 15.5972 32.7305Z" fill="#E6E6E6"/>
<path d="M23.2305 19.1934H28.4032C28.6749 19.1934 28.8953 19.3916 28.8953 19.636V24.1909C28.8953 24.4353 28.6749 24.6336 28.4032 24.6336H23.2305C22.9587 24.6336 22.7383 24.4353 22.7383 24.1909V19.636C22.7383 19.3916 22.9587 19.1934 23.2305 19.1934Z" fill="#E6E6E6"/>
<path d="M23.2305 25.9609H28.4032C28.6749 25.9609 28.8953 26.1592 28.8953 26.4036V30.9594C28.8953 31.2038 28.6749 31.402 28.4032 31.402H23.2305C22.9587 31.402 22.7383 31.2038 22.7383 30.9594V26.4036C22.7383 26.1592 22.9587 25.9609 23.2305 25.9609Z" fill="#E6E6E6"/>
<path d="M23.2305 32.7305H28.4032C28.6749 32.7305 28.8953 32.9287 28.8953 33.1731V37.728C28.8953 37.9724 28.6749 38.1707 28.4032 38.1707H23.2305C22.9587 38.1707 22.7383 37.9724 22.7383 37.728V33.1731C22.7383 32.9287 22.9587 32.7305 23.2305 32.7305Z" fill="#E6E6E6"/>
<path d="M36.4208 19.636V24.1909C36.4208 24.4353 36.2004 24.6336 35.9287 24.6336H30.8642C30.5925 24.6336 30.3721 24.4353 30.3721 24.1909V19.636C30.3721 19.3916 30.5925 19.1934 30.8642 19.1934H35.9287C36.2004 19.1934 36.4208 19.3916 36.4208 19.636Z" fill="#E6E6E6"/>
<path d="M30.8642 25.9609H35.9287C36.2004 25.9609 36.4208 26.1592 36.4208 26.4036V30.9594C36.4208 31.2038 36.2004 31.402 35.9287 31.402H30.8642C30.5925 31.402 30.3721 31.2038 30.3721 30.9594V26.4036C30.3721 26.1592 30.5925 25.9609 30.8642 25.9609Z" fill="#E6E6E6"/>
<path d="M30.8642 32.7305H35.9287C36.2004 32.7305 36.4208 32.9287 36.4208 33.1731V37.728C36.4208 37.9724 36.2004 38.1707 35.9287 38.1707H30.8642C30.5925 38.1707 30.3721 37.9724 30.3721 37.728V33.1731C30.3721 32.9287 30.5925 32.7305 30.8642 32.7305Z" fill="#E6E6E6"/>
<path d="M0 13.2793V41.3435C0 42.8104 1.32197 43.9994 2.95302 43.9994H41.047C42.678 43.9994 44 42.8104 44 41.3435V13.2793H0Z" fill="#EDEDED"/>
<path d="M11.8123 0.885305V7.96774C11.8123 8.45643 11.3713 8.85305 10.828 8.85305H7.87497C7.33161 8.85305 6.89062 8.45643 6.89062 7.96774V0.885305C6.89062 0.396617 7.33161 0 7.87497 0H10.828C11.3713 0 11.8123 0.396617 11.8123 0.885305Z" fill="#50758D"/>
<path d="M37.1097 0.885305V7.96774C37.1097 8.45643 36.6687 8.85305 36.1253 8.85305H33.1723C32.629 8.85305 32.188 8.45643 32.188 7.96774V0.885305C32.188 0.396617 32.629 0 33.1723 0H36.1253C36.6687 0 37.1097 0.396617 37.1097 0.885305Z" fill="#50758D"/>
<path d="M0 13.2793V41.3435C0 42.8104 1.32197 43.9994 2.95302 43.9994H4.04367C2.66658 43.7745 1.62416 42.6909 1.62416 41.3877V15.1579C1.73539 14.8879 2.0238 14.6958 2.36242 14.6958H44V13.3236V13.2793H0Z" fill="#E6E6E6"/>
<path d="M9.44991 8.85305H7.87497C7.33161 8.85305 6.89062 8.45643 6.89062 7.96774V0.885305C6.89062 0.396617 7.33161 0 7.87497 0H8.46557V7.96774C8.46557 8.45643 8.90655 8.85305 9.44991 8.85305Z" fill="#2B597F"/>
<path d="M34.7473 8.85305H33.1723C32.629 8.85305 32.188 8.45643 32.188 7.96774V0.885305C32.188 0.396617 32.629 0 33.1723 0H33.7629V7.96774C33.7629 8.45643 34.2039 8.85305 34.7473 8.85305Z" fill="#2B597F"/>
</svg>
