<svg width="18" height="30" viewBox="0 0 18 30" fill="none" xmlns="http://www.w3.org/2000/svg">
<path d="M9.52198 23.3725V23.9256C9.52198 24.1012 9.56025 24.2486 9.63578 24.3634C9.73997 24.5219 9.91099 24.6127 10.1052 24.6127C10.2954 24.6127 10.4845 24.5277 10.667 24.3604L12.6598 22.5337C13.0973 22.1326 13.0973 21.48 12.6598 21.079L10.667 19.2523C10.4845 19.0849 10.2954 19 10.1052 19C9.81486 19 9.52198 19.2125 9.52198 19.6871V20.1894C6.69282 20.3426 4.35072 22.3328 4.00264 24.9385C3.98313 25.0841 4.07341 25.2234 4.22218 25.2773C4.26429 25.2926 4.30815 25.3 4.35145 25.3C4.46113 25.3 4.56752 25.2529 4.63526 25.1681C5.56892 23.9987 7.068 23.3005 8.64527 23.3005C8.93751 23.3005 9.2314 23.3247 9.52198 23.3725Z" fill="#3C4558"/>
<path d="M14.2715 23.7227C14.1227 23.6686 13.953 23.7136 13.8584 23.832C12.9249 25.0013 11.4258 25.6995 9.84851 25.6995C9.55628 25.6995 9.26239 25.6753 8.97181 25.6275V25.0744C8.97181 24.5998 8.67884 24.3873 8.38861 24.3873C8.19837 24.3873 8.00931 24.4723 7.82666 24.6397L5.83393 26.4663C5.39649 26.8673 5.39649 27.5199 5.83402 27.9211L7.82666 29.7477C8.00931 29.9151 8.19837 30 8.38861 30C8.67884 30 8.97181 29.7875 8.97181 29.3129V28.8106C11.8011 28.6574 14.1431 26.6672 14.4912 24.0615C14.5107 23.9159 14.4204 23.7766 14.2715 23.7227Z" fill="#3C4558"/>
<path d="M17.0863 24C16.5817 24 16.1726 23.5803 16.1726 23.0625C16.1726 19.3923 13.2624 16.4063 9.68528 16.4063H8.31472C4.73761 16.4063 1.82741 19.3923 1.82741 23.0625C1.82741 23.5803 1.41835 24 0.913706 24C0.409066 24 0 23.5803 0 23.0625C0 18.3584 3.72997 14.5313 8.31472 14.5313H9.68528C14.27 14.5313 18 18.3584 18 23.0625C18 23.5803 17.5909 24 17.0863 24Z" fill="#3C4558"/>
<path d="M8.90872 12.6563C5.50796 12.6563 2.74121 9.81748 2.74121 6.32816C2.74121 2.83883 5.50796 3.05176e-05 8.90872 3.05176e-05C12.3095 3.05176e-05 15.0762 2.83883 15.0762 6.32816C15.0762 9.81748 12.3095 12.6563 8.90872 12.6563ZM8.90872 1.87503C6.51559 1.87503 4.56862 3.8727 4.56862 6.32816C4.56862 8.78361 6.51559 10.7813 8.90872 10.7813C11.3019 10.7813 13.2488 8.78361 13.2488 6.32816C13.2488 3.8727 11.3019 1.87503 8.90872 1.87503Z" fill="#3C4558"/>
</svg>
