<svg width="24" height="24" viewBox="0 0 24 24" fill="none" xmlns="http://www.w3.org/2000/svg">
<path d="M17.6017 17.975V18.4778C17.6017 18.6375 17.6335 18.7714 17.6965 18.8758C17.7833 19.0198 17.9258 19.1024 18.0876 19.1024C18.2462 19.1024 18.4037 19.0252 18.5559 18.873L20.2165 17.2124C20.5811 16.8478 20.5811 16.2546 20.2165 15.89L18.5559 14.2293C18.4037 14.0771 18.2462 14 18.0876 14C17.8457 14 17.6017 14.1932 17.6017 14.6246V15.0812C15.244 15.2205 13.2923 17.0298 13.0022 19.3986C12.9859 19.5309 13.0612 19.6576 13.1851 19.7066C13.2202 19.7205 13.2568 19.7272 13.2929 19.7272C13.3843 19.7272 13.4729 19.6844 13.5294 19.6073C14.3074 18.5442 15.5567 17.9095 16.8711 17.9095C17.1146 17.9095 17.3595 17.9315 17.6017 17.975Z" fill="#3C4558"/>
<path d="M21.5596 18.2933C21.4356 18.2442 21.2942 18.2851 21.2154 18.3927C20.4374 19.4557 19.1882 20.0904 17.8738 20.0904C17.6302 20.0904 17.3853 20.0684 17.1432 20.025V19.5222C17.1432 19.0907 16.899 18.8976 16.6572 18.8976C16.4986 18.8976 16.3411 18.9748 16.1889 19.127L14.5283 20.7875C14.1637 21.1521 14.1637 21.7454 14.5283 22.1101L16.1889 23.7706C16.3411 23.9228 16.4986 24 16.6572 24C16.899 24 17.1432 23.8068 17.1432 23.3753V22.9187C19.5009 22.7795 21.4526 20.9702 21.7426 18.6014C21.7589 18.469 21.6837 18.3424 21.5596 18.2933Z" fill="#3C4558"/>
<path fill-rule="evenodd" clip-rule="evenodd" d="M4 14C4 12.897 4.897 12 6 12H8C9.103 12 10 12.897 10 14V16C10 17.103 9.103 18 8 18H6C4.897 18 4 17.103 4 16V14ZM6 14V16H8V14H6ZM18 2H19C21.757 2 24 4.243 24 7V17.3333H22V10H2V19C2 20.654 3.346 22 5 22H12V24H5C2.243 24 0 21.757 0 19V7C0 4.243 2.243 2 5 2H6V1C6 0.448 6.447 0 7 0C7.553 0 8 0.448 8 1V2H16V1C16 0.448 16.447 0 17 0C17.553 0 18 0.448 18 1V2ZM19 4H5C3.346 4 2 5.346 2 7V8H22V7C22 5.346 20.654 4 19 4Z" fill="#3C4558"/>
</svg>
