<svg width="18" height="28" viewBox="0 0 18 28" fill="none" xmlns="http://www.w3.org/2000/svg">
<path d="M17.0863 23.864C16.8698 23.864 16.6726 23.6803 16.6726 23.4265C16.6726 19.4923 13.5506 16.2702 9.68528 16.2702H8.31472C4.44943 16.2702 1.32741 19.4923 1.32741 23.4265C1.32741 23.6803 1.13016 23.864 0.913706 23.864C0.697248 23.864 0.5 23.6803 0.5 23.4265C0.5 18.9863 4.01816 15.3952 8.31472 15.3952H9.68528C13.9818 15.3952 17.5 18.9863 17.5 23.4265C17.5 23.6803 17.3028 23.864 17.0863 23.864Z" fill="#3C4558" stroke="#3C4558"/>
<path d="M8.90872 12.5202C5.79614 12.5202 3.24121 9.91749 3.24121 6.69211C3.24121 3.46673 5.79614 0.863983 8.90872 0.863983C12.0213 0.863983 14.5762 3.46673 14.5762 6.69211C14.5762 9.91749 12.0213 12.5202 8.90872 12.5202ZM8.90872 1.73898C6.22741 1.73898 4.06862 3.97271 4.06862 6.69211C4.06862 9.41151 6.22741 11.6452 8.90872 11.6452C11.59 11.6452 13.7488 9.41151 13.7488 6.69211C13.7488 3.97271 11.59 1.73898 8.90872 1.73898Z" fill="#3C4558" stroke="#3C4558"/>
<path d="M3.13555 25.0903L3.13552 25.0903C2.82149 24.8026 2.82149 24.3323 3.13552 24.0447L3.13554 24.0446C3.44461 23.7617 3.94226 23.7617 4.25133 24.0446L4.25134 24.0447L6.55171 26.1513L12.7487 20.4762L12.7487 20.4762C13.0577 20.1932 13.5554 20.1932 13.8645 20.4762L13.8645 20.4762C14.1785 20.7639 14.1785 21.2342 13.8645 21.5218L13.8645 21.5219L7.45162 27.3938L3.13555 25.0903ZM3.13555 25.0903L5.65181 27.3938C5.65183 27.3938 5.65186 27.3939 5.65188 27.3939M3.13555 25.0903L5.65188 27.3939M5.65188 27.3939C5.89178 27.6139 6.21566 27.7361 6.55171 27.736M5.65188 27.3939L7.45155 27.3939C7.21165 27.6139 6.88777 27.7361 6.55171 27.736M6.55171 27.736C6.5517 27.736 6.55169 27.736 6.55167 27.736L6.55171 27.636L6.55175 27.736C6.55174 27.736 6.55172 27.736 6.55171 27.736Z" fill="#3C4558" stroke="#3C4558" stroke-width="0.2"/>
</svg>
