<?xml version="1.0" encoding="UTF-8"?>
<svg width="18px" height="18px" viewBox="0 0 18 18" version="1.1" xmlns="http://www.w3.org/2000/svg" xmlns:xlink="http://www.w3.org/1999/xlink">
    <title>cclock</title>
    <g id="UI"  stroke-width="1"  fill-rule="evenodd">
        <g id="Design-Package---payment" transform="translate(-225.000000, -232.000000)" fill="#425878" fill-rule="nonzero">
            <path d="M233.999979,249.968745 C238.816373,249.968745 242.718708,246.066411 242.718708,241.250016 C242.718708,236.433621 238.816373,232.531287 233.999979,232.531287 C229.183584,232.531287 225.281249,236.433621 225.281249,241.250016 C225.281249,246.066411 229.183584,249.968745 233.999979,249.968745 Z M233.999979,248.281249 C230.115222,248.281249 226.968745,245.134772 226.968745,241.250016 C226.968745,237.36526 230.115222,234.218783 233.999979,234.218783 C237.884735,234.218783 241.031212,237.36526 241.031212,241.250016 C241.031212,245.134772 237.884735,248.281249 233.999979,248.281249 Z M236.763239,244.51954 L237.424203,243.608981 C237.561291,243.419158 237.522633,243.155487 237.332776,243.018364 L234.984351,241.309788 L234.984351,236.328153 C234.984351,236.096136 234.794494,235.906279 234.562477,235.906279 L233.43748,235.906279 C233.205463,235.906279 233.015606,236.096136 233.015606,236.328153 L233.015606,242.100802 C233.015606,242.234389 233.07888,242.360937 233.187885,242.441824 L236.172623,244.610932 C236.36248,244.748055 236.626151,244.70586 236.763239,244.51954 Z" id="cclock"></path>
        </g>
    </g>
</svg>