<svg width="18" height="19" viewBox="0 0 18 19" xmlns="http://www.w3.org/2000/svg">
<g clip-path="url(#clip0_1155_19709)">
<path d="M15.75 3.5H13.425C13.2509 2.65356 12.7904 1.89301 12.1209 1.34654C11.4515 0.800068 10.6142 0.501091 9.75 0.5L8.25 0.5C7.38585 0.501091 6.54849 0.800068 5.87906 1.34654C5.20964 1.89301 4.74907 2.65356 4.575 3.5H2.25C2.05109 3.5 1.86032 3.57902 1.71967 3.71967C1.57902 3.86032 1.5 4.05109 1.5 4.25C1.5 4.44891 1.57902 4.63968 1.71967 4.78033C1.86032 4.92098 2.05109 5 2.25 5H3V14.75C3.00119 15.7442 3.39666 16.6973 4.09966 17.4003C4.80267 18.1033 5.7558 18.4988 6.75 18.5H11.25C12.2442 18.4988 13.1973 18.1033 13.9003 17.4003C14.6033 16.6973 14.9988 15.7442 15 14.75V5H15.75C15.9489 5 16.1397 4.92098 16.2803 4.78033C16.421 4.63968 16.5 4.44891 16.5 4.25C16.5 4.05109 16.421 3.86032 16.2803 3.71967C16.1397 3.57902 15.9489 3.5 15.75 3.5ZM8.25 2H9.75C10.2152 2.00057 10.6688 2.14503 11.0487 2.41358C11.4286 2.68213 11.7161 3.06162 11.8717 3.5H6.12825C6.28394 3.06162 6.57143 2.68213 6.95129 2.41358C7.33115 2.14503 7.78479 2.00057 8.25 2ZM13.5 14.75C13.5 15.3467 13.2629 15.919 12.841 16.341C12.419 16.7629 11.8467 17 11.25 17H6.75C6.15326 17 5.58097 16.7629 5.15901 16.341C4.73705 15.919 4.5 15.3467 4.5 14.75V5H13.5V14.75Z"/>
<path d="M7.5 14C7.69891 14 7.88968 13.921 8.03033 13.7803C8.17098 13.6397 8.25 13.4489 8.25 13.25V8.75C8.25 8.55109 8.17098 8.36032 8.03033 8.21967C7.88968 8.07902 7.69891 8 7.5 8C7.30109 8 7.11032 8.07902 6.96967 8.21967C6.82902 8.36032 6.75 8.55109 6.75 8.75V13.25C6.75 13.4489 6.82902 13.6397 6.96967 13.7803C7.11032 13.921 7.30109 14 7.5 14Z"/>
<path d="M10.5 14C10.6989 14 10.8897 13.921 11.0303 13.7803C11.171 13.6397 11.25 13.4489 11.25 13.25V8.75C11.25 8.55109 11.171 8.36032 11.0303 8.21967C10.8897 8.07902 10.6989 8 10.5 8C10.3011 8 10.1103 8.07902 9.96967 8.21967C9.82902 8.36032 9.75 8.55109 9.75 8.75V13.25C9.75 13.4489 9.82902 13.6397 9.96967 13.7803C10.1103 13.921 10.3011 14 10.5 14Z"/>
</g>
<defs>
<clipPath id="clip0_1155_19709">
<rect width="18" height="18" fill="white" transform="translate(0 0.5)"/>
</clipPath>
</defs>
</svg>
