<svg width="24" height="24" viewBox="0 0 24 24" fill="none" xmlns="http://www.w3.org/2000/svg">
<g clip-path="url(#clip0_689_13258)">
<path d="M22.897 12.0008L23.9499 9.25453C24.0654 8.95155 23.9754 8.60807 23.7219 8.40259L21.4391 6.55171L20.9771 3.64641C20.9261 3.32543 20.6741 3.07495 20.3532 3.02396L17.4478 2.56199L15.5985 0.277643C15.3945 0.0241601 15.0435 -0.0658337 14.748 0.0496584L12.0002 1.10409L9.25391 0.0511583C8.94943 -0.0658337 8.60895 0.0271599 8.40347 0.279143L6.55259 2.56349L3.64729 3.02545C3.32781 3.07645 3.07583 3.32843 3.02483 3.64791L2.56287 6.55321L0.278521 8.40409C0.0265384 8.60807 -0.0649554 8.95155 0.0505367 9.25453L1.10346 12.0008L0.0505367 14.7472C-0.0664553 15.0501 0.0265384 15.3936 0.278521 15.5976L2.56287 17.447L3.02483 20.3523C3.07583 20.6732 3.32631 20.9252 3.64729 20.9762L6.55259 21.4382L8.40347 23.721C8.60895 23.976 8.95243 24.066 9.25541 23.949L12.0002 22.8976L14.7465 23.9505C14.8335 23.9835 14.9235 24 15.015 24C15.2355 24 15.453 23.9025 15.5985 23.721L17.4478 21.4382L20.3532 20.9762C20.6741 20.9252 20.9261 20.6732 20.9771 20.3523L21.4391 17.447L23.7219 15.5976C23.9754 15.3921 24.0654 15.0501 23.9499 14.7472L22.897 12.0008Z" fill="#F44336"/>
<path d="M9.75033 10.4997C8.50992 10.4997 7.50049 9.49026 7.50049 8.24985C7.50049 7.00943 8.50992 6 9.75033 6C10.9907 6 12.0002 7.00943 12.0002 8.24985C12.0002 9.49026 10.9907 10.4997 9.75033 10.4997ZM9.75033 7.4999C9.33636 7.4999 9.00039 7.83587 9.00039 8.24985C9.00039 8.66382 9.33636 8.99979 9.75033 8.99979C10.1643 8.99979 10.5003 8.66382 10.5003 8.24985C10.5003 7.83587 10.1643 7.4999 9.75033 7.4999Z" fill="#FAFAFA"/>
<path d="M14.2498 17.9997C13.0094 17.9997 12 16.9903 12 15.7498C12 14.5094 13.0094 13.5 14.2498 13.5C15.4903 13.5 16.4997 14.5094 16.4997 15.7498C16.4997 16.9903 15.4903 17.9997 14.2498 17.9997ZM14.2498 14.9999C13.8374 14.9999 13.4999 15.3374 13.4999 15.7498C13.4999 16.1623 13.8374 16.4998 14.2498 16.4998C14.6623 16.4998 14.9998 16.1623 14.9998 15.7498C14.9998 15.3374 14.6623 14.9999 14.2498 14.9999Z" fill="#FAFAFA"/>
<path d="M8.25026 18C8.09877 18 7.94728 17.955 7.81529 17.8605C7.47781 17.619 7.39981 17.1511 7.6413 16.8136L15.1408 6.31431C15.3823 5.97683 15.8502 5.89884 16.1877 6.14032C16.5252 6.38031 16.6017 6.84977 16.3617 7.18575L8.86222 17.685C8.71373 17.8905 8.48424 18 8.25026 18Z" fill="#FAFAFA"/>
</g>
<defs>
<clipPath id="clip0_689_13258">
<rect width="24" height="24" fill="white"/>
</clipPath>
</defs>
</svg>
