<svg width="24" height="24" viewBox="0 0 24 24" xmlns="http://www.w3.org/2000/svg">
<g clip-path="url(#clip0_3_4774)">
<path d="M17.5 1.91797C16.3739 1.93548 15.2724 2.24982 14.3067 2.82924C13.341 3.40866 12.5453 4.23264 12 5.21797C11.4546 4.23264 10.6589 3.40866 9.6932 2.82924C8.7275 2.24982 7.62601 1.93548 6.49996 1.91797C4.7049 1.99596 3.01366 2.78122 1.79574 4.1022C0.577818 5.42318 -0.0677922 7.17249 -4.17093e-05 8.96797C-4.17093e-05 13.515 4.78596 18.481 8.79996 21.848C9.69618 22.6011 10.8293 23.014 12 23.014C13.1706 23.014 14.3037 22.6011 15.2 21.848C19.214 18.481 24 13.515 24 8.96797C24.0677 7.17249 23.4221 5.42318 22.2042 4.1022C20.9863 2.78122 19.295 1.99596 17.5 1.91797ZM13.915 20.318C13.3789 20.7693 12.7007 21.0169 12 21.0169C11.2992 21.0169 10.621 20.7693 10.085 20.318C4.94696 16.007 1.99996 11.871 1.99996 8.96797C1.9316 7.70268 2.36632 6.4617 3.20932 5.51567C4.05232 4.56964 5.23519 3.99532 6.49996 3.91797C7.76472 3.99532 8.9476 4.56964 9.7906 5.51567C10.6336 6.4617 11.0683 7.70268 11 8.96797C11 9.23319 11.1053 9.48754 11.2929 9.67508C11.4804 9.86261 11.7347 9.96797 12 9.96797C12.2652 9.96797 12.5195 9.86261 12.7071 9.67508C12.8946 9.48754 13 9.23319 13 8.96797C12.9316 7.70268 13.3663 6.4617 14.2093 5.51567C15.0523 4.56964 16.2352 3.99532 17.5 3.91797C18.7647 3.99532 19.9476 4.56964 20.7906 5.51567C21.6336 6.4617 22.0683 7.70268 22 8.96797C22 11.871 19.053 16.007 13.915 20.314V20.318Z"/>
</g>
<defs>
<clipPath id="clip0_3_4774">
<rect width="24" height="24" fill="white"/>
</clipPath>
</defs>
</svg>
