<svg width="24" height="24" viewBox="0 0 24 24" fill="none" xmlns="http://www.w3.org/2000/svg">
<g clip-path="url(#clip0_4_5715)">
<path d="M17.5 1.91797C16.3739 1.93548 15.2724 2.24982 14.3067 2.82924C13.341 3.40866 12.5453 4.23264 12 5.21797C11.4546 4.23264 10.6589 3.40866 9.6932 2.82924C8.7275 2.24982 7.62601 1.93548 6.49996 1.91797C4.7049 1.99596 3.01366 2.78122 1.79574 4.1022C0.577818 5.42318 -0.0677922 7.17249 -4.17093e-05 8.96797C-4.17093e-05 13.515 4.78596 18.481 8.79996 21.848C9.69618 22.6011 10.8293 23.014 12 23.014C13.1706 23.014 14.3037 22.6011 15.2 21.848C19.214 18.481 24 13.515 24 8.96797C24.0677 7.17249 23.4221 5.42318 22.2042 4.1022C20.9863 2.78122 19.295 1.99596 17.5 1.91797Z" fill="#FF7676"/>
</g>
<defs>
<clipPath id="clip0_4_5715">
<rect width="24" height="24" fill="white"/>
</clipPath>
</defs>
</svg>
