<svg xmlns="http://www.w3.org/2000/svg" xmlns:xlink="http://www.w3.org/1999/xlink" width="147.661" height="46" viewBox="0 0 147.661 46">
  <defs>
    <linearGradient id="linear-gradient" x1="0.298" y1="0.551" x2="1.029" y2="0.62" gradientUnits="objectBoundingBox">
      <stop offset="0" stop-color="#00afc5"/>
      <stop offset="1" stop-color="#dfdfdf" stop-opacity="0.902"/>
    </linearGradient>
    <linearGradient id="linear-gradient-2" x1="0.298" y1="0.551" x2="1.029" y2="0.62" gradientUnits="objectBoundingBox">
      <stop offset="0" stop-color="#fff" stop-opacity="0"/>
      <stop offset="1" stop-color="#dfdfdf" stop-opacity="0.902"/>
    </linearGradient>
    <clipPath id="clip-path">
      <rect id="Rectangle_640" data-name="Rectangle 640" width="28.277" height="14.364" fill="url(#linear-gradient)"/>
    </clipPath>
    <clipPath id="clip-path-2">
      <path id="Path_1463" data-name="Path 1463" d="M127.083,89.759A12.219,12.219,0,0,1,114.5,86.832l-7.625,7.625a23.029,23.029,0,0,0,28.277,3.365Z" transform="translate(-106.87 -86.832)" fill="url(#linear-gradient-2)"/>
    </clipPath>
    <linearGradient id="linear-gradient-3" x1="0.298" y1="0.551" x2="1.029" y2="0.62" gradientUnits="objectBoundingBox">
      <stop offset="0" stop-color="#12acbe"/>
      <stop offset="1" stop-color="#0b4e5b"/>
    </linearGradient>
  </defs>
  <g id="Group_1428" data-name="Group 1428" transform="translate(-298 -55.819)">
    <g id="Group_1420" data-name="Group 1420" transform="translate(344.871 70.464)">
      <path id="Path_1456" data-name="Path 1456" d="M15.4,155.228l-2.133,2.109a6.3,6.3,0,0,0-4.72-2.142,5.392,5.392,0,0,0-3.935,1.558,5.107,5.107,0,0,0-1.586,3.785,5.24,5.24,0,0,0,1.645,3.9,5.6,5.6,0,0,0,4.06,1.6,4.983,4.983,0,0,0,2.648-.66,4.647,4.647,0,0,0,1.738-2.066H8.512v-2.845h8l.021.671a7.789,7.789,0,0,1-1.081,3.959,7.562,7.562,0,0,1-2.8,2.855,7.985,7.985,0,0,1-4.034.984A8.96,8.96,0,0,1,4.2,167.866,7.873,7.873,0,0,1,1.13,164.8,8.553,8.553,0,0,1,0,160.506a7.981,7.981,0,0,1,2.087-5.494,8.228,8.228,0,0,1,6.446-2.78,9.816,9.816,0,0,1,3.883.768,8.9,8.9,0,0,1,2.985,2.228" transform="translate(0 -152.232)" fill="#12acbe"/>
      <rect id="Rectangle_638" data-name="Rectangle 638" width="2.953" height="16.31" transform="translate(18.668 0)" fill="#12acbe"/>
      <path id="Path_1457" data-name="Path 1457" d="M71.23,163.869a6.239,6.239,0,0,1,3.131.833,6.106,6.106,0,0,1,3.109,5.343,6.183,6.183,0,0,1-.827,3.115,5.973,5.973,0,0,1-2.255,2.266,6.228,6.228,0,0,1-3.148.816,5.87,5.87,0,0,1-4.321-1.8,6.238,6.238,0,0,1,.232-8.972,5.908,5.908,0,0,1,4.077-1.6m.049,2.78a3.038,3.038,0,0,0-2.291.957,3.4,3.4,0,0,0-.916,2.45,3.461,3.461,0,0,0,.905,2.488,3.025,3.025,0,0,0,2.291.952,3.061,3.061,0,0,0,2.308-.963,3.795,3.795,0,0,0,.016-4.937,3.06,3.06,0,0,0-2.313-.947" transform="translate(-41.401 -159.629)" fill="#12acbe"/>
      <path id="Path_1458" data-name="Path 1458" d="M108.553,152.231v5.841a5.542,5.542,0,0,1,1.731-1.2,4.984,4.984,0,0,1,1.99-.4,5.137,5.137,0,0,1,3.915,1.741,6.318,6.318,0,0,1,1.612,4.467,6.165,6.165,0,0,1-1.666,4.4,5.246,5.246,0,0,1-3.948,1.768,4.9,4.9,0,0,1-1.893-.362,5.76,5.76,0,0,1-1.742-1.184v1.244h-2.931v-16.31Zm3.1,6.965a3.084,3.084,0,0,0-2.315.952,3.431,3.431,0,0,0-.919,2.488,3.531,3.531,0,0,0,.919,2.536,3.056,3.056,0,0,0,2.315.968,3,3,0,0,0,2.276-.984,3.519,3.519,0,0,0,.925-2.509,3.482,3.482,0,0,0-.908-2.482,3.011,3.011,0,0,0-2.293-.968" transform="translate(-67.14 -152.231)" fill="#12acbe"/>
      <path id="Path_1459" data-name="Path 1459" d="M156.276,166.551l-2.458,1.352a4.177,4.177,0,0,0-1.37-1.006,4.116,4.116,0,0,0-1.586-.281,3.7,3.7,0,0,0-2.68.988,3.367,3.367,0,0,0-1.023,2.532,3.254,3.254,0,0,0,.986,2.452,3.57,3.57,0,0,0,2.588.95,3.764,3.764,0,0,0,3.086-1.352l2.328,1.594a7.172,7.172,0,0,1-10.2.623,6.115,6.115,0,0,1,1.481-9.712,7.12,7.12,0,0,1,3.423-.822,6.937,6.937,0,0,1,3.147.7,5.972,5.972,0,0,1,2.282,1.985" transform="translate(-91.653 -159.629)" fill="#0dd182"/>
      <path id="Path_1460" data-name="Path 1460" d="M192.416,164.171h2.952v11.767h-2.952v-1.244a5.791,5.791,0,0,1-1.734,1.184,4.855,4.855,0,0,1-1.885.362,5.236,5.236,0,0,1-3.943-1.768,6.168,6.168,0,0,1-1.664-4.4,6.323,6.323,0,0,1,1.61-4.467,5.129,5.129,0,0,1,3.911-1.741,4.974,4.974,0,0,1,1.988.4,5.427,5.427,0,0,1,1.718,1.2Zm-3.1,2.423a2.984,2.984,0,0,0-2.275.968,3.865,3.865,0,0,0,.016,4.991,2.986,2.986,0,0,0,2.269.984,3.039,3.039,0,0,0,2.307-.968,3.537,3.537,0,0,0,.916-2.536,3.437,3.437,0,0,0-.916-2.488,3.079,3.079,0,0,0-2.317-.952" transform="translate(-116.447 -159.628)" fill="#0dd182"/>
      <path id="Path_1461" data-name="Path 1461" d="M222.909,164.171h2.531v1.482a3.16,3.16,0,0,1,1.092-1.33,2.634,2.634,0,0,1,1.493-.454,2.763,2.763,0,0,1,1.2.3l-.92,2.542a2.025,2.025,0,0,0-.854-.26,1.352,1.352,0,0,0-1.152.844,7.716,7.716,0,0,0-.47,3.309l.011.573v4.759h-2.931Z" transform="translate(-141.695 -159.628)" fill="#0dd182"/>
      <path id="Path_1462" data-name="Path 1462" d="M255.08,170.909H245.6a3.155,3.155,0,0,0,1.1,2,3.446,3.446,0,0,0,2.277.741,3.938,3.938,0,0,0,2.845-1.157l2.487,1.168a5.87,5.87,0,0,1-2.228,1.952,6.966,6.966,0,0,1-3.082.633,6.091,6.091,0,0,1-4.51-1.747,5.943,5.943,0,0,1-1.742-4.375,6.145,6.145,0,0,1,1.736-4.473,5.83,5.83,0,0,1,4.353-1.779,6.046,6.046,0,0,1,4.521,1.779,6.43,6.43,0,0,1,1.742,4.7Zm-2.953-2.326a2.963,2.963,0,0,0-1.154-1.6,3.345,3.345,0,0,0-2-.616,3.535,3.535,0,0,0-2.167.692,3.853,3.853,0,0,0-1.083,1.525Z" transform="translate(-154.301 -159.628)" fill="#0dd182"/>
    </g>
    <g id="Group_1419" data-name="Group 1419" transform="translate(298 55.819)">
      <path id="Path_1455" data-name="Path 1455" d="M123.39,42.627l-8.064-8.064a12.224,12.224,0,1,1,4.7-20.213l3.366,3.366V3.372a23,23,0,1,0,0,39.255Z" transform="translate(-88.374 0)" fill="#12acbe"/>
      <g id="Group_1414" data-name="Group 1414" transform="translate(6.739 31.636)" style="isolation: isolate">
        <g id="Group_1413" data-name="Group 1413" transform="translate(0 0)">
          <g id="Group_1412" data-name="Group 1412" clip-path="url(#clip-path)">
            <g id="Group_1411" data-name="Group 1411" transform="translate(0 0)">
              <g id="Group_1410" data-name="Group 1410" clip-path="url(#clip-path-2)">
                <rect id="Rectangle_639" data-name="Rectangle 639" width="28.277" height="14.364" transform="translate(0)" fill="url(#linear-gradient-3)"/>
              </g>
            </g>
          </g>
        </g>
      </g>
      <path id="Path_1464" data-name="Path 1464" d="M156.879,60.839l-8.2-8.2-7.626,7.626L156.879,76.09Z" transform="translate(-121.863 -33.464)" fill="#0dd182"/>
    </g>
  </g>
</svg>
