<svg width="24" height="24" viewBox="0 0 24 24" xmlns="http://www.w3.org/2000/svg">
<g clip-path="url(#clip0_3_4780)">
<path d="M9 11.0008C8.448 11.0008 8 10.5538 8 10.0008C8 8.69277 9.038 8.12177 9.481 7.87777C9.771 7.71877 10.076 7.34277 9.983 6.81177C9.914 6.41977 9.581 6.08677 9.19 6.01877C8.884 5.96277 8.588 6.04077 8.358 6.23477C8.13 6.42477 8 6.70477 8 7.00177C8 7.55477 7.552 8.00177 7 8.00177C6.448 8.00177 6 7.55477 6 7.00177C6 6.11277 6.391 5.27477 7.072 4.70277C7.753 4.13077 8.649 3.88877 9.535 4.04977C10.744 4.26077 11.739 5.25477 11.952 6.46677C12.175 7.73877 11.57 9.00977 10.446 9.63077C9.999 9.87677 9.999 9.94877 9.999 10.0018C9.999 10.5548 9.551 11.0018 8.999 11.0018L9 11.0008ZM9 12.0008C8.31 12.0008 7.75 12.5608 7.75 13.2508C7.75 13.9408 8.31 14.5008 9 14.5008C9.69 14.5008 10.25 13.9408 10.25 13.2508C10.25 12.5608 9.69 12.0008 9 12.0008ZM19.996 9.08077C19.99 9.84977 19.905 10.5988 19.748 11.3228C21.119 12.4238 22 14.1098 22 16.0008V21.0008C22 21.5528 21.552 22.0008 21 22.0008H16C14.109 22.0008 12.423 21.1198 11.322 19.7488C10.598 19.9048 9.849 19.9908 9.08 19.9968C10.465 22.3858 13.045 24.0008 16 24.0008H21C22.657 24.0008 24 22.6578 24 21.0008V16.0008C24 13.0458 22.385 10.4658 19.996 9.08077ZM17.977 9.65177C18.162 7.03877 17.209 4.48177 15.364 2.63577C13.519 0.789774 10.964 -0.166226 8.349 0.0237736C3.823 0.343774 0 4.58977 0 9.29677V14.3348C0 16.3558 1.642 18.0008 3.661 18.0008H8.138C13.325 18.0008 17.647 14.3338 17.977 9.65177ZM13.95 4.05077C15.386 5.48577 16.126 7.47577 15.983 9.51077C15.73 13.0888 12.211 15.9998 8.138 15.9998H3.661C2.745 15.9998 2 15.2528 2 14.3338V9.29577C2 5.59977 4.972 2.26677 8.49 2.01777C8.657 2.00577 8.823 1.99977 8.989 1.99977C10.847 1.99977 12.633 2.73177 13.95 4.05077Z" />
</g>
<defs>
<clipPath id="clip0_3_4780">
<rect width="24" height="24" fill="white"/>
</clipPath>
</defs>
</svg>
