<svg width="106" height="135" viewBox="0 0 106 135" fill="none" xmlns="http://www.w3.org/2000/svg">
<path fill-rule="evenodd" clip-rule="evenodd" d="M105.208 101.196C104.643 99.1773 103.899 97.4212 102.907 95.8498C101.542 93.6799 100.128 92.5446 97.2877 91.8344C96.4114 91.6162 95.0524 91.4932 94.0208 91.6833C93.2997 91.812 92.6174 91.9294 92.0018 92.1531C89.9606 92.8913 88.3354 94.0993 86.6215 95.1787C84.0866 96.7725 81.5795 98.3776 78.967 99.9043C77.181 100.95 75.3007 101.733 72.8768 102.152C71.5566 102.382 70.3197 101.946 69.6098 101.442L69.3047 101.224L69.2048 100.866L68.9885 100.245L69.0274 99.8148L69.0551 99.2164C69.1383 98.7802 69.216 98.3328 69.3324 97.9469C70.109 95.3912 71.5123 93.6966 72.9821 91.8623L74.1026 90.6823C74.3134 90.4194 74.574 90.1566 74.8403 89.9441L75.6279 89.1667L77.5748 87.4498L81.3022 84.2733L82.5114 83.1939C83.3156 82.5452 84.0478 81.8014 84.7744 81.0744C86.7324 79.1226 88.5073 77.0142 89.772 74.369C90.3488 73.161 90.6816 71.7853 91.02 70.3424C91.2363 69.4308 91.2363 68.4969 91.4027 67.4958C91.5358 66.6905 91.5192 65.7789 91.5192 64.8785C91.5192 64.3081 91.5469 63.7209 91.4693 63.2008C91.3306 62.3284 91.4027 61.5007 91.2419 60.6842C90.8813 58.8834 90.5873 57.2224 90.0105 55.6789C89.65 54.7226 89.3837 53.7495 88.9067 52.9218C88.7569 52.6645 88.6127 52.3066 88.3465 52.1724C88.108 52.0493 88.1191 52.3681 88.0691 52.5135L87.5589 53.7327C86.749 55.3209 85.612 56.6687 84.2419 57.6978C82.8164 58.7659 81.1469 59.5041 79.1833 60.0466C78.551 60.22 77.9132 60.2703 77.2254 60.4045L75.8886 60.5555L75.162 60.5835L74.0027 60.5947L72.4885 60.494L70.708 60.2759L70.9743 61.3944L71.4457 63.2623C71.9616 65.1414 72.4108 67.0149 73.0986 68.7262C73.4259 69.5371 73.9084 71.0359 74.563 71.4441C74.9068 71.6622 75.5558 71.5951 76.0106 71.6734C76.9314 71.83 77.9298 71.8635 78.9726 71.8635C79.4551 71.8635 80.0154 71.9251 80.4369 71.8132L78.9393 73.2225L75.4449 76.2313C74.3855 77.0702 73.4425 78.0433 72.3942 78.8877L71.1129 80.1348C70.8189 80.3753 70.525 80.6773 70.2865 80.9737C69.9703 81.3708 69.5765 81.7007 69.2548 82.1034C68.9109 82.534 68.5171 82.9367 68.1843 83.3897C67.2912 84.6032 66.4925 85.9287 65.9323 87.4778C65.594 88.4229 65.4109 89.4296 65.1946 90.5257C65.0837 91.0794 65.1669 91.6386 65.067 92.2426C64.9894 92.7012 65.0226 93.5121 65.0947 93.9427C65.1835 94.4964 65.1336 95.0109 65.2334 95.531C65.4331 96.5432 65.544 97.5443 65.8047 98.4782C66.021 99.2612 66.3372 99.9994 66.5702 100.726L66.9141 102.337C67.258 103.651 67.5575 104.96 68.0345 106.151C68.3118 106.845 68.6003 107.538 68.9497 108.17L69.4434 108.981C68.9442 109.825 68.5947 110.737 68.3507 111.867C68.2231 112.465 68.1011 113.511 68.212 114.216C68.3174 114.875 68.2508 115.502 68.3784 116.111C68.7167 117.761 69.0606 119.277 69.6264 120.686C69.9481 121.486 70.2754 122.269 70.6303 123.035L71.1795 124.125C69.6597 124.142 68.2564 124.075 67.0084 123.784C59.781 122.084 55.1828 116.961 52.8088 110.429C52.4317 109.4 52.1321 108.321 51.8271 107.214L51.4721 105.514C51.1892 104.384 51.1448 103.142 50.9396 101.918L50.812 100.329L50.7344 98.5006V97.8407C50.6623 97.3933 50.6789 96.3755 50.7455 95.9336L50.8065 93.9874L50.9729 91.7505L51.1004 90.4809C51.35 89.0325 51.3889 87.5673 51.6995 86.1747L52.4649 82.1873L53.1638 78.9884L53.6741 80.2579C54.1345 81.3093 54.5061 82.411 54.9055 83.5239C55.4269 84.9668 55.8706 86.4879 56.3032 88.0315L56.9411 90.8389C57.163 91.7505 57.1907 92.6788 57.3627 93.6463C57.5013 94.4237 57.4514 95.2961 57.579 96.1238L57.5901 97.0521V98.4503L57.5124 99.8708L57.285 101.839C57.5013 101.677 57.6677 101.42 57.8341 101.202C58.4997 100.341 59.0544 99.3674 59.5259 98.3049C60.1527 96.8844 60.6629 95.4303 61.0401 93.7078C61.2176 92.8857 61.2176 92.0077 61.3563 91.1409L61.3951 90.3803L61.445 88.9822V88.1321C61.3286 87.3883 61.4728 86.6221 61.3563 85.9063C61.1621 84.7151 61.1566 83.5239 60.9125 82.3998C60.3579 79.8384 59.8587 77.4225 59.071 75.1184C58.5164 73.5022 57.9562 71.8915 57.3405 70.3424L56.7581 68.8156L55.3991 65.6L55.7652 62.9323L56.6915 56.5681L57.3904 51.1434L57.579 49.2755L57.7676 46.5799L57.8563 44.8127V44.1639C57.9229 43.7389 57.9007 42.928 57.8452 42.5533V42.1115L57.7454 39.8745L57.7066 38.907L57.3904 34.8804L57.224 33.2921C56.9356 31.62 56.8857 29.931 56.5639 28.298L55.8262 24.0309L55.1662 20.8153C54.4007 17.7841 53.7795 14.7754 52.8144 11.9344C52.1432 9.96023 51.5386 7.96371 50.7566 6.10141L49.8303 3.77493L48.6987 1.25831L48.0886 0C47.9555 0.0727024 47.9166 0.4474 47.8612 0.598397L47.2899 2.28733C46.5522 4.39011 45.759 6.3307 44.9991 8.39993C43.9008 11.3807 42.9468 14.5125 42.0483 17.7002L40.8779 22.3252C40.473 23.8352 40.2678 25.3787 39.9239 26.9502C39.6798 28.0575 39.5689 29.2376 39.3526 30.3952L39.1862 31.9835L39.0863 33.801V34.3715V35.5906V36.1611L39.1862 37.878C39.3304 38.7895 39.2805 39.6676 39.4413 40.5344C39.7464 42.2066 39.9183 43.8507 40.3066 45.4278C41.2495 49.2475 42.2535 52.8658 43.5126 56.3164C43.9175 57.4237 44.2836 58.5366 44.7439 59.5936C45.3097 60.8855 45.7146 62.2165 46.3081 63.4804C47.5173 66.0697 48.5157 68.7318 49.7415 71.2931L51.4333 75.0177L51.1393 77.1149C50.8453 78.6752 50.7066 80.2299 50.3738 81.7287L48.3382 92.6061L47.7392 96.3922L47.2954 100.089L47.1956 101.247L47.068 103.165L47.0292 104.574L47.0014 105.995L47.0292 107.393V107.851L47.129 109.68L47.2954 111.397C47.5228 112.672 47.6227 113.953 47.9167 115.133L48.2716 116.732C48.8319 118.729 49.4087 120.669 50.2407 122.397C52.8366 127.783 57.285 131.591 63.3087 133.538C64.4014 133.89 65.5607 134.125 66.7532 134.388L68.2896 134.606C68.8554 134.706 69.4212 134.611 70.0202 134.706C70.4584 134.774 71.2738 134.79 71.7231 134.718C72.2167 134.639 72.7215 134.712 73.1707 134.639C73.9473 134.516 74.6794 134.533 75.4061 134.388C77.12 134.041 78.6952 133.655 80.1762 133.118C80.7808 132.9 81.3687 132.688 81.8901 132.38L84.3806 130.78L85.1183 130.232L85.4511 129.942L86.0224 129.791L87.3425 129.332C88.6516 128.812 89.9217 128.214 91.081 127.526C94.6475 125.406 97.7259 122.677 100.25 119.506L101.636 117.817C102.956 116.072 104.166 114.148 104.981 111.911C105.275 111.1 105.497 110.245 105.708 109.344L105.935 107.795C106.013 107.326 106.002 106.833 105.996 106.324C105.968 104.378 105.647 102.751 105.208 101.196ZM52.5478 55.0409L52.4701 52.9437L52.4591 52.4124L52.3093 50.3152L52.2705 49.6553L51.9931 46.9878C51.7657 45.6958 51.7269 44.4097 51.4828 43.1792C51.211 41.8034 51.089 40.4277 50.784 39.1136C50.3458 37.2064 50.0684 35.305 49.5748 33.4874C48.9702 31.2448 48.5265 28.9966 47.8609 26.8435C47.0954 24.366 46.5185 21.8718 45.6976 19.4614L44.8712 16.7938L44.2333 18.6226C43.6953 20.1102 43.2959 21.6425 42.9631 23.3594L42.8078 24.8302L42.7967 25.5013V26.4688L42.8355 27.4475L42.9354 29.0358C43.1462 30.3109 43.185 31.6083 43.429 32.8107C43.7119 34.181 43.8561 35.5063 44.2056 36.7983C45.1929 40.4781 46.1247 44.0237 47.4338 47.3568C47.9163 48.5817 48.3046 49.8288 48.8315 51.0032L49.6968 53.1395L51.4662 57.1158L52.2316 58.8159C52.3315 59.0451 52.4091 59.3975 52.5755 59.5653V56.6068L52.5478 55.0409ZM67.1412 69.4253C66.9914 68.5249 66.9748 67.6245 66.7862 66.7689C66.3369 64.7165 65.8931 62.7926 65.2109 61.0142C64.6784 59.6273 64.1348 58.313 63.4027 57.1386C63.2196 56.8422 62.8203 56.0872 62.4209 56.0593C62.1658 56.3109 62.0326 57.0883 61.8884 57.4686C61.3837 58.794 61.0176 60.2369 60.6293 61.6741C60.5461 61.9761 60.2466 63.1617 60.3742 63.5141L60.6793 63.8832L61.367 64.873C62.016 65.9356 62.554 67.1268 63.0089 68.3795C63.5635 69.9119 63.8797 71.5673 64.2402 73.3233L64.5342 75.633C64.7006 76.6285 64.6451 77.7078 64.7006 78.7704C64.7727 80.2412 64.573 81.7456 64.5508 83.1381C64.7727 82.9424 64.8892 82.5062 65.0223 82.2377C65.466 81.3317 65.8155 80.3922 66.1649 79.3688C66.5532 78.2223 66.764 76.9696 67.0191 75.661C67.1245 75.1017 67.0912 74.5481 67.1855 73.9608C67.2576 73.5134 67.1744 73.0213 67.2465 72.5404V71.5617V71.0639L67.1412 69.4253ZM39.8846 58.318C39.0304 57.1547 36.3957 56.8583 34.3157 56.8807L33.334 56.931C32.7793 57.0261 32.2135 57.0653 31.7088 57.1827L31.3538 57.2442C31.021 57.3952 30.5772 58.3683 30.4108 58.7542C29.9449 59.8447 29.6676 61.0303 29.2904 62.2495L28.9743 63.4463L28.8467 63.9664C29.7286 63.3792 30.372 62.8311 31.5424 62.49C33.0788 62.0426 35.3474 62.4117 36.6287 62.7976L37.8212 63.1387L36.1683 63.9496L32.8347 64.4809C31.3482 64.8556 30.1446 65.303 29.124 66.1083C28.4251 66.6564 27.7484 67.5288 27.46 68.4739L27.0163 70.4425L27.46 70.0622L28.2587 69.475C29.0741 68.9605 29.9948 68.5691 30.9932 68.2279C31.6256 68.0154 32.3134 67.9147 33.0289 67.7805L34.2602 67.6127C35.7523 67.2827 37.383 66.8353 38.1873 65.8344C39.2134 64.5592 39.7737 62.9206 40.2063 61.0303C40.4337 60.0908 40.3283 58.922 39.8846 58.318ZM47.0676 81.2256C46.7569 81.3486 46.352 81.7345 46.0359 81.9247C45.3703 82.3217 44.6104 82.5622 43.7118 82.7244C41.9202 83.0488 40.5835 81.947 39.9844 80.9572C39.7737 80.6104 39.6738 80.2022 39.5518 79.7772C39.4076 79.2626 39.28 78.4685 39.402 77.8086C39.6405 76.5055 40.1009 75.594 40.5946 74.5817C41.1881 73.3737 41.8259 72.1881 42.1976 70.7844C42.3473 70.2196 42.3418 69.3024 41.7927 69.1962L40.6112 71.7855L39.5296 74.2126C38.6477 76.0581 37.8545 77.9708 37.3054 80.1462C36.5843 83.0096 37.4219 85.8338 39.2356 86.9691C39.5684 87.176 39.9678 87.327 40.3949 87.4389C41.0993 87.629 42.0922 87.5339 42.719 87.3606C44.4717 86.8796 45.4978 85.9513 46.2411 84.4637C46.5905 83.7646 46.8956 82.9928 47.1175 82.1875C47.184 81.9526 47.295 81.3598 47.0676 81.2256ZM33.7392 80.0845C32.9904 78.8765 32.3137 77.6238 31.6425 76.3264C31.2487 75.5714 30.8771 74.794 30.5221 73.9887L30.0895 73.01C29.5847 73.1219 28.8415 73.7426 28.4366 74.0278C27.5824 74.6318 26.7947 75.275 25.996 75.9181C25.4802 76.3319 25.0808 76.9639 24.5594 77.3554C24.1878 76.9304 23.8716 76.1866 23.5666 75.6776C22.8788 74.52 22.2354 73.2896 21.6363 72.0425L20.9097 70.4542C20.8431 70.3032 20.7877 69.9957 20.6545 69.9062L20.2885 70.0851L19.4509 70.6164C17.9921 71.6398 16.4502 72.7136 15.3464 74.0838C14.9525 74.5759 14.5255 75.0233 14.1649 75.5546C14.0595 75.7112 13.9042 75.8901 13.8599 76.1027C13.8044 76.3431 14.0096 76.578 14.0762 76.7402C14.3147 77.2939 14.5643 77.8196 14.8028 78.3564C15.4518 79.8217 16.2006 81.2366 17.0048 82.5732L18.1863 84.5026C18.336 84.5697 18.569 84.4131 18.6799 84.3516C19.0682 84.1335 19.4176 83.921 19.7615 83.6805C20.6878 83.0262 21.4976 82.2824 22.3685 81.5833L23.6775 80.2858L23.8938 80.7556L24.5317 82.1034C25.1862 83.4512 25.8573 84.7486 26.6061 86.0014L27.6101 87.6288C28.2868 87.2709 28.8747 86.7284 29.4682 86.281C30.6774 85.3694 31.8422 84.4243 32.9238 83.3841C33.5229 82.8081 34.2384 82.1985 34.5157 81.3149L33.7392 80.0845ZM40.0347 99.3397L39.9348 98.3386C39.7185 97.2928 39.4246 96.398 38.9586 95.6207C37.7273 93.5626 36.1076 92.6119 33.5173 91.9129C32.6687 91.6836 31.7479 91.6332 30.8216 91.4655L29.8787 91.3872L27.4881 91.2082L26.4952 91.1691L24.8423 91.1299L21.7528 90.9789L20.0611 90.8111C18.397 90.5036 16.8384 90.2966 15.5239 89.6703C13.9375 88.9097 12.7339 87.8807 12.1404 86.1246C11.9851 85.6605 11.913 85.118 11.913 84.5252C11.913 84.3518 11.9629 83.6919 11.9241 83.6472C11.558 84.1225 11.0643 84.5196 10.7038 85.0341C10.4153 85.4424 10.1824 85.8842 9.93833 86.3316C9.13961 87.7856 8.47955 89.2676 8.06909 91.1467C7.68083 92.9139 7.99144 95.0503 8.6404 96.2415C9.61107 98.0143 11.558 98.7189 13.7877 99.239L15.2521 99.5075L14.5144 101.107C14.1705 101.923 13.9264 102.796 13.7267 103.763C13.6269 104.25 13.6879 104.753 13.5992 105.29C13.5437 105.642 13.5271 106.174 13.5881 106.537L13.6269 107.577C13.7767 108.478 13.821 109.361 14.0318 110.156C15.1467 114.367 17.1047 117.263 21.1759 118.516C22.4073 118.896 24.626 119.193 26.2123 118.896C27.122 118.729 27.9651 118.606 28.7416 118.326C33.2899 116.693 35.8081 113.103 37.8049 108.914C38.5704 107.309 39.0807 105.508 39.5854 103.652C39.7574 103.014 39.8406 102.343 39.9681 101.655L40.0569 100.587C40.1234 100.218 40.0902 99.6752 40.0347 99.3397ZM45.071 120.255C44.3111 120.731 43.5179 121.161 42.7081 121.575C40.4228 122.738 37.9046 123.527 35.0647 124.17C30.8659 125.115 25.2083 124.746 21.4587 123.7C19.9112 123.27 18.4413 122.817 17.099 122.174C16.5332 121.905 15.9619 121.704 15.435 121.396C14.42 120.803 13.4382 120.227 12.5119 119.568C8.81225 116.922 5.92242 112.985 4.42482 108.136C3.55953 105.335 3.21009 100.989 4.0421 97.8575C4.39154 96.5544 4.76317 95.3744 5.14589 94.1329C5.21245 93.9203 5.56189 92.8634 5.51197 92.6956L4.89074 93.3835C4.41927 94.0042 4.00327 94.6809 3.62055 95.3912C3.18236 96.2077 2.89393 97.0913 2.56668 98.0196C1.99537 99.6415 1.55163 101.353 1.08016 103.103C0.636425 104.731 0.503305 106.453 0.19269 108.237L0.0651162 109.954C-0.0236309 110.513 0.00410259 111.14 0.00410259 111.76L0.031836 112.901L0.131676 114.657C0.336904 115.854 0.442291 117.023 0.730719 118.086C1.10235 119.461 1.47398 120.731 2.03974 121.911C4.54684 127.14 8.75678 130.892 14.2813 133.09C15.6513 133.633 17.1101 134.03 18.6687 134.399L20.7265 134.74L22.801 134.93L23.4 134.941C23.9048 135.02 25.003 135.02 25.5078 134.941C26.0791 134.852 26.656 134.925 27.1884 134.841L28.2922 134.74C29.2352 134.561 30.1837 134.499 31.0767 134.27L33.3286 133.7C35.2755 133.079 37.0837 132.38 38.7588 131.513C39.6574 131.043 40.5005 130.546 41.327 130.025C41.8816 129.673 42.4751 129.321 42.88 128.818C44.2723 127.067 45.0654 124.578 45.7255 122.123L46.0805 120.255L46.1581 119.568L45.071 120.255ZM35.7745 106.56C35.2808 104.804 34.6652 103.769 33.3728 102.824C32.1525 101.929 30.7159 101.353 29.0353 100.895C28.2976 100.693 27.5044 100.609 26.7223 100.453C25.4909 100.207 24.1653 100.285 22.8673 100.072L17.7034 99.7648L17.842 100.514C18.0584 101.471 18.2747 102.315 18.5798 103.132C19.8 106.42 22.1352 108.724 25.6241 109.753C28.6026 110.631 32.1026 109.971 34.3823 108.964C34.8648 108.752 35.719 108.333 36.0463 107.986C36.0407 107.482 35.8965 106.985 35.7745 106.56ZM99.7782 102.482C98.9518 102.298 98.0587 102.259 97.0825 102.253L96.1174 102.331C95.4462 102.46 94.8306 102.589 94.2759 102.829C93.2054 103.288 92.2236 103.914 91.2751 104.507L86.9265 107.292L83.5042 109.361C83.6706 109.456 83.8315 109.691 83.948 109.831C84.2308 110.183 84.5581 110.496 84.8354 110.86C86.211 112.655 87.1539 114.775 88.0026 117.124L88.8679 116.553C89.6777 116.016 90.432 115.44 91.1919 114.864C94.0318 112.717 96.4502 110.094 98.5136 107.163C99.1792 106.213 99.8004 105.228 100.372 104.177C100.582 103.791 100.971 103.221 101.06 102.768L99.7782 102.482ZM64.4456 104.351C63.669 103.338 62.3489 102.986 60.8957 102.634C59.9805 102.41 58.738 102.253 57.6564 102.265C57.4401 102.354 57.2792 102.376 57.1073 102.494C56.2975 103.07 55.5431 104.77 55.1382 105.799C54.9995 106.146 54.872 106.509 54.7832 106.89C54.75 107.018 54.7278 107.287 54.8221 107.348L56.8965 107.499C58.8434 107.835 61.4448 108.243 61.8275 110.066C61.9329 110.575 61.5724 110.966 61.3727 111.235C60.696 112.118 59.7808 112.493 58.8656 113.131C58.3498 113.488 57.906 114.238 58.1168 115.189C58.1889 115.519 58.3608 115.787 58.433 116.078L60.4519 114.059C62.0272 112.482 63.6524 110.922 64.5343 108.657C65.028 107.393 65.2554 105.402 64.4456 104.351ZM82.9935 117.202C81.7954 116.453 80.4531 115.927 78.5062 115.904L78.0237 115.932C77.6132 116 77.2083 116.027 76.8422 116.134C75.4167 116.559 73.9746 117.465 73.3311 118.65L74.08 119.042L75.2392 119.484C76.8089 120.015 79.194 120.227 81.1132 119.842L82.2724 119.623L82.7439 119.176C83.1543 118.768 83.6092 118.32 83.9031 117.806C83.6591 117.565 83.2985 117.392 82.9935 117.202Z" fill="#B4975A"/>
<path fill-rule="evenodd" clip-rule="evenodd" d="M102.907 95.8499C103.9 97.4211 104.643 99.1772 105.209 101.196C105.647 102.751 105.968 104.378 105.996 106.324L105.998 106.422C106.003 106.896 106.008 107.355 105.935 107.795L105.708 109.344C105.611 109.756 105.513 110.157 105.406 110.55C105.279 111.017 105.141 111.471 104.981 111.911C104.166 114.148 102.957 116.072 101.636 117.817L100.25 119.506C97.7262 122.677 94.6476 125.406 91.0811 127.526C89.922 128.214 88.6515 128.812 87.3429 129.332L86.0226 129.791L85.4513 129.942L85.1183 130.232L84.3805 130.781L81.8902 132.38C81.3687 132.688 80.7809 132.9 80.1764 133.118C78.6954 133.655 77.1202 134.041 75.4063 134.388C74.6793 134.533 73.9474 134.516 73.171 134.639C72.9508 134.675 72.7169 134.676 72.4776 134.676C72.2291 134.677 71.9747 134.678 71.7232 134.718C71.274 134.79 70.4586 134.773 70.0201 134.706C69.7252 134.659 69.4381 134.659 69.1554 134.658C68.8639 134.657 68.5768 134.657 68.2896 134.606L66.7535 134.388C65.5606 134.125 64.4015 133.89 63.3087 133.538C57.2853 131.591 52.8365 127.783 50.2408 122.397C49.4088 120.669 48.8321 118.729 48.2716 116.732L47.9166 115.133C47.735 114.403 47.6275 113.635 47.5182 112.854C47.4508 112.371 47.3824 111.884 47.2955 111.397L47.129 109.68L47.0294 107.851V107.393L47.0016 105.995L47.0294 104.574L47.068 103.165L47.1959 101.247L47.2955 100.089L47.7394 96.3923L48.3385 92.6062L50.3741 81.7288C50.5606 80.887 50.6861 80.0276 50.8126 79.1597C50.9112 78.4819 51.0103 77.7991 51.1393 77.115L51.4332 75.0178L49.7418 71.2932C49.0943 69.9402 48.5103 68.5591 47.9249 67.1755C47.402 65.9399 46.8785 64.7021 46.3082 63.4805C45.7149 62.2166 45.3097 60.8855 44.7442 59.5935C44.2838 58.5366 43.9176 57.4238 43.5128 56.3164C42.2535 52.8657 41.2496 49.2476 40.3067 45.4277C40.0592 44.4226 39.9 43.3901 39.7379 42.3408C39.6456 41.7437 39.5523 41.1409 39.4415 40.5344C39.2804 39.6675 39.3307 38.7896 39.1861 37.8779L39.0865 36.1611V35.5906V34.3716V33.801L39.1861 31.9834L39.3526 30.3953C39.4459 29.897 39.5196 29.3948 39.5924 28.8958C39.6891 28.2354 39.7848 27.5811 39.9239 26.9502C40.0592 26.3328 40.1729 25.7195 40.2857 25.1108C40.4601 24.1709 40.6324 23.2419 40.878 22.3252L42.0484 17.7002C42.9469 14.5125 43.901 11.3806 44.9991 8.3999C45.3131 7.54517 45.6324 6.7124 45.9518 5.88086C46.4049 4.69971 46.857 3.52148 47.2901 2.28735L47.8614 0.598389C47.8775 0.553955 47.8922 0.490234 47.9083 0.420654C47.9474 0.253418 47.9947 0.0512695 48.0885 0L48.6988 1.2583L49.8302 3.7749L50.7564 6.10132C51.5387 7.96362 52.1432 9.96021 52.8145 11.9343C53.524 14.0229 54.0479 16.2021 54.5797 18.4141C54.7711 19.2109 54.9635 20.0122 55.1661 20.8152L55.8263 24.031L56.5641 28.2981C56.7364 29.1733 56.8312 30.0647 56.9259 30.9609C57.0079 31.7368 57.0904 32.5164 57.2242 33.2922L57.3907 34.8804L57.7066 38.907L57.7457 39.8745L57.8453 42.1116V42.5532C57.8756 42.7576 57.8961 43.0918 57.8976 43.4224C57.899 43.6978 57.8868 43.9707 57.8565 44.1638V44.8127L57.7677 46.5798L57.5792 49.2754L57.3907 51.1433L56.6915 56.5681L55.7652 62.9324L55.399 65.5999L56.7584 68.8157L57.3404 70.3423C57.9562 71.8916 58.5167 73.5022 59.0714 75.1184C59.859 77.4226 60.358 79.8384 60.9127 82.3999C61.1568 83.5239 61.1622 84.7151 61.3565 85.9062C61.4146 86.2639 61.4078 86.634 61.401 87.0076C61.3941 87.3818 61.3868 87.7598 61.4449 88.1321V88.9822L61.3951 90.3804L61.3565 91.1409C61.2564 91.7659 61.2286 92.3965 61.1544 93.0076C61.1256 93.2444 61.0899 93.4783 61.0401 93.7078C60.6632 95.4304 60.1529 96.8843 59.526 98.3049C59.0543 99.3674 58.4996 100.341 57.8341 101.202L57.7384 101.33C57.6026 101.515 57.4601 101.708 57.2853 101.839L57.5123 99.8708L57.5899 98.4502V97.0522L57.5792 96.1238C57.5177 95.7246 57.4977 95.3149 57.4776 94.9106C57.4557 94.4766 57.4347 94.0486 57.3629 93.6462C57.191 92.6787 57.1632 91.7505 56.941 90.8389L56.3033 88.0315C55.8707 86.488 55.4269 84.9668 54.9054 83.5239C54.5064 82.4109 54.1344 81.3093 53.6744 80.2578L53.1642 78.9883L52.4649 82.1873L51.6998 86.1748C51.523 86.9666 51.4342 87.7817 51.3443 88.604C51.2765 89.228 51.2081 89.856 51.1007 90.481L50.9728 91.7505L50.8067 93.9875L50.7457 95.9336C50.6788 96.3755 50.6622 97.3933 50.7345 97.8406V98.5005L50.8121 100.329L50.9395 101.918C51.0206 102.4 51.0763 102.884 51.1314 103.363C51.2164 104.102 51.3004 104.828 51.4723 105.514L51.8272 107.214C51.9825 107.776 52.1363 108.332 52.2989 108.877C52.4566 109.405 52.6231 109.923 52.8087 110.429C55.1827 116.961 59.7813 122.084 67.0084 123.784C68.2564 124.075 69.6598 124.142 71.1798 124.125L70.6305 123.035C70.2755 122.269 69.9483 121.486 69.6266 120.686C69.0606 119.277 68.7169 117.761 68.3785 116.111C68.3106 115.787 68.2975 115.457 68.2843 115.12C68.273 114.825 68.2613 114.524 68.212 114.216C68.1012 113.511 68.2232 112.465 68.3507 111.867C68.5948 110.737 68.9444 109.825 69.4435 108.981L68.9498 108.17C68.6002 107.538 68.3121 106.844 68.0348 106.151C67.6388 105.163 67.3648 104.093 67.087 103.007C67.0299 102.784 66.9727 102.561 66.9142 102.337L66.5704 100.726C66.4762 100.431 66.3678 100.135 66.2579 99.834C66.0973 99.3931 65.9332 98.9436 65.8048 98.4783C65.544 97.5442 65.4332 96.5432 65.2335 95.531C65.1339 95.011 65.1837 94.4963 65.0948 93.9426C65.0226 93.5122 64.9893 92.7012 65.067 92.2427C65.1153 91.9504 65.1207 91.6687 65.1261 91.3931C65.1319 91.0989 65.1373 90.8115 65.1949 90.5256C65.4112 89.4297 65.5938 88.4229 65.9322 87.4778C66.4928 85.9287 67.2911 84.6033 68.1842 83.3896C68.5172 82.9368 68.9107 82.5339 69.255 82.1035C69.5768 81.7007 69.9703 81.3708 70.2867 80.9736C70.525 80.6772 70.8189 80.3752 71.1129 80.1348L72.3941 78.8877C72.9005 78.4797 73.3824 78.042 73.8643 77.6038C74.3805 77.1345 74.8971 76.6648 75.4449 76.2312L78.9395 73.2224L80.4371 71.8132C80.0152 71.925 79.4552 71.8635 78.9727 71.8635C77.9298 71.8635 76.9312 71.8301 76.0108 71.6733C75.856 71.6467 75.6788 71.637 75.4986 71.627C75.1495 71.6077 74.7896 71.5879 74.5631 71.4441C74.0099 71.0991 73.5792 69.9749 73.2618 69.1455C73.2037 68.9937 73.1495 68.8516 73.0987 68.7261C72.7364 67.825 72.4405 66.8789 72.1661 65.9106C71.9195 65.04 71.69 64.1519 71.4459 63.2622L70.9742 61.3943L70.7081 60.2759L72.4884 60.4939L74.003 60.5947L75.1622 60.5835L75.8888 60.5554L77.2257 60.4045C77.9132 60.2703 78.5509 60.22 79.1832 60.0466C81.1471 59.5042 82.8165 58.7659 84.2418 57.6978C85.6119 56.6687 86.7491 55.321 87.5592 53.7327L88.0694 52.5134C88.1192 52.3682 88.108 52.0493 88.3468 52.1724C88.4957 52.2476 88.6065 52.3926 88.7013 52.551C88.776 52.6758 88.8409 52.8086 88.9068 52.9219C89.192 53.417 89.4019 53.9641 89.6017 54.5286C89.7359 54.9077 89.8653 55.2947 90.0103 55.679C90.5226 57.0491 90.8116 58.5117 91.1227 60.0828L91.2418 60.6841C91.2931 60.9443 91.3209 61.2058 91.3394 61.4695C91.3785 62.033 91.3751 62.6064 91.4693 63.2007C91.5309 63.6123 91.5265 64.0659 91.5221 64.5195C91.5206 64.6394 91.5191 64.7593 91.5191 64.8784V65.1487C91.5206 65.96 91.5226 66.771 91.4029 67.4958C91.3326 67.9187 91.2921 68.3296 91.252 68.7319C91.1978 69.282 91.1451 69.8159 91.0201 70.3423C90.6817 71.7852 90.3487 73.1609 89.7721 74.3689C88.5074 77.0142 86.7325 79.1226 84.7745 81.0745L84.6427 81.2063C83.9591 81.8911 83.2667 82.5845 82.5113 83.1938L81.3023 84.2732L77.5748 87.4497L75.628 89.1667L74.8404 89.9441C74.5743 90.1565 74.3136 90.4194 74.1026 90.6824L72.982 91.8623L72.8346 92.0459C71.419 93.8108 70.0831 95.4766 69.3326 97.947C69.274 98.1406 69.2252 98.3499 69.1808 98.5652C69.1368 98.7791 69.0968 98.9993 69.0553 99.2166L69.0274 99.8149L68.9889 100.245L69.2052 100.866L69.3048 101.224L69.61 101.442C70.3199 101.946 71.5567 102.382 72.877 102.153C75.3009 101.733 77.1812 100.95 78.9669 99.9043C81.1432 98.6326 83.2457 97.3069 85.3521 95.9783L86.6217 95.1787C86.9664 94.9617 87.3072 94.7395 87.649 94.5168C89.006 93.6326 90.3712 92.7429 92.002 92.1531C92.5958 91.9375 93.2516 91.8206 93.9444 91.6973L94.0206 91.6833C95.0523 91.4932 96.4112 91.6162 97.2877 91.8342C100.128 92.5447 101.542 93.6799 102.907 95.8499ZM52.4703 52.9436L52.5479 55.0408L52.5758 56.6067V59.5654C52.4093 59.3975 52.3316 59.0452 52.2315 58.8159L51.4664 57.1157L49.6969 53.1396L48.8316 51.0032C48.5069 50.2795 48.235 49.5283 47.961 48.7717C47.7906 48.3003 47.6192 47.8269 47.4337 47.3567C46.1246 44.0237 45.193 40.478 44.2057 36.7983C43.9898 36.001 43.8526 35.1912 43.7125 34.3657C43.6256 33.8535 43.5377 33.3354 43.4293 32.8108C43.1852 31.6084 43.1461 30.3108 42.9356 29.0359L42.8355 27.4475L42.797 26.4688V25.5012L42.8077 24.8303L42.963 23.3594C43.296 21.6426 43.6954 20.1101 44.2335 18.6226L44.8712 16.7937L45.6978 19.4614C46.1739 20.8594 46.568 22.2856 46.964 23.7205C47.2511 24.7595 47.5392 25.803 47.8609 26.8435C48.2613 28.1387 48.5816 29.468 48.9049 30.8101C49.1187 31.6992 49.3341 32.5938 49.5748 33.4873C50.0685 35.3049 50.3458 37.2063 50.7843 39.1135C51.089 40.4277 51.211 41.8035 51.483 43.1792C51.7271 44.4097 51.7657 45.6958 51.9933 46.9878L52.2706 49.6553L52.3092 50.3152L52.4591 52.4124L52.4703 52.9436ZM66.9972 68.2666C67.0367 68.6504 67.0768 69.0378 67.1412 69.4253L67.2467 71.064V71.5618V72.5403C67.1744 73.0212 67.2579 73.5134 67.1856 73.9609C67.1407 74.2402 67.1246 74.512 67.109 74.7803C67.0914 75.0759 67.0743 75.3677 67.0191 75.6609L66.9112 76.2224C66.6998 77.3281 66.4977 78.3875 66.1651 79.3689C65.8155 80.3921 65.4659 81.3318 65.0226 82.2378C64.9835 82.3169 64.9454 82.4106 64.9059 82.5085C64.8116 82.7424 64.7076 83 64.5509 83.1382C64.5597 82.5996 64.5948 82.0444 64.6305 81.4807C64.6871 80.5869 64.7452 79.6724 64.7008 78.7705C64.6822 78.4167 64.6759 78.061 64.6695 77.7073C64.6573 76.9983 64.6451 76.2971 64.5343 75.6331L64.2403 73.3232C64.0694 72.4912 63.9088 71.6819 63.7281 70.8975C63.527 70.0264 63.3009 69.186 63.0089 68.3796C62.5543 67.1267 62.0162 65.9355 61.3673 64.873L60.6793 63.8831L60.3741 63.5142C60.2467 63.1616 60.546 61.9761 60.6295 61.6741C61.0177 60.2368 61.3839 58.7939 61.8888 57.4685C62.0328 57.0884 62.1656 56.311 62.421 56.0593C62.774 56.084 63.127 56.6768 63.3307 57.0188C63.3575 57.0637 63.3814 57.1042 63.4029 57.1387C64.1349 58.313 64.6783 59.6272 65.211 61.0142C65.8932 62.7927 66.337 64.7166 66.7862 66.7688C66.8936 67.2563 66.9449 67.7583 66.9972 68.2666ZM34.316 56.8806C36.3956 56.8584 39.0304 57.1548 39.8849 58.3179C40.3282 58.9219 40.4337 60.0908 40.2066 61.0303C39.7735 62.9207 39.2135 64.5591 38.1876 65.8345C37.3829 66.8354 35.7525 67.2827 34.2603 67.6128L33.0289 67.7805C32.3136 67.9148 31.6256 68.0154 30.9933 68.2278C29.9947 68.5691 29.0743 68.9604 28.2589 69.4751L27.4601 70.0623L27.0162 70.4424L27.4601 68.4739C27.7486 67.5288 28.4254 66.6565 29.1241 66.1084C30.1446 65.303 31.3482 64.8557 32.8351 64.481L36.1686 63.9497L37.8214 63.1387L36.629 62.7976C35.3473 62.4116 33.0787 62.0425 31.5426 62.49C30.5831 62.7695 29.9781 63.1882 29.3053 63.6533C29.1573 63.7556 29.006 63.8604 28.8468 63.9663L28.9742 63.4463L29.2906 62.2495C29.6676 61.0303 29.9449 59.8447 30.4107 58.7542C30.5772 58.3684 31.0211 57.3953 31.3541 57.2441L31.7091 57.1826C32.2135 57.0652 32.7794 57.0261 33.3341 56.9312L34.316 56.8806ZM46.4488 81.6299C46.6627 81.4666 46.8819 81.2991 47.0675 81.2256C47.295 81.3599 47.1842 81.9526 47.1178 82.1875C46.8956 82.9929 46.5904 83.7646 46.2413 84.4636C45.4981 85.9512 44.4718 86.8796 42.7188 87.3606C42.0924 87.5339 41.0992 87.6289 40.3951 87.439C40.1715 87.3804 39.9557 87.311 39.753 87.2285C39.5685 87.1536 39.3946 87.0676 39.2359 86.969C37.422 85.8337 36.5846 83.0095 37.3053 80.1462C37.8546 77.9707 38.6476 76.0581 39.5299 74.2126L40.6114 71.7854L41.7926 69.196C42.3419 69.3025 42.3473 70.2195 42.1978 70.7844C41.8263 72.1882 41.1881 73.3738 40.5948 74.5818L40.5401 74.6941C40.0675 75.6624 39.6319 76.554 39.402 77.8086C39.2799 78.4685 39.4078 79.2627 39.5519 79.7771L39.5953 79.9307C39.6998 80.3 39.7989 80.6523 39.9845 80.9573C40.5836 81.947 41.9205 83.0488 43.712 82.7244C44.6104 82.5623 45.3702 82.3218 46.0357 81.9246C46.1632 81.8481 46.3048 81.74 46.4488 81.6299ZM31.6427 76.3264C32.3136 77.6238 32.9903 78.8765 33.7394 80.0845L34.5157 81.3149C34.2384 82.1985 33.523 82.8081 32.9239 83.384C31.8424 84.4243 30.6773 85.3694 29.4684 86.281C28.8746 86.7285 28.2867 87.2708 27.61 87.6289L26.6061 86.0015C26.1637 85.2607 25.7481 84.5046 25.3473 83.7317C25.0699 83.197 24.7994 82.6545 24.5318 82.1035L23.8941 80.7556L23.6778 80.2859L22.3687 81.5833C21.4977 82.2825 20.6881 83.0261 19.7618 83.6804C19.4176 83.9209 19.0685 84.1335 18.6798 84.3516C18.6158 84.387 18.5113 84.4539 18.4059 84.4915C18.3282 84.5193 18.2496 84.531 18.1861 84.5027L17.005 82.5732C16.2008 81.2366 15.4518 79.8218 14.8028 78.3564C14.7057 78.1379 14.607 77.9214 14.5074 77.7039C14.3629 77.387 14.2174 77.0686 14.0763 76.7402C14.0099 76.5781 13.8043 76.343 13.86 76.1028C13.9044 75.8901 14.0597 75.7112 14.1651 75.5547C14.4024 75.2048 14.6686 74.8914 14.9352 74.5776C15.0733 74.4148 15.212 74.252 15.3463 74.0837C16.4352 72.7322 17.9503 71.6692 19.3912 70.6582L19.4508 70.6165L20.2887 70.0852L20.6549 69.9062C20.7486 69.9695 20.8043 70.1418 20.8521 70.2908C20.8717 70.3525 20.8902 70.4102 20.9098 70.4543L21.6363 72.0425C22.2354 73.2896 22.879 74.52 23.5665 75.6777C23.8717 76.1865 24.1881 76.9304 24.5597 77.3555C25.0807 76.9639 25.4801 76.332 25.9962 75.9182C26.4283 75.5701 26.8575 75.2219 27.2955 74.8801C27.6671 74.5903 28.045 74.3049 28.4366 74.0278C28.5177 73.9707 28.6124 73.8999 28.7164 73.8225C29.1305 73.5139 29.6861 73.0994 30.0895 73.01L30.5221 73.9888C30.877 74.7939 31.2486 75.5713 31.6427 76.3264ZM39.9352 98.3386L40.0348 99.3396C40.0904 99.6753 40.1236 100.218 40.0567 100.587L39.9684 101.655C39.919 101.919 39.8766 102.181 39.8331 102.439C39.7638 102.854 39.6915 103.259 39.5855 103.652C39.0807 105.508 38.5704 107.309 37.8048 108.914C35.8082 113.103 33.2901 116.693 28.7418 118.326C28.0919 118.56 27.3951 118.685 26.6515 118.817L26.2125 118.896C24.6261 119.193 22.4073 118.896 21.1759 118.516C17.1046 117.263 15.1466 114.366 14.0318 110.156C13.8692 109.544 13.8062 108.879 13.7174 108.195C13.6905 107.991 13.6617 107.784 13.627 107.577L13.588 106.537C13.5269 106.174 13.5436 105.642 13.5992 105.29C13.6881 104.753 13.627 104.25 13.7267 103.763C13.9264 102.796 14.1705 101.923 14.5143 101.107L15.252 99.5076L13.7877 99.239C11.5582 98.719 9.61093 98.0142 8.64072 96.2415C7.99131 95.0503 7.68076 92.9138 8.06943 91.1467C8.47959 89.2676 9.13974 87.7856 9.93857 86.3315L10.0123 86.1956C10.2306 85.7949 10.4449 85.4009 10.7037 85.0342C10.9015 84.7524 11.1388 84.5059 11.3731 84.2625C11.567 84.0613 11.7584 83.8623 11.9239 83.6472C11.9508 83.678 11.9356 84.0027 11.9234 84.2576C11.9181 84.3716 11.9132 84.4717 11.9132 84.5251C11.9132 85.1179 11.985 85.6604 12.1402 86.1245C12.734 87.8806 13.9376 88.9097 15.524 89.6702C16.8385 90.2966 18.3971 90.5037 20.0611 90.811L21.753 90.979L24.8424 91.1299L26.4952 91.1689L27.4884 91.2083L29.879 91.3872L30.8219 91.4656C31.7481 91.6333 32.6686 91.6836 33.5172 91.9128C36.1075 92.6118 37.7271 93.5627 38.9586 95.6206C39.4244 96.3979 39.7188 97.2927 39.9352 98.3386ZM42.7081 121.575C43.5182 121.161 44.3111 120.731 45.0709 120.255L46.1583 119.568L46.0807 120.255L45.7257 122.123C45.0655 124.578 44.2726 127.067 42.88 128.818C42.4752 129.321 41.8819 129.673 41.3272 130.025C40.5006 130.546 39.6573 131.043 38.7589 131.513C37.0836 132.38 35.2755 133.079 33.3287 133.7L31.0768 134.27C30.1837 134.5 29.2354 134.561 28.2921 134.74L27.1886 134.841C26.9264 134.882 26.6539 134.885 26.3761 134.889C26.0895 134.892 25.7979 134.896 25.5079 134.941C25.003 135.02 23.9049 135.02 23.4 134.941L22.8009 134.93L20.7267 134.74L18.669 134.399C17.6744 134.163 16.7203 133.917 15.8043 133.627C15.2848 133.464 14.7774 133.286 14.2813 133.09C8.75693 130.892 4.54697 127.14 2.03965 121.911C1.47422 120.731 1.10263 119.461 0.731052 118.085C0.442477 117.023 0.337009 115.854 0.131931 114.657L0.0318329 112.901L0.0040009 111.76C0.0040009 111.642 0.00302434 111.522 0.00204777 111.404C-0.00234676 110.902 -0.00625301 110.406 0.0650361 109.954L0.192966 108.237C0.503513 106.453 0.636325 104.731 1.08017 103.103C1.55185 101.353 1.9957 99.6414 2.56699 98.0195L2.68222 97.6904C2.96494 96.8821 3.23447 96.1106 3.6207 95.3911C4.00351 94.6809 4.41953 94.0042 4.89072 93.3835L5.5123 92.6956C5.55674 92.8457 5.28134 93.709 5.17539 94.0403L5.14609 94.1328C4.99228 94.6311 4.84043 95.1194 4.6915 95.6096C4.46884 96.3413 4.25156 97.0774 4.04209 97.8574C3.21006 100.989 3.55966 105.335 4.4249 108.136C5.92246 112.985 8.81211 116.922 12.5118 119.568C13.068 119.964 13.6441 120.33 14.2354 120.687C14.629 120.925 15.0294 121.159 15.4352 121.396C15.962 121.704 16.5333 121.905 17.0992 122.174C18.4415 122.817 19.9112 123.27 21.4586 123.7C25.2086 124.746 30.8658 125.115 35.065 124.17C37.9049 123.527 40.4229 122.739 42.7081 121.575ZM33.3727 102.824C34.6651 103.769 35.2809 104.804 35.7745 106.56L35.7774 106.57C35.8985 106.993 36.0406 107.487 36.0465 107.986C35.7193 108.333 34.8648 108.752 34.3824 108.965C32.1026 109.971 28.6026 110.631 25.6241 109.753C22.1353 108.724 19.7999 106.42 18.5797 103.132C18.275 102.315 18.0587 101.47 17.8424 100.514L17.7037 99.7649L22.8673 100.073C23.4771 100.172 24.0934 100.208 24.7027 100.243C25.3902 100.283 26.0694 100.322 26.7223 100.453C27.5045 100.609 28.2975 100.693 29.0353 100.895C30.7159 101.353 32.1524 101.929 33.3727 102.824ZM97.0826 102.253C98.0587 102.259 98.9518 102.298 99.7784 102.482L101.06 102.768C100.971 103.22 100.583 103.791 100.372 104.177C99.8004 105.228 99.1793 106.213 98.5138 107.163C96.4503 110.094 94.0318 112.717 91.192 114.864C90.4322 115.44 89.6778 116.016 88.8678 116.553L88.0025 117.124C87.1539 114.775 86.211 112.655 84.8355 110.86C84.6842 110.661 84.5177 110.478 84.3517 110.295C84.214 110.143 84.0763 109.991 83.9478 109.831L83.8702 109.734C83.7647 109.6 83.6358 109.437 83.5045 109.361L86.9268 107.292L91.275 104.507L91.4312 104.409C92.3316 103.846 93.2643 103.262 94.276 102.829C94.8307 102.589 95.4464 102.46 96.1173 102.331L97.0826 102.253ZM60.8956 102.634C62.3492 102.986 63.669 103.338 64.4459 104.351C65.2555 105.402 65.0279 107.393 64.5343 108.657C63.691 110.822 62.1686 112.343 60.6603 113.851L60.4522 114.059L58.4332 116.078C58.3609 115.787 58.1891 115.519 58.1168 115.189C57.9063 114.238 58.3497 113.489 58.8658 113.131C59.7809 112.493 60.6959 112.118 61.3727 111.235L61.4405 111.145C61.6437 110.882 61.922 110.521 61.8277 110.066C61.4532 108.282 58.9547 107.853 57.024 107.521L56.8966 107.499L54.8224 107.348C54.7276 107.287 54.7501 107.018 54.7833 106.89C54.8722 106.509 54.9996 106.146 55.1383 105.799C55.5431 104.77 56.2975 103.07 57.1075 102.494C57.2794 102.376 57.44 102.354 57.6563 102.265C58.7379 102.253 59.9806 102.41 60.8956 102.634ZM78.5064 115.905C80.4532 115.927 81.7955 116.452 82.9937 117.202C83.0753 117.253 83.1612 117.303 83.2477 117.353C83.4835 117.49 83.7247 117.63 83.9034 117.806C83.6158 118.31 83.1734 118.749 82.7701 119.15L82.7437 119.176L82.2726 119.624L81.1134 119.842C79.1939 120.228 76.8092 120.015 75.2393 119.484L74.0802 119.042L73.3311 118.65C73.9747 117.465 75.4166 116.559 76.8424 116.134C77.2086 116.028 77.6134 116 78.0235 115.932L78.5064 115.905Z" fill="url(#paint0_linear_710_13281)" fill-opacity="0.6"/>
<defs>
<linearGradient id="paint0_linear_710_13281" x1="399" y1="-184.5" x2="32" y2="432.5" gradientUnits="userSpaceOnUse">
<stop offset="0.365162" stop-color="#323C4F"/>
<stop offset="0.937048" stop-color="#323C4F" stop-opacity="0.1"/>
</linearGradient>
</defs>
</svg>
