<svg width="60" height="60" viewBox="0 0 60 60" fill="none" xmlns="http://www.w3.org/2000/svg">
<g clip-path="url(#clip0_821_5114)">
<path fill-rule="evenodd" clip-rule="evenodd" d="M41.2198 59.7224C42.1789 59.9046 43.1684 60 44.1797 60C44.1913 60 44.2029 60 44.2144 60C43.1917 59.9978 42.1908 59.9026 41.2198 59.7224ZM50.1562 4.6875H52.9688C56.8458 4.6875 60 7.84172 60 11.7188V26.7188V26.9531V31.144C58.6624 29.5236 57.0806 28.1121 55.3125 26.9647V26.9531V26.7188V22.0312H4.6875V52.9688C4.6875 54.2611 5.73891 55.3125 7.03125 55.3125H22.6172H22.9688H26.9647C28.1121 57.0807 29.5235 58.6624 31.144 60H22.9688H22.6172H7.03125C3.15422 60 0 56.8458 0 52.9688V11.7188C0 7.84172 3.15422 4.6875 7.03125 4.6875H9.84375V0H14.5312V4.6875H45.4688V0H50.1562V4.6875ZM4.6875 11.7188V17.3438H55.3125V11.7188C55.3125 10.4264 54.2611 9.375 52.9688 9.375H50.1562V14.0625H45.4688V9.375H14.5312V14.0625H9.84375V9.375H7.03125C5.73891 9.375 4.6875 10.4264 4.6875 11.7188ZM8.90625 31.6406H13.5938V26.9531H8.90625V31.6406ZM18.2812 31.6406H22.9688V26.9531H18.2812V31.6406ZM32.3438 31.6406V26.9531H27.6562V31.6406H32.3438ZM8.90625 41.0156H13.5938V36.3281H8.90625V41.0156ZM18.2812 41.0156H22.9688V36.3281H18.2812V41.0156ZM13.5938 45.7031H8.90625V50.3906H13.5938V45.7031ZM22.9688 45.7031H18.2812V50.3906H22.9688V45.7031Z" fill="#B4975A"/>
<path d="M50.0711 40.998H55.5556V41.8815C55.5511 42.0993 55.6049 42.3137 55.71 42.4967C55.8151 42.6798 55.9666 42.823 56.1448 42.908C56.3231 42.993 56.52 43.0157 56.7099 42.9732C56.8998 42.9308 57.074 42.8251 57.2098 42.6699L59.7165 39.7854C59.8983 39.574 60 39.2913 60 38.997C60 38.7028 59.8983 38.4201 59.7165 38.2087L57.2098 35.3242C57.074 35.169 56.8998 35.0633 56.7099 35.0209C56.52 34.9784 56.3231 35.0011 56.1448 35.0861C55.9666 35.171 55.8151 35.3143 55.71 35.4974C55.6049 35.6804 55.5511 35.8948 55.5556 36.1126V36.9961H49.3334C49.1 36.9953 48.8689 37.0471 48.6536 37.1485C48.4384 37.2499 48.2433 37.3988 48.08 37.5864L37.9289 49.002H32.4444V48.1185C32.4489 47.9007 32.3951 47.6863 32.29 47.5033C32.1849 47.3202 32.0334 47.177 31.8552 47.092C31.6769 47.007 31.48 46.9843 31.2901 47.0268C31.1002 47.0692 30.926 47.1749 30.7902 47.3301L28.2835 50.2146C28.1017 50.426 28 50.7087 28 51.003C28 51.2972 28.1017 51.5799 28.2835 51.7913L30.7902 54.6758C30.926 54.831 31.1002 54.9367 31.2901 54.9792C31.48 55.0216 31.6769 54.9989 31.8552 54.9139C32.0334 54.829 32.1849 54.6857 32.29 54.5026C32.3951 54.3196 32.4489 54.1052 32.4444 53.8874V53.0039H38.6666C38.9 53.0047 39.1311 52.9529 39.3464 52.8515C39.5616 52.7501 39.7567 52.6012 39.92 52.4136L50.0711 40.998Z" fill="#B4975A"/>
<path d="M56.8958 55L59.7134 51.7892C59.8971 51.5781 60 51.2945 60 50.999C60 50.7036 59.8971 50.4199 59.7134 50.2088L57.2069 47.3281C57.071 47.1726 56.8968 47.0667 56.7067 47.0243C56.5166 46.9818 56.3196 47.0046 56.1413 47.0899C55.9629 47.1751 55.8115 47.3188 55.7067 47.5022C55.6019 47.6857 55.5486 47.9003 55.5537 48.1183V48.9985H50.0696L39.9191 37.5857C39.7558 37.3982 39.5608 37.2493 39.3456 37.148C39.1303 37.0466 38.8992 36.9948 38.6659 36.9956H32.4441V36.1124C32.4485 35.8945 32.3948 35.6803 32.2897 35.4973C32.1846 35.3143 32.0332 35.171 31.8549 35.0861C31.6766 35.0011 31.4798 34.9784 31.2899 35.0208C31.1 35.0633 30.9258 35.169 30.79 35.3242L28.2835 38.2079C28.1016 38.4192 28 38.7019 28 38.9961C28 39.2902 28.1016 39.5729 28.2835 39.7843L30.79 42.668C30.9258 42.8232 31.1 42.9288 31.2899 42.9713C31.4798 43.0137 31.6766 42.991 31.8549 42.9061C32.0332 42.8211 32.1846 42.6779 32.2897 42.4949C32.3948 42.3119 32.4485 42.0976 32.4441 41.8798V40.9966H37.9282L48.0786 52.4094C48.2419 52.5969 48.4369 52.7457 48.6522 52.8471C48.8674 52.9485 49.0985 53.0003 49.3319 52.9995H55.5537V53.8797C55.5475 54.1686 55.643 54.4486 55.8195 54.6584C55.9961 54.8683 56.2392 54.9911 56.4958 55H56.8958Z" fill="#B4975A"/>
</g>
<defs>
<clipPath id="clip0_821_5114">
<rect width="60" height="60" fill="white"/>
</clipPath>
</defs>
</svg>
