<svg width="62" height="62" viewBox="0 0 62 62" fill="none" xmlns="http://www.w3.org/2000/svg">
<path d="M48.4115 55.9403C48.232 56.1042 47.96 56.199 47.7024 56.2C47.3357 56.2013 47.0495 56.0216 47.0509 55.7189C47.0513 55.646 47.0713 55.5654 47.1152 55.4775L49.9341 48.31H45.7201C44.0972 48.31 43.072 46.7311 43.8617 45.4394L48.6951 37.5333H56.1404L52.302 43.2103H57.1599C58.4794 43.2103 59.1735 44.6357 58.3138 45.5475L48.4115 55.9403Z" fill="#B4975A"/>
<path d="M30.0508 3H39.5424M34.678 10.2373V3M3 43.4576H15.9322M3 33.9661H19.4915M3 52.9492H12.3729M52.5932 10.8305L50.5763 13.3945M59 31.8305C57.6165 19.678 47.1413 10.2373 34.6186 10.2373C24.5886 10.2373 15.9731 16.2938 12.2299 24.9492M21.6864 55.4407C25.4097 57.7451 29.9182 59 34.6186 59C37.3447 59 39.953 58.6184 42.3898 57.8136M38.3663 37.7485C40.1062 35.8155 44.1695 22.9322 44.1695 22.9322C44.1695 22.9322 33.1203 29.502 31.3804 31.4349C29.6405 33.3679 29.7939 36.3482 31.7229 38.0917C33.652 39.8352 36.6263 39.6815 38.3663 37.7485Z" stroke="#B4975A" stroke-width="4.5" stroke-miterlimit="10" stroke-linecap="round" stroke-linejoin="round"/>
</svg>
