<svg width="64" height="64" viewBox="0 0 64 64" fill="none" xmlns="http://www.w3.org/2000/svg">
<g clip-path="url(#clip0_3_4473)">
<path d="M32 64C49.6731 64 64 49.6731 64 32C64 14.3269 49.6731 0 32 0C14.3269 0 0 14.3269 0 32C0 49.6731 14.3269 64 32 64Z" fill="#DAB02A"/>
<path d="M64 32C64 14.4237 49.5763 0 32 0V64C49.5763 64 64 49.5762 64 32Z" fill="#997B1C"/>
<path d="M32 7.625C18.56 7.625 7.625 18.56 7.625 32C7.625 45.44 18.56 56.5 32 56.5C45.44 56.5 56.375 45.44 56.375 32C56.375 18.56 45.44 7.625 32 7.625Z" fill="#F0F7FF"/>
<path d="M56.375 32C56.375 18.56 45.44 7.625 32 7.625V56.5C45.44 56.5 56.375 45.44 56.375 32Z" fill="#DFE7F4"/>
<path d="M32 15.125C30.9636 15.125 30.125 15.9636 30.125 17V35.75C30.125 36.7864 30.9636 37.625 32 37.625C33.0364 37.625 33.875 36.7864 33.875 35.75V17C33.875 15.9636 33.0364 15.125 32 15.125Z" fill="#575F64"/>
<path d="M33.875 35.75V17C33.875 15.9636 33.0364 15.125 32 15.125V37.625C33.0364 37.625 33.875 36.7864 33.875 35.75Z" fill="#474F54"/>
<path d="M43.25 30.125H32H28.25C27.2136 30.125 26.375 30.9636 26.375 32C26.375 33.0364 27.2136 33.875 28.25 33.875H32H43.25C44.2864 33.875 45.125 33.0364 45.125 32C45.125 30.9636 44.2864 30.125 43.25 30.125Z" fill="#575F64"/>
<path d="M45.125 32C45.125 30.9636 44.2864 30.125 43.25 30.125H32V33.875H43.25C44.2864 33.875 45.125 33.0364 45.125 32Z" fill="#474F54"/>
</g>
<defs>
<clipPath id="clip0_3_4473">
<rect width="64" height="64" fill="white"/>
</clipPath>
</defs>
</svg>
