<svg width="60" height="60" viewBox="0 0 60 60" fill="none" xmlns="http://www.w3.org/2000/svg">
<path d="M44.1797 28.3594C35.4564 28.3594 28.3594 35.4564 28.3594 44.1797C28.3594 52.903 35.4564 60 44.1797 60C52.903 60 60 52.903 60 44.1797C60 35.4564 52.903 28.3594 44.1797 28.3594ZM44.1797 55.3125C38.0411 55.3125 33.0469 50.3183 33.0469 44.1797C33.0469 38.0411 38.0411 33.0469 44.1797 33.0469C50.3183 33.0469 55.3125 38.0411 55.3125 44.1797C55.3125 50.3183 50.3183 55.3125 44.1797 55.3125ZM46.4062 41.8359H50.3906V46.5234H41.7188V36.3281H46.4062V41.8359ZM52.9688 4.6875H50.1562V0H45.4688V4.6875H14.5312V0H9.84375V4.6875H7.03125C3.15422 4.6875 0 7.84172 0 11.7188V52.9688C0 56.8458 3.15422 60 7.03125 60H22.6172H22.9688H31.144C29.5235 58.6624 28.1121 57.0807 26.9647 55.3125H22.9688H22.6172H7.03125C5.73891 55.3125 4.6875 54.2611 4.6875 52.9688V22.0312H55.3125V26.7188V26.9531V26.9647C57.0806 28.1121 58.6624 29.5236 60 31.144V26.9531V26.7188V11.7188C60 7.84172 56.8458 4.6875 52.9688 4.6875ZM4.6875 17.3438V11.7188C4.6875 10.4264 5.73891 9.375 7.03125 9.375H9.84375V14.0625H14.5312V9.375H45.4688V14.0625H50.1562V9.375H52.9688C54.2611 9.375 55.3125 10.4264 55.3125 11.7188V17.3438H4.6875ZM13.5938 31.6406H8.90625V26.9531H13.5938V31.6406ZM22.9688 31.6406H18.2812V26.9531H22.9688V31.6406ZM32.3438 26.9531V31.6406H27.6562V26.9531H32.3438ZM13.5938 41.0156H8.90625V36.3281H13.5938V41.0156ZM22.9688 41.0156H18.2812V36.3281H22.9688V41.0156ZM8.90625 45.7031H13.5938V50.3906H8.90625V45.7031ZM18.2812 45.7031H22.9688V50.3906H18.2812V45.7031Z" fill="#B4975A"/>
</svg>
