<svg width="80" height="80" viewBox="0 0 80 80" fill="none" xmlns="http://www.w3.org/2000/svg">
<path d="M75 41.25H63.0175L58.75 36.9825V29.8875C62.2913 29.29 65 26.21 65 22.5V8.75C65 8.05875 64.4413 7.5 63.75 7.5H51.25C50.5588 7.5 50 8.05875 50 8.75V22.5C50 26.2088 52.7088 29.2888 56.25 29.8875V36.9825L51.9825 41.25H45.5175L41.25 36.9825V29.8875C44.7913 29.29 47.5 26.21 47.5 22.5V8.75C47.5 8.05875 46.9413 7.5 46.25 7.5H33.75C33.0588 7.5 32.5 8.05875 32.5 8.75V22.5C32.5 26.2088 35.2088 29.2888 38.75 29.8875V36.9825L34.4825 41.25H28.0175L23.75 36.9825V29.8875C27.2913 29.29 30 26.21 30 22.5V8.75C30 8.05875 29.4413 7.5 28.75 7.5H16.25C15.5588 7.5 15 8.05875 15 8.75V22.5C15 26.2088 17.7088 29.2888 21.25 29.8875V36.9825L16.9825 41.25H5C4.30875 41.25 3.75 41.8088 3.75 42.5C3.75 47.3238 7.67625 51.25 12.5 51.25H20.5425C18.33 51.25 16.1525 51.8388 14.2438 52.9525L1.87125 60.1687C1.485 60.3937 1.25 60.8063 1.25 61.25V77.5C1.25 77.9563 1.49875 78.3762 1.89875 78.5962C2.08625 78.6987 2.29375 78.75 2.5 78.75C2.73375 78.75 2.96625 78.6838 3.17125 78.555L16.6138 70H36.25C36.545 70 36.8325 69.895 37.0575 69.705L52.0975 56.9775C53.1475 56.0912 53.75 54.7925 53.75 53.415C53.75 52.63 53.5363 51.9 53.1913 51.25H67.5C72.3238 51.25 76.25 47.3238 76.25 42.5C76.25 41.8088 75.6913 41.25 75 41.25ZM62.5 10V15H52.5V10H62.5ZM52.5 22.5V17.5H62.5V22.5C62.5 25.2575 60.2575 27.5 57.5 27.5C54.7425 27.5 52.5 25.2575 52.5 22.5ZM57.5 39.2675L59.4825 41.25H55.5175L57.5 39.2675ZM45 10V15H35V10H45ZM35 22.5V17.5H45V22.5C45 25.2575 42.7575 27.5 40 27.5C37.2425 27.5 35 25.2575 35 22.5ZM40 39.2675L41.9825 41.25H38.0175L40 39.2675ZM27.5 10V15H17.5V10H27.5ZM17.5 22.5V17.5H27.5V22.5C27.5 25.2575 25.2575 27.5 22.5 27.5C19.7425 27.5 17.5 25.2575 17.5 22.5ZM22.5 39.2675L24.4825 41.25H20.5175L22.5 39.2675ZM51.25 53.415C51.25 54.055 50.97 54.6563 50.4838 55.0675L35.7925 67.5H16.25C16.0125 67.5 15.78 67.5687 15.5788 67.695L3.75 75.2238V61.9675L15.5025 55.1113C17.03 54.2213 18.7725 53.75 20.5425 53.75H20.8488C21.8225 53.75 22.79 53.8913 23.7238 54.1725L32.5988 56.835C33.2875 57.0412 33.75 57.6638 33.75 58.3825C33.75 59.275 33.025 60 32.1325 60H23.75V62.5H33.75C34.0375 62.5 34.3175 62.4 34.5413 62.2175L47.3488 51.7388C47.7338 51.4238 48.22 51.25 48.72 51.25H49.085C50.2788 51.25 51.25 52.2212 51.25 53.415ZM20.8488 51.25H43.9988L36.185 57.6425C35.9138 56.135 34.8288 54.8937 33.315 54.44L24.44 51.7775C23.2738 51.4275 22.065 51.25 20.8488 51.25ZM67.5 48.75H49.085H48.72H12.5C9.48125 48.75 6.95625 46.5988 6.37625 43.75H17.5H27.5H35H45H52.5H62.5H73.6238C73.0438 46.5988 70.5188 48.75 67.5 48.75Z" fill="#3C4558"/>
<path d="M78.0575 7.3825C76.7912 6.74875 75.8575 5.6 75.4975 4.23125L74.9575 2.18125C74.815 1.6325 74.3175 1.25 73.75 1.25C73.1825 1.25 72.685 1.6325 72.5413 2.18125L72.0013 4.2325C71.6413 5.60125 70.7075 6.75 69.44 7.38375C69.0175 7.595 68.75 8.0275 68.75 8.50125C68.75 8.975 69.0175 9.4075 69.4413 9.62L69.5925 9.69625C70.7825 10.2925 71.6938 11.3612 72.0913 12.6313L72.5575 14.1238C72.72 14.645 73.2025 15 73.75 15C74.2962 15 74.78 14.645 74.9425 14.1225L75.4087 12.6313C75.8062 11.36 76.7175 10.2913 77.9112 9.6925L78.0613 9.61625C78.4838 9.40375 78.75 8.97125 78.7488 8.4975C78.7475 8.02625 78.4812 7.595 78.0575 7.3825ZM73.75 10.2725C73.3425 9.5975 72.8287 8.99 72.2312 8.475C72.84 7.92 73.355 7.26875 73.75 6.54625C74.145 7.26875 74.66 7.92 75.2688 8.47375C74.6713 8.98875 74.1575 9.5975 73.75 10.2725Z" fill="#B4975A"/>
<path d="M1.94125 14.6187L2.0925 14.695C3.2825 15.2912 4.19375 16.36 4.59125 17.63L5.0575 19.1225C5.22 19.645 5.7025 20 6.25 20C6.79625 20 7.28 19.645 7.4425 19.1225L7.90875 17.6313C8.30625 16.36 9.2175 15.2913 10.4113 14.6925L10.5613 14.6162C10.9838 14.4037 11.25 13.9713 11.2487 13.4975C11.2475 13.025 10.9813 12.5937 10.5575 12.3812C9.2925 11.7487 8.35875 10.6 7.9975 9.23125L7.4575 7.18125C7.315 6.6325 6.8175 6.25 6.25 6.25C5.6825 6.25 5.185 6.6325 5.04125 7.18125L4.5025 9.2325C4.14125 10.6 3.2075 11.7488 1.94125 12.3825C1.5175 12.595 1.25 13.0275 1.25 13.5012C1.25 13.975 1.5175 14.4062 1.94125 14.6187ZM6.25 11.5463C6.645 12.2688 7.16 12.92 7.76875 13.4738C7.17125 13.9888 6.6575 14.5975 6.25 15.2725C5.8425 14.5975 5.32875 13.99 4.73125 13.475C5.34 12.92 5.855 12.2688 6.25 11.5463Z" fill="#B4975A"/>
</svg>
