<svg width="80" height="80" viewBox="0 0 80 80" fill="none" xmlns="http://www.w3.org/2000/svg">
<g clip-path="url(#clip0_225_6540)">
<path d="M13.0234 8.38281H14.9459" stroke="#B4975A" stroke-width="3" stroke-miterlimit="10" stroke-linecap="round" stroke-linejoin="round"/>
<path d="M3.74086 8.38281H1.81836" stroke="#B4975A" stroke-width="3" stroke-miterlimit="10" stroke-linecap="round" stroke-linejoin="round"/>
<path d="M8.38184 3.74086V1.81836" stroke="#B4975A" stroke-width="3" stroke-miterlimit="10" stroke-linecap="round" stroke-linejoin="round"/>
<path d="M8.38184 13.0234V14.9459" stroke="#B4975A" stroke-width="3" stroke-miterlimit="10" stroke-linecap="round" stroke-linejoin="round"/>
<path d="M69.3867 41.1094H71.3092" stroke="#B4975A" stroke-width="3" stroke-miterlimit="10" stroke-linecap="round" stroke-linejoin="round"/>
<path d="M60.1041 41.1094H58.1816" stroke="#B4975A" stroke-width="3" stroke-miterlimit="10" stroke-linecap="round" stroke-linejoin="round"/>
<path d="M64.7451 36.4674V34.5449" stroke="#B4975A" stroke-width="3" stroke-miterlimit="10" stroke-linecap="round" stroke-linejoin="round"/>
<path d="M64.7451 45.75V47.6725" stroke="#B4975A" stroke-width="3" stroke-miterlimit="10" stroke-linecap="round" stroke-linejoin="round"/>
<path d="M66.9186 73.8372C68.7311 73.8372 70.2005 72.3678 70.2005 70.5553C70.2005 68.7428 68.7311 67.2734 66.9186 67.2734C65.1061 67.2734 63.6367 68.7428 63.6367 70.5553C63.6367 72.3678 65.1061 73.8372 66.9186 73.8372Z" stroke="#B4975A" stroke-width="3" stroke-miterlimit="10" stroke-linecap="round" stroke-linejoin="round"/>
<path d="M34.1911 12.0188C36.0036 12.0188 37.4729 10.5495 37.4729 8.73695C37.4729 6.92442 36.0036 5.45508 34.1911 5.45508C32.3785 5.45508 30.9092 6.92442 30.9092 8.73695C30.9092 10.5495 32.3785 12.0188 34.1911 12.0188Z" stroke="#B4975A" stroke-width="3" stroke-miterlimit="10" stroke-linecap="round" stroke-linejoin="round"/>
<path d="M1.5625 46.8719C8.01578 60.7613 19.2377 71.9832 33.1272 78.4366L49.2698 50.6732C50.0761 49.2866 49.8477 47.5308 48.7134 46.3968L33.6022 31.2855C32.468 30.1513 30.7123 29.9229 29.3258 30.7291L1.5625 46.8719Z" stroke="#3C4558" stroke-width="3" stroke-miterlimit="10" stroke-linecap="round" stroke-linejoin="round"/>
<path d="M24.1201 33.8008L46.182 55.8628" stroke="#3C4558" stroke-width="3" stroke-miterlimit="10" stroke-linecap="round" stroke-linejoin="round"/>
<path d="M44.3359 41.5105L49.147 36.6992" stroke="#3C4558" stroke-width="2.5" stroke-miterlimit="10" stroke-linecap="round" stroke-linejoin="round"/>
<path d="M59.0913 26.7559L78.4373 7.40984L72.5902 1.5625L38.5039 35.6488" stroke="#3C4558" stroke-width="3" stroke-miterlimit="10" stroke-linecap="round" stroke-linejoin="round"/>
<path d="M7.85449 56.1365L17.3284 50.9512" stroke="#3C4558" stroke-width="3" stroke-miterlimit="10" stroke-linecap="round" stroke-linejoin="round"/>
<path d="M23.417 72.5908L29.5431 62.8516" stroke="#3C4558" stroke-width="3" stroke-miterlimit="10" stroke-linecap="round" stroke-linejoin="round"/>
<path d="M34.9338 45.0664L28.3887 51.6117" stroke="#3C4558" stroke-width="3" stroke-miterlimit="10" stroke-linecap="round" stroke-linejoin="round"/>
<path d="M23.5401 25.7075C23.0258 21.9864 19.6466 19.3202 15.8841 19.7192C12.1826 20.1119 9.4653 23.327 9.64233 26.9981C9.1428 27.1197 8.64999 27.3036 8.17468 27.5545C5.07171 29.1927 3.88421 33.0359 5.52218 36.1389" stroke="#3C4558" stroke-width="2.5" stroke-miterlimit="10" stroke-linecap="round" stroke-linejoin="round"/>
<path d="M45.3984 72.3894C47.9783 73.2852 50.9372 72.3886 52.5488 70.0239C54.0667 67.7966 53.9353 64.933 52.43 62.875" stroke="#3C4558" stroke-width="2.5" stroke-miterlimit="10" stroke-linecap="round" stroke-linejoin="round"/>
</g>
<defs>
<clipPath id="clip0_225_6540">
<rect width="80" height="80" fill="white"/>
</clipPath>
</defs>
</svg>
