<svg width="24" height="24" viewBox="0 0 24 24" fill="none" xmlns="http://www.w3.org/2000/svg">
<g clip-path="url(#clip0_993_16912)">
<path d="M24 12C24 5.37258 18.6274 0 12 0C5.37258 0 0 5.37258 0 12C0 18.6274 5.37258 24 12 24C18.6274 24 24 18.6274 24 12Z" fill="#B4975A"/>
<path d="M14.842 5.68359H9.15777C8.23649 5.68359 7.35294 6.04957 6.7015 6.70101C6.05006 7.35245 5.68408 8.236 5.68408 9.15728V14.8415C5.68408 15.7628 6.05006 16.6463 6.7015 17.2978C7.35294 17.9492 8.23649 18.3152 9.15777 18.3152H14.842C15.7633 18.3152 16.6468 17.9492 17.2982 17.2978C17.9497 16.6463 18.3157 15.7628 18.3157 14.8415V9.15728C18.3157 8.236 17.9497 7.35245 17.2982 6.70101C16.6468 6.04957 15.7633 5.68359 14.842 5.68359ZM17.2104 14.3425C17.2104 15.103 16.9083 15.8323 16.3706 16.3701C15.8328 16.9078 15.1035 17.2099 14.343 17.2099H9.65671C8.89624 17.2099 8.16691 16.9078 7.62918 16.3701C7.09144 15.8323 6.78935 15.103 6.78935 14.3425V9.65623C6.78935 8.89575 7.09144 8.16643 7.62918 7.62869C8.16691 7.09095 8.89624 6.78886 9.65671 6.78886H14.343C15.1035 6.78886 15.8328 7.09095 16.3706 7.62869C16.9083 8.16643 17.2104 8.89575 17.2104 9.65623V14.3425Z" fill="white"/>
<path d="M14.3034 9.72001L14.2734 9.69001L14.2481 9.66475C13.6511 9.06981 12.8426 8.73593 11.9997 8.73633C11.5741 8.73922 11.1532 8.82595 10.7611 8.99155C10.369 9.15715 10.0134 9.39839 9.71459 9.70147C9.41575 10.0046 9.17957 10.3635 9.01952 10.7579C8.85947 11.1523 8.7787 11.5744 8.78183 12C8.78118 12.8638 9.12166 13.6929 9.72919 14.3069C10.0268 14.6081 10.3814 14.847 10.7723 15.0096C11.1632 15.1723 11.5826 15.2554 12.006 15.2542C12.6411 15.2409 13.2587 15.0431 13.7833 14.6848C14.3079 14.3266 14.7169 13.8234 14.9604 13.2367C15.204 12.65 15.2716 12.0051 15.1549 11.3807C15.0382 10.7562 14.7424 10.1792 14.3034 9.72001ZM11.9997 14.1411C11.575 14.147 11.1582 14.0265 10.8022 13.7949C10.4461 13.5633 10.167 13.231 10.0004 12.8404C9.83372 12.4497 9.78702 12.0183 9.86622 11.601C9.94541 11.1837 10.1469 10.7994 10.4451 10.497C10.7433 10.1945 11.1247 9.98763 11.5409 9.90256C11.957 9.81749 12.389 9.8581 12.782 10.0192C13.175 10.1804 13.5111 10.4547 13.7478 10.8074C13.9844 11.1602 14.1107 11.5753 14.1108 12C14.1129 12.2792 14.0599 12.5561 13.9549 12.8149C13.8499 13.0736 13.695 13.3092 13.4989 13.508C13.3029 13.7068 13.0696 13.8651 12.8123 13.9737C12.5551 14.0823 12.2789 14.1392 11.9997 14.1411Z" fill="white"/>
<path d="M16.1729 8.58618C16.1737 8.6875 16.1545 8.78799 16.1165 8.8819C16.0784 8.97581 16.0222 9.06128 15.9511 9.13344C15.88 9.2056 15.7953 9.26302 15.702 9.30241C15.6086 9.34181 15.5084 9.36241 15.4071 9.36303C15.3066 9.36298 15.2072 9.343 15.1145 9.30424C15.0218 9.26548 14.9377 9.20872 14.8671 9.13724C14.7601 9.02871 14.6874 8.89117 14.6578 8.74167C14.6283 8.59217 14.6433 8.4373 14.701 8.29625C14.7586 8.15519 14.8564 8.03417 14.9822 7.94818C15.108 7.86219 15.2563 7.81501 15.4087 7.8125C15.587 7.81247 15.7597 7.87505 15.8966 7.98934L15.9123 8.00513C15.9378 8.02586 15.9611 8.04914 15.9818 8.07461L15.9992 8.09355C16.1122 8.23279 16.1736 8.40685 16.1729 8.58618Z" fill="white"/>
</g>
<defs>
<clipPath id="clip0_993_16912">
<rect width="24" height="24" fill="white"/>
</clipPath>
</defs>
</svg>
