<svg width="18" height="19" viewBox="0 0 18 19" fill="none" xmlns="http://www.w3.org/2000/svg">
<g clip-path="url(#clip0_821_1515)">
<path d="M9 4.77295C8.40666 4.77295 7.82664 4.9489 7.33329 5.27854C6.83994 5.60818 6.45543 6.07672 6.22836 6.6249C6.0013 7.17308 5.94189 7.77628 6.05765 8.35822C6.1734 8.94016 6.45912 9.47471 6.87868 9.89427C7.29824 10.3138 7.83279 10.5995 8.41473 10.7153C8.99667 10.8311 9.59987 10.7717 10.1481 10.5446C10.6962 10.3175 11.1648 9.93301 11.4944 9.43966C11.8241 8.94631 12 8.36629 12 7.77295C12 6.9773 11.6839 6.21424 11.1213 5.65163C10.5587 5.08902 9.79565 4.77295 9 4.77295ZM9 9.27295C8.70333 9.27295 8.41332 9.18498 8.16665 9.02015C7.91997 8.85533 7.72771 8.62106 7.61418 8.34697C7.50065 8.07289 7.47095 7.77129 7.52882 7.48031C7.5867 7.18934 7.72956 6.92207 7.93934 6.71229C8.14912 6.50251 8.41639 6.35965 8.70737 6.30177C8.99834 6.24389 9.29994 6.2736 9.57403 6.38713C9.84812 6.50066 10.0824 6.69292 10.2472 6.93959C10.412 7.18627 10.5 7.47628 10.5 7.77295C10.5 8.17077 10.342 8.5523 10.0607 8.83361C9.77936 9.11491 9.39783 9.27295 9 9.27295Z" fill="#53666D"/>
<path d="M8.99999 18.2729C8.36845 18.2762 7.74532 18.128 7.18279 17.841C6.62026 17.5539 6.13469 17.1362 5.76674 16.6229C2.90849 12.6802 1.45874 9.71617 1.45874 7.81267C1.45874 5.81261 2.25326 3.89446 3.66752 2.4802C5.08178 1.06595 6.99993 0.271423 8.99999 0.271423C11.0001 0.271423 12.9182 1.06595 14.3325 2.4802C15.7467 3.89446 16.5412 5.81261 16.5412 7.81267C16.5412 9.71617 15.0915 12.6802 12.2332 16.6229C11.8653 17.1362 11.3797 17.5539 10.8172 17.841C10.2547 18.128 9.63153 18.2762 8.99999 18.2729ZM8.99999 1.90867C7.4343 1.91046 5.93325 2.53322 4.82614 3.64033C3.71904 4.74744 3.09628 6.24849 3.09449 7.81417C3.09449 9.32167 4.51424 12.1094 7.09124 15.6637C7.31001 15.965 7.59702 16.2103 7.92878 16.3794C8.26053 16.5485 8.62762 16.6366 8.99999 16.6366C9.37236 16.6366 9.73945 16.5485 10.0712 16.3794C10.403 16.2103 10.69 15.965 10.9087 15.6637C13.4857 12.1094 14.9055 9.32167 14.9055 7.81417C14.9037 6.24849 14.2809 4.74744 13.1738 3.64033C12.0667 2.53322 10.5657 1.91046 8.99999 1.90867Z" fill="#53666D"/>
</g>
<defs>
<clipPath id="clip0_821_1515">
<rect width="18" height="18" fill="white" transform="translate(0 0.272949)"/>
</clipPath>
</defs>
</svg>
