<svg width="18" height="18" viewBox="0 0 18 18" fill="none" xmlns="http://www.w3.org/2000/svg">
<g clip-path="url(#clip0_1005_17146)">
<path d="M14.175 0.000152421H3.825C2.82077 -0.00884665 1.854 0.380963 1.13688 1.08402C0.419761 1.78708 0.0108864 2.74594 0 3.75015L0 6.00015C0 6.19906 0.0790176 6.38983 0.21967 6.53048C0.360322 6.67113 0.551088 6.75015 0.75 6.75015C0.948912 6.75015 1.13968 6.67113 1.28033 6.53048C1.42098 6.38983 1.5 6.19906 1.5 6.00015V3.75015C1.51065 3.1437 1.76142 2.56623 2.19728 2.14443C2.63315 1.72262 3.21852 1.49092 3.825 1.50015H14.175C14.7815 1.49092 15.3669 1.72262 15.8027 2.14443C16.2386 2.56623 16.4893 3.1437 16.5 3.75015V14.2502C16.4893 14.8566 16.2386 15.4341 15.8027 15.8559C15.3669 16.2777 14.7815 16.5094 14.175 16.5002H3.825C3.21852 16.5094 2.63315 16.2777 2.19728 15.8559C1.76142 15.4341 1.51065 14.8566 1.5 14.2502V12.0002C1.5 11.8012 1.42098 11.6105 1.28033 11.4698C1.13968 11.3292 0.948912 11.2502 0.75 11.2502C0.551088 11.2502 0.360322 11.3292 0.21967 11.4698C0.0790176 11.6105 0 11.8012 0 12.0002L0 14.2502C0.0108864 15.2544 0.419761 16.2132 1.13688 16.9163C1.854 17.6193 2.82077 18.0092 3.825 18.0002H14.175C15.1792 18.0092 16.146 17.6193 16.8631 16.9163C17.5802 16.2132 17.9891 15.2544 18 14.2502V3.75015C17.9891 2.74594 17.5802 1.78708 16.8631 1.08402C16.146 0.380963 15.1792 -0.00884665 14.175 0.000152421Z" fill="#B4975A"/>
<path d="M2.25 9.00055C2.25 9.19946 2.32902 9.39023 2.46967 9.53088C2.61032 9.67153 2.80109 9.75055 3 9.75055L12.891 9.72805L9.64875 12.9703C9.57712 13.0395 9.51998 13.1222 9.48067 13.2137C9.44137 13.3052 9.42068 13.4037 9.41981 13.5032C9.41895 13.6028 9.43792 13.7016 9.47563 13.7938C9.51334 13.8859 9.56903 13.9697 9.63945 14.0401C9.70987 14.1105 9.79361 14.1662 9.88578 14.2039C9.97796 14.2416 10.0767 14.2606 10.1763 14.2597C10.2759 14.2589 10.3743 14.2382 10.4658 14.1989C10.5573 14.1596 10.6401 14.1024 10.7093 14.0308L14.1488 10.5913C14.5706 10.1694 14.8075 9.59717 14.8075 9.00055C14.8075 8.40393 14.5706 7.83174 14.1488 7.4098L10.7108 3.9703C10.5693 3.83368 10.3798 3.75809 10.1832 3.75979C9.98655 3.7615 9.79844 3.84038 9.65939 3.97944C9.52033 4.11849 9.44145 4.3066 9.43974 4.50325C9.43804 4.6999 9.51363 4.88935 9.65025 5.0308L12.8468 8.22805L3 8.25055C2.80109 8.25055 2.61032 8.32957 2.46967 8.47022C2.32902 8.61087 2.25 8.80164 2.25 9.00055Z" fill="#B4975A"/>
</g>
<defs>
<clipPath id="clip0_1005_17146">
<rect width="18" height="18" fill="white"/>
</clipPath>
</defs>
</svg>
