<svg width="145" height="200" viewBox="0 0 145 200" fill="none" xmlns="http://www.w3.org/2000/svg">
<path fill-rule="evenodd" clip-rule="evenodd" d="M143.917 149.92C143.143 146.929 142.127 144.328 140.768 142C138.902 138.785 136.967 137.103 133.082 136.051C131.883 135.728 130.025 135.545 128.613 135.827C127.627 136.018 126.694 136.192 125.851 136.523C123.059 137.617 120.836 139.406 118.492 141.005C115.024 143.367 111.595 145.745 108.021 148.006C105.578 149.556 103.006 150.716 99.6899 151.337C97.8841 151.677 96.1921 151.03 95.2209 150.285L94.8036 149.962L94.667 149.431L94.3711 148.512L94.4242 147.874L94.4622 146.987C94.576 146.341 94.6822 145.678 94.8415 145.107C95.9038 141.32 97.8234 138.81 99.8341 136.092L101.367 134.344C101.655 133.955 102.012 133.565 102.376 133.251L103.453 132.099L106.116 129.555L111.215 124.849L112.869 123.25C113.969 122.289 114.971 121.187 115.965 120.11C118.643 117.219 121.071 114.095 122.801 110.176C123.59 108.387 124.046 106.349 124.508 104.211C124.804 102.86 124.804 101.477 125.032 99.9938C125.214 98.8007 125.191 97.4502 125.191 96.1163C125.191 95.2712 125.229 94.4013 125.123 93.6308C124.933 92.3383 125.032 91.1121 124.812 89.9025C124.319 87.2346 123.917 84.7739 123.128 82.4872C122.634 81.0704 122.27 79.6288 121.618 78.4026C121.413 78.0215 121.216 77.4913 120.851 77.2924C120.525 77.1101 120.54 77.5824 120.472 77.7978L119.774 79.604C118.666 81.957 117.111 83.9537 115.237 85.4782C113.287 87.0606 111.003 88.1543 108.317 88.9579C107.452 89.2148 106.579 89.2894 105.638 89.4882L103.81 89.7119L102.816 89.7533L101.23 89.7699L99.1588 89.6208L96.7232 89.2976L97.0874 90.9547L97.7323 93.7219C98.438 96.5057 99.0526 99.2813 99.9934 101.817C100.441 103.018 101.101 105.238 101.996 105.843C102.467 106.166 103.355 106.067 103.977 106.183C105.236 106.415 106.602 106.465 108.029 106.465C108.689 106.465 109.455 106.556 110.032 106.39L107.983 108.478L103.203 112.935C101.754 114.178 100.464 115.62 99.0298 116.871L97.2771 118.718C96.875 119.075 96.4728 119.522 96.1466 119.961C95.7141 120.549 95.1754 121.038 94.7353 121.635C94.2649 122.273 93.7262 122.869 93.2709 123.54C92.0493 125.338 90.9567 127.302 90.1904 129.597C89.7276 130.997 89.4772 132.488 89.1813 134.112C89.0295 134.932 89.1433 135.761 89.0068 136.656C88.9006 137.335 88.9461 138.536 89.0447 139.174C89.1661 139.995 89.0978 140.757 89.2344 141.527C89.5075 143.027 89.6593 144.51 90.0159 145.894C90.3118 147.054 90.7443 148.147 91.063 149.224L91.5334 151.61C92.0038 153.557 92.4135 155.496 93.0661 157.261C93.4454 158.288 93.84 159.316 94.318 160.252L94.9933 161.453C94.3104 162.704 93.8324 164.055 93.4985 165.728C93.324 166.615 93.1571 168.164 93.3089 169.208C93.453 170.186 93.362 171.114 93.5365 172.017C93.9993 174.461 94.4697 176.706 95.2437 178.794C95.6837 179.979 96.1314 181.139 96.617 182.274L97.3681 183.889C95.2892 183.914 93.3696 183.815 91.6624 183.384C81.7759 180.865 75.4859 173.276 72.2385 163.599C71.7225 162.075 71.3128 160.476 70.8955 158.835L70.4099 156.316C70.0229 154.643 69.9623 152.804 69.6815 150.989L69.507 148.636L69.4008 145.927V144.949C69.3021 144.286 69.3249 142.778 69.416 142.124L69.4994 139.241L69.727 135.927L69.9016 134.046C70.243 131.9 70.2961 129.729 70.721 127.666L71.7681 121.759L72.7241 117.02L73.4221 118.901C74.0519 120.458 74.5603 122.09 75.1066 123.739C75.8198 125.877 76.4268 128.13 77.0186 130.417L77.8912 134.576C78.1946 135.927 78.2326 137.302 78.4678 138.735C78.6575 139.887 78.5892 141.179 78.7637 142.406L78.7789 143.781V145.852L78.6727 147.957L78.3616 150.873C78.6575 150.633 78.8851 150.252 79.1127 149.929C80.0232 148.653 80.782 147.211 81.4269 145.637C82.2843 143.532 82.9823 141.378 83.4983 138.826C83.7411 137.608 83.7411 136.308 83.9308 135.024L83.9839 133.897L84.0522 131.825V130.566C83.8928 129.464 84.0901 128.329 83.9308 127.269C83.6652 125.504 83.6576 123.739 83.3238 122.074C82.565 118.279 81.8822 114.7 80.8047 111.286C80.046 108.892 79.2796 106.506 78.4374 104.211L77.6408 101.949L75.7818 97.1851L76.2826 93.2331L77.5497 83.8046L78.5057 75.7679L78.7637 73.0007L79.0217 69.0072L79.1431 66.3891V65.428C79.2341 64.7984 79.2038 63.597 79.1279 63.0419V62.3874L78.9913 59.0733L78.9382 57.64L78.5057 51.6746L78.2781 49.3217C77.8836 46.8444 77.8153 44.3423 77.3752 41.923L76.3661 35.6014L75.4632 30.8374C74.4161 26.3469 73.5663 21.8894 72.2461 17.6806C71.328 14.7559 70.501 11.7981 69.4311 9.03913L68.164 5.59249L66.6162 1.86416L65.7816 0C65.5995 0.107707 65.5464 0.662814 65.4705 0.886514L64.689 3.38864C63.6798 6.50386 62.5948 9.37882 61.5554 12.4443C60.053 16.8603 58.748 21.5 57.5188 26.2226L55.9179 33.0744C55.364 35.3114 55.0833 37.5981 54.6128 39.9263C54.279 41.5667 54.1272 43.3149 53.8313 45.0299L53.6037 47.3829L53.4671 50.0756V50.9207V52.7269V53.572L53.6037 56.1155C53.801 57.466 53.7327 58.7668 53.9527 60.051C54.37 62.5282 54.6052 64.9641 55.1364 67.3005C56.4262 72.9593 57.7996 78.3198 59.5219 83.4317C60.0758 85.0722 60.5766 86.7209 61.2063 88.2868C61.9803 90.2007 62.5341 92.1726 63.346 94.045C65.0001 97.8811 66.3658 101.825 68.0426 105.619L70.3568 111.137L69.9547 114.244C69.5525 116.556 69.3628 118.859 68.9076 121.08L66.123 137.194L65.3036 142.803L64.6966 148.28L64.56 149.995L64.3855 152.837L64.3324 154.925L64.2944 157.029L64.3324 159.1V159.78L64.4689 162.489L64.6966 165.032C65.0077 166.921 65.1442 168.819 65.5464 170.567L66.032 172.936C66.7983 175.894 67.5874 178.769 68.7255 181.329C72.2764 189.308 78.3616 194.95 86.6015 197.833C88.0963 198.355 89.6821 198.703 91.3134 199.093L93.4151 199.416C94.189 199.565 94.9629 199.424 95.7824 199.565C96.3818 199.664 97.4971 199.689 98.1117 199.582C98.787 199.466 99.4775 199.573 100.092 199.466C101.154 199.283 102.156 199.308 103.15 199.093C105.494 198.579 107.649 198.007 109.675 197.212C110.502 196.889 111.306 196.574 112.02 196.118L115.426 193.749L116.435 192.937L116.891 192.506L117.672 192.282L119.478 191.603C121.269 190.832 123.006 189.946 124.592 188.927C129.471 185.787 133.682 181.744 137.134 177.046L139.031 174.544C140.837 171.959 142.491 169.109 143.606 165.795C144.008 164.593 144.312 163.326 144.6 161.992L144.911 159.697C145.017 159.001 145.002 158.272 144.995 157.518C144.957 154.635 144.517 152.224 143.917 149.92ZM71.8814 81.542L71.7752 78.4351L71.76 77.648L71.5552 74.5411L71.5021 73.5634L71.1227 69.6116C70.8116 67.6975 70.7585 65.7921 70.4246 63.9692C70.0528 61.931 69.8859 59.8929 69.4686 57.946C68.8692 55.1206 68.4898 52.3037 67.8145 49.611C66.9875 46.2886 66.3805 42.958 65.47 39.7682C64.423 36.0978 63.6339 32.4027 62.5109 28.8317L61.3804 24.8797L60.5078 27.589C59.7719 29.7928 59.2256 32.063 58.7703 34.6065L58.5579 36.7855L58.5427 37.7797V39.2131L58.5958 40.663L58.7324 43.016C59.0207 44.905 59.0738 46.8272 59.4077 48.6085C59.7946 50.6385 59.9919 52.6019 60.4699 54.516C61.8205 59.9676 63.0951 65.2202 64.8858 70.1582C65.5459 71.9728 66.077 73.8204 66.7978 75.5603L67.9815 78.7253L70.4019 84.616L71.4489 87.1347C71.5855 87.4742 71.6917 87.9964 71.9194 88.2449V83.8619L71.8814 81.542ZM91.844 102.852C91.6392 101.518 91.6164 100.185 91.3584 98.9169C90.7439 95.8762 90.1368 93.0261 89.2036 90.3914C88.4752 88.3367 87.7316 86.3897 86.7301 84.6498C86.4797 84.2107 85.9334 83.0922 85.3871 83.0508C85.0381 83.4236 84.856 84.5752 84.6587 85.1386C83.9682 87.1022 83.4675 89.2398 82.9363 91.3691C82.8225 91.8165 82.4128 93.5729 82.5873 94.0949L83.0046 94.6417L83.9455 96.1082C84.8332 97.6824 85.5692 99.4471 86.1914 101.303C86.9501 103.573 87.3826 106.026 87.8758 108.627L88.2779 112.049C88.5055 113.524 88.4297 115.123 88.5055 116.697C88.6042 118.876 88.331 121.105 88.3007 123.168C88.6042 122.878 88.7635 122.231 88.9456 121.834C89.5526 120.491 90.0306 119.1 90.5086 117.583C91.0398 115.885 91.3281 114.029 91.6771 112.09C91.8213 111.262 91.7757 110.442 91.9047 109.572C92.0034 108.909 91.8895 108.18 91.9882 107.467V106.017V105.28L91.844 102.852ZM54.5591 86.397C53.3906 84.6737 49.7866 84.2346 46.9413 84.2677L45.5983 84.3423C44.8396 84.4831 44.0657 84.5411 43.3752 84.7151L42.8896 84.8062C42.4344 85.0299 41.8274 86.4715 41.5997 87.0432C40.9624 88.6588 40.583 90.4153 40.0671 92.2215L39.6346 93.9945L39.4601 94.765C40.6665 93.8951 41.5466 93.0831 43.1476 92.5777C45.2493 91.9149 48.3526 92.4617 50.1053 93.0334L51.7366 93.5388L49.4755 94.7402L44.9155 95.5273C42.882 96.0824 41.2355 96.7452 39.8395 97.9382C38.8834 98.7502 37.9578 100.043 37.5632 101.443L36.9562 104.359L37.5632 103.796L38.6558 102.926C39.7712 102.164 41.0307 101.584 42.3964 101.078C43.2614 100.763 44.2022 100.614 45.181 100.416L46.8654 100.167C48.9065 99.6781 51.1372 99.0153 52.2374 97.5324C53.641 95.6432 54.4074 93.2157 54.9992 90.4153C55.3103 89.0234 55.1661 87.2918 54.5591 86.397ZM64.3849 120.334C63.96 120.517 63.4061 121.088 62.9736 121.37C62.0631 121.958 61.0236 122.314 59.7945 122.555C57.3437 123.035 55.5151 121.403 54.6957 119.937C54.4074 119.423 54.2708 118.818 54.1039 118.188C53.9066 117.426 53.7321 116.25 53.899 115.272C54.2253 113.342 54.855 111.991 55.5303 110.491C56.3422 108.702 57.2147 106.945 57.7231 104.866C57.928 104.029 57.9204 102.67 57.1692 102.513L55.5531 106.349L54.0735 109.945C52.8671 112.679 51.7821 115.512 51.0309 118.735C50.0446 122.977 51.1903 127.161 53.6714 128.843C54.1266 129.15 54.6729 129.373 55.2572 129.539C56.2208 129.821 57.5789 129.68 58.4363 129.423C60.8339 128.711 62.2376 127.335 63.2543 125.131C63.7323 124.096 64.1497 122.952 64.4532 121.759C64.5442 121.411 64.696 120.533 64.3849 120.334ZM46.1527 118.644C45.1284 116.854 44.2027 114.998 43.2846 113.076C42.7459 111.958 42.2375 110.806 41.7519 109.613L41.1601 108.163C40.4697 108.329 39.4529 109.248 38.8991 109.671C37.7306 110.566 36.6532 111.518 35.5606 112.471C34.8549 113.084 34.3087 114.021 33.5954 114.601C33.0871 113.971 32.6546 112.869 32.2373 112.115C31.2964 110.4 30.4163 108.577 29.5968 106.73L28.6029 104.377C28.5118 104.153 28.436 103.697 28.2539 103.565L27.7531 103.83L26.6074 104.617C24.6119 106.133 22.5026 107.724 20.9927 109.754C20.454 110.483 19.8697 111.146 19.3765 111.933C19.2324 112.165 19.0199 112.43 18.9592 112.745C18.8834 113.101 19.1641 113.449 19.2551 113.689C19.5814 114.509 19.9228 115.288 20.2491 116.084C21.1368 118.254 22.1611 120.35 23.2613 122.331L24.8774 125.189C25.0823 125.288 25.401 125.056 25.5527 124.965C26.0839 124.642 26.5619 124.327 27.0323 123.971C28.2994 123.002 29.4072 121.9 30.5984 120.864L32.389 118.942L32.6849 119.638L33.5575 121.635C34.4528 123.631 35.3709 125.554 36.3952 127.409L37.7685 129.82C38.6942 129.29 39.4985 128.487 40.3103 127.824C41.9644 126.473 43.5578 125.073 45.0373 123.532C45.8568 122.679 46.8355 121.776 47.2149 120.466L46.1527 118.644ZM54.7644 147.17L54.6279 145.687C54.3319 144.138 53.9298 142.812 53.2925 141.66C51.6081 138.611 49.3925 137.203 45.8492 136.167C44.6883 135.828 43.4288 135.753 42.1617 135.504L40.8718 135.388L37.6016 135.123L36.2435 135.065L33.9824 135.007L29.7562 134.784L27.442 134.535C25.1658 134.079 23.0337 133.773 21.2355 132.845C19.0655 131.718 17.419 130.194 16.6071 127.592C16.3947 126.904 16.296 126.101 16.296 125.222C16.296 124.966 16.3643 123.988 16.3112 123.922C15.8104 124.626 15.1351 125.214 14.642 125.976C14.2474 126.581 13.9287 127.236 13.5949 127.899C12.5023 130.053 11.5994 132.248 11.0379 135.032C10.5068 137.65 10.9317 140.815 11.8194 142.58C13.1472 145.206 15.8104 146.25 18.8606 147.021L20.8637 147.418L19.8545 149.788C19.3841 150.998 19.0503 152.29 18.7771 153.723C18.6406 154.444 18.724 155.19 18.6026 155.985C18.5267 156.507 18.504 157.294 18.5874 157.833L18.6406 159.374C18.8454 160.708 18.9061 162.017 19.1944 163.193C20.7195 169.432 23.3979 173.724 28.9671 175.579C30.6515 176.143 33.6865 176.582 35.8565 176.143C37.1008 175.894 38.2541 175.712 39.3164 175.298C45.5381 172.878 48.9828 167.559 51.7143 161.354C52.7613 158.976 53.4594 156.308 54.1498 153.558C54.3851 152.613 54.4989 151.619 54.6734 150.6L54.7948 149.018C54.8858 148.471 54.8403 147.667 54.7644 147.17ZM61.6537 178.156C60.6142 178.86 59.5292 179.498 58.4214 180.111C55.2954 181.835 51.8507 183.003 47.9659 183.956C42.2222 185.356 34.483 184.809 29.3539 183.26C27.237 182.622 25.2263 181.951 23.3902 180.998C22.6162 180.6 21.8347 180.302 21.1139 179.846C19.7254 178.968 18.3824 178.115 17.1153 177.137C12.0545 173.218 8.10143 167.385 6.05282 160.202C4.86917 156.051 4.39116 149.614 5.52928 144.974C6.00729 143.044 6.51565 141.295 7.03919 139.456C7.13024 139.141 7.60824 137.575 7.53996 137.327L6.69016 138.346C6.04523 139.266 5.47617 140.268 4.95264 141.32C4.35323 142.53 3.95868 143.839 3.51102 145.214C2.72951 147.617 2.12251 150.152 1.47758 152.746C0.870582 155.157 0.688483 157.708 0.263585 160.351L0.089074 162.895C-0.0323253 163.723 0.00561204 164.651 0.00561204 165.571L0.0435493 167.261L0.180123 169.863C0.460859 171.636 0.605021 173.367 0.999568 174.941C1.50793 176.98 2.01629 178.86 2.79021 180.609C6.21974 188.355 11.9786 193.915 19.5357 197.171C21.4098 197.974 23.4053 198.563 25.5374 199.109L28.3523 199.615L31.1901 199.896L32.0095 199.913C32.7 200.029 34.2023 200.029 34.8927 199.913C35.6742 199.78 36.4633 199.888 37.1917 199.764L38.7016 199.615C39.9915 199.35 41.289 199.258 42.5105 198.919L45.591 198.074C48.2542 197.154 50.7278 196.118 53.0192 194.834C54.2483 194.138 55.4016 193.401 56.5322 192.63C57.2909 192.108 58.1028 191.586 58.6566 190.841C60.5611 188.247 61.6461 184.561 62.549 180.923L63.0346 178.156L63.1408 177.137L61.6537 178.156ZM48.9368 157.866C48.2615 155.265 47.4193 153.732 45.6514 152.332C43.9822 151.006 42.0171 150.153 39.7181 149.473C38.7089 149.175 37.6239 149.051 36.5541 148.819C34.8697 148.454 33.0563 148.57 31.2808 148.255L24.2169 147.8L24.4066 148.91C24.7025 150.327 24.9984 151.578 25.4157 152.787C27.0849 157.659 30.2793 161.073 35.0518 162.597C39.1262 163.898 43.9139 162.92 47.0324 161.429C47.6925 161.114 48.8609 160.493 49.3086 159.979C49.301 159.233 49.1037 158.496 48.9368 157.866ZM136.489 151.826C135.359 151.552 134.137 151.494 132.802 151.486L131.481 151.602C130.563 151.793 129.721 151.983 128.962 152.339C127.498 153.019 126.155 153.947 124.857 154.825L118.909 158.951L114.227 162.016C114.455 162.157 114.675 162.505 114.834 162.712C115.221 163.234 115.669 163.698 116.048 164.237C117.93 166.897 119.22 170.037 120.381 173.516L121.565 172.671C122.672 171.876 123.704 171.023 124.744 170.169C128.628 166.988 131.937 163.102 134.759 158.76C135.67 157.352 136.519 155.894 137.301 154.336C137.589 153.764 138.12 152.919 138.242 152.248L136.489 151.826ZM88.1567 154.593C87.0944 153.094 85.2886 152.572 83.3007 152.05C82.0488 151.718 80.3492 151.486 78.8696 151.503C78.5737 151.636 78.3537 151.669 78.1185 151.843C77.0107 152.696 75.9788 155.215 75.4249 156.739C75.2352 157.253 75.0607 157.792 74.9393 158.355C74.8938 158.545 74.8635 158.943 74.9924 159.034L77.8301 159.258C80.4933 159.755 84.0519 160.36 84.5754 163.061C84.7196 163.815 84.2264 164.395 83.9532 164.792C83.0275 166.101 81.7756 166.656 80.5237 167.601C79.8181 168.131 79.2111 169.241 79.4994 170.65C79.598 171.139 79.8332 171.536 79.9319 171.967L82.6937 168.976C84.8485 166.64 87.0717 164.329 88.2781 160.973C88.9534 159.101 89.2644 156.151 88.1567 154.593ZM113.529 173.632C111.89 172.522 110.054 171.743 107.391 171.71L106.73 171.752C106.169 171.851 105.615 171.893 105.114 172.05C103.164 172.68 101.192 174.022 100.311 175.778L101.336 176.358L102.922 177.013C105.069 177.8 108.331 178.115 110.957 177.543L112.542 177.22L113.187 176.557C113.749 175.952 114.371 175.289 114.773 174.527C114.439 174.171 113.946 173.914 113.529 173.632Z" fill="#B4975A"/>
</svg>
