<svg width="18" height="18" viewBox="0 0 18 18" fill="none" xmlns="http://www.w3.org/2000/svg">
<g clip-path="url(#clip0_993_16847)">
<path d="M17.1217 6.87955L14.2125 3.9703C14.071 3.83368 13.8815 3.75809 13.6849 3.75979C13.4883 3.7615 13.3001 3.84038 13.1611 3.97944C13.022 4.11849 12.9432 4.3066 12.9414 4.50325C12.9397 4.6999 13.0153 4.88935 13.1519 5.0308L16.0612 7.94005C16.1476 8.0282 16.2232 8.1264 16.2862 8.23255C16.275 8.23255 16.266 8.22655 16.2547 8.22655L4.4917 8.25055C4.29279 8.25055 4.10202 8.32957 3.96137 8.47022C3.82072 8.61087 3.7417 8.80164 3.7417 9.00055C3.7417 9.19946 3.82072 9.39023 3.96137 9.53088C4.10202 9.67153 4.29279 9.75055 4.4917 9.75055L16.2502 9.72655C16.2712 9.72655 16.2885 9.71605 16.3087 9.71455C16.2422 9.84142 16.1578 9.9581 16.0582 10.061L13.1489 12.9703C13.0773 13.0395 13.0202 13.1222 12.9809 13.2137C12.9416 13.3052 12.9209 13.4037 12.92 13.5032C12.9191 13.6028 12.9381 13.7016 12.9758 13.7938C13.0135 13.8859 13.0692 13.9697 13.1397 14.0401C13.2101 14.1105 13.2938 14.1662 13.386 14.2039C13.4782 14.2416 13.5769 14.2606 13.6765 14.2597C13.7761 14.2589 13.8745 14.2382 13.966 14.1989C14.0575 14.1596 14.1403 14.1024 14.2094 14.0308L17.1187 11.1215C17.6811 10.559 17.9971 9.79604 17.9971 9.00055C17.9971 8.20506 17.6811 7.44213 17.1187 6.87955H17.1217Z" fill="#EF5457"/>
<path d="M5.25 16.5H3.75C3.15326 16.5 2.58097 16.2629 2.15901 15.841C1.73705 15.419 1.5 14.8467 1.5 14.25V3.75C1.5 3.15326 1.73705 2.58097 2.15901 2.15901C2.58097 1.73705 3.15326 1.5 3.75 1.5H5.25C5.44891 1.5 5.63968 1.42098 5.78033 1.28033C5.92098 1.13968 6 0.948912 6 0.75C6 0.551088 5.92098 0.360322 5.78033 0.21967C5.63968 0.0790176 5.44891 0 5.25 0L3.75 0C2.7558 0.00119089 1.80267 0.396661 1.09967 1.09966C0.396662 1.80267 0.00119089 2.7558 0 3.75L0 14.25C0.00119089 15.2442 0.396662 16.1973 1.09967 16.9003C1.80267 17.6033 2.7558 17.9988 3.75 18H5.25C5.44891 18 5.63968 17.921 5.78033 17.7803C5.92098 17.6397 6 17.4489 6 17.25C6 17.0511 5.92098 16.8603 5.78033 16.7197C5.63968 16.579 5.44891 16.5 5.25 16.5Z" fill="#EF5457"/>
</g>
<defs>
<clipPath id="clip0_993_16847">
<rect width="18" height="18" fill="white"/>
</clipPath>
</defs>
</svg>
