<svg width="57" height="56" viewBox="0 0 57 56" fill="none" xmlns="http://www.w3.org/2000/svg">
<ellipse cx="28.7083" cy="28" rx="28.2917" ry="28" fill="#EAE7DF"/>
<g clip-path="url(#clip0_3751_22040)">
<path d="M41.6516 25.2325C39.5753 25.2325 37.8869 23.5441 37.8869 21.4678C37.8869 19.3915 39.5753 17.7031 41.6516 17.7031C43.7279 17.7031 45.4163 19.3915 45.4163 21.4678C45.4163 23.5441 43.7279 25.2325 41.6516 25.2325Z" fill="#B4975A"/>
<path d="M17.1813 25.2325C15.105 25.2325 13.4166 23.5441 13.4166 21.4678C13.4166 19.3915 15.105 17.7031 17.1813 17.7031C19.2576 17.7031 20.946 19.3915 20.946 21.4678C20.946 23.5441 19.2576 25.2325 17.1813 25.2325Z" fill="#B4975A"/>
<path d="M29.4169 25.2325C27.3406 25.2325 25.6522 23.5441 25.6522 21.4678C25.6522 19.3915 27.3406 17.7031 29.4169 17.7031C31.4932 17.7031 33.1816 19.3915 33.1816 21.4678C33.1816 23.5441 31.4932 25.2325 29.4169 25.2325Z" fill="#878484"/>
<path d="M38.8285 40.2922V34.4356C37.9105 34.5551 37.5703 34.6452 36.9462 34.6452H33.1815C32.1438 34.6452 31.2991 33.8005 31.2991 32.7628C31.2991 31.7251 32.1438 30.8805 33.1815 30.8805H36.9462C37.9839 30.8805 38.8285 30.0358 38.8285 28.9981V28.0753C38.8285 26.5082 40.0951 25.2334 41.6521 25.2334C43.209 25.2334 44.4756 26.5 44.4756 28.0569V40.2922H38.8285Z" fill="#B4975A"/>
<path d="M14.3577 40.2922V28.0569C14.3577 26.5 15.6243 25.2334 17.1813 25.2334C18.7382 25.2334 20.0048 26.5 20.0048 28.0569V28.9981C20.0048 30.0358 20.8495 30.8805 21.8871 30.8805H25.6518C26.6895 30.8805 27.5342 31.7251 27.5342 32.7628C27.5342 33.8005 26.6895 34.6452 25.6518 34.6452H21.8871C21.2622 34.6452 20.9189 34.5546 20.0048 34.4356V40.2922H14.3577Z" fill="#B4975A"/>
<path d="M33.1811 28.9981H35.0635V28.0569C35.0635 26.5 33.7969 25.2334 32.24 25.2334H26.5929C25.036 25.2334 23.7694 26.5 23.7694 28.0569V28.9987L25.6517 28.9981C27.7276 28.9981 29.4164 30.687 29.4164 32.7628C29.4164 30.687 31.1053 28.9981 33.1811 28.9981Z" fill="#878484"/>
<path d="M33.1812 36.5284C31.1053 36.5284 29.4165 34.8395 29.4165 32.7637C29.4165 34.8395 27.7277 36.5284 25.6518 36.5284H23.7694V40.2931H35.0636V36.5284H33.1812Z" fill="#878484"/>
</g>
<defs>
<clipPath id="clip0_3751_22040">
<rect width="32" height="32" fill="white" transform="translate(13.4166 13)"/>
</clipPath>
</defs>
</svg>
