<svg width="27" height="20" viewBox="0 0 27 20" fill="none" xmlns="http://www.w3.org/2000/svg">
<path d="M2 0.75C1.30964 0.75 0.75 1.30964 0.75 2C0.75 2.69036 1.30964 3.25 2 3.25L2 0.75ZM25 3.25L26.25 3.25V0.75L25 0.75V3.25ZM2 3.25L25 3.25V0.75L2 0.75L2 3.25Z" fill="#F9F9F9"/>
<path d="M8 8.75C7.30964 8.75 6.75 9.30964 6.75 10C6.75 10.6904 7.30964 11.25 8 11.25V8.75ZM25 11.25H26.25V8.75H25V11.25ZM8 11.25L25 11.25V8.75L8 8.75V11.25Z" fill="#F9F9F9"/>
<path d="M14 16.75C13.3096 16.75 12.75 17.3096 12.75 18C12.75 18.6904 13.3096 19.25 14 19.25V16.75ZM25 19.25H26.25V16.75H25V19.25ZM14 19.25L25 19.25V16.75L14 16.75V19.25Z" fill="#F9F9F9"/>
</svg>
