<svg width="15" height="16" viewBox="0 0 15 16" fill="none" xmlns="http://www.w3.org/2000/svg">
<g clip-path="url(#clip0_997_1735)">
<path d="M7.50047 10.5C6.12172 10.5 5.00047 9.37875 5.00047 8C5.00047 6.62125 6.12172 5.5 7.50047 5.5C8.87922 5.5 10.0005 6.62125 10.0005 8C10.0005 9.37875 8.87922 10.5 7.50047 10.5ZM7.50047 6.75C6.8111 6.75 6.25047 7.31063 6.25047 8C6.25047 8.68937 6.8111 9.25 7.50047 9.25C8.18985 9.25 8.75047 8.68937 8.75047 8C8.75047 7.31063 8.18985 6.75 7.50047 6.75ZM3.12547 4.875C2.78047 4.875 2.50047 5.155 2.50047 5.5C2.50047 5.845 2.78047 6.125 3.12547 6.125C3.47047 6.125 3.75047 5.845 3.75047 5.5C3.75047 5.155 3.47047 4.875 3.12547 4.875ZM11.2505 6.75C11.2505 7.095 11.5305 7.375 11.8755 7.375C12.2205 7.375 12.5005 7.095 12.5005 6.75C12.5005 6.405 12.2205 6.125 11.8755 6.125C11.5305 6.125 11.2505 6.405 11.2505 6.75ZM3.12547 8.625C2.78047 8.625 2.50047 8.905 2.50047 9.25C2.50047 9.595 2.78047 9.875 3.12547 9.875C3.47047 9.875 3.75047 9.595 3.75047 9.25C3.75047 8.905 3.47047 8.625 3.12547 8.625ZM11.2505 10.5C11.2505 10.845 11.5305 11.125 11.8755 11.125C12.2205 11.125 12.5005 10.845 12.5005 10.5C12.5005 10.155 12.2205 9.875 11.8755 9.875C11.5305 9.875 11.2505 10.155 11.2505 10.5ZM10.6248 13.625C9.6036 13.625 8.6886 13.3756 7.80422 13.1344C6.96172 12.9044 6.16672 12.6875 5.31297 12.6875C4.3311 12.6875 3.71172 12.7506 3.1761 12.9056C2.42235 13.1225 1.62985 12.9763 1.0011 12.5031C0.365474 12.025 0.00109863 11.295 0.00109863 10.5V5.7825C0.00109863 4.49312 0.812974 3.3175 2.02172 2.85687C2.85985 2.53687 3.65235 2.375 4.37672 2.375C5.39797 2.375 6.31235 2.62438 7.19735 2.86563C8.03985 3.09563 8.83485 3.3125 9.6886 3.3125C10.6698 3.3125 11.2898 3.24937 11.8255 3.09438C12.5805 2.8775 13.373 3.02375 14.0011 3.49688C14.6367 3.975 15.0011 4.705 15.0011 5.5V10.2175C15.0011 11.5069 14.1886 12.6825 12.9798 13.1431C12.1417 13.4631 11.3498 13.625 10.6248 13.625ZM5.31297 11.4375C6.33422 11.4375 7.2486 11.6869 8.1336 11.9281C8.9761 12.1581 9.7711 12.375 10.6248 12.375C11.1961 12.375 11.8386 12.2406 12.5348 11.975C13.2742 11.6938 13.7511 11.0037 13.7511 10.2175V5.5C13.7511 5.10188 13.568 4.73563 13.2492 4.49625C12.9373 4.26188 12.5455 4.18813 12.1711 4.29562C11.5142 4.485 10.7948 4.5625 9.68735 4.5625C8.6661 4.5625 7.75172 4.31313 6.86672 4.07188C6.02422 3.84188 5.22922 3.625 4.37547 3.625C3.8036 3.625 3.16172 3.75937 2.46547 4.025C1.7261 4.30625 1.24922 4.99625 1.24922 5.7825V10.5C1.24922 10.8981 1.43235 11.2644 1.7511 11.5038C2.06297 11.7381 2.45485 11.8119 2.8286 11.7038C3.48547 11.5144 4.20547 11.4369 5.31235 11.4369L5.31297 11.4375Z" fill="url(#paint0_linear_997_1735)"/>
</g>
<defs>
<linearGradient id="paint0_linear_997_1735" x1="15.0006" y1="2.5" x2="0.000609711" y2="13.5" gradientUnits="userSpaceOnUse">
<stop stop-color="#667980"/>
<stop offset="0.484375" stop-color="#667983"/>
<stop offset="1" stop-color="#4C77B2"/>
</linearGradient>
<clipPath id="clip0_997_1735">
<rect width="15" height="15" fill="white" transform="translate(0.000488281 0.5)"/>
</clipPath>
</defs>
</svg>
