<svg width="64" height="64" viewBox="0 0 64 64" fill="none" xmlns="http://www.w3.org/2000/svg">
<g clip-path="url(#clip0_3_4468)">
<path d="M53.9995 2.66602H44.666C43.562 2.66602 42.666 3.56201 42.666 4.66602V13.6797C42.666 14.2129 42.8794 14.7275 43.2607 15.1011L52.5942 24.3276C52.9756 24.7061 53.4849 24.9062 53.9995 24.9062C54.2607 24.9062 54.522 24.8555 54.77 24.7515C55.5142 24.4424 55.9995 23.7144 55.9995 22.9062V4.66602C55.9995 3.56201 55.1035 2.66602 53.9995 2.66602Z" fill="#313C4E"/>
<path d="M64 31.3334C64 33.1732 62.5068 34.6664 60.6665 34.6664H56L32 11.3334L8 34.6664H3.3335C1.49316 34.6664 0 33.1732 0 31.3334C0 30.453 0.34668 29.5731 0.986816 28.9598L30.6133 0.559937C31.3867 -0.186646 32.6133 -0.186646 33.3867 0.559937L62.9868 28.933C63.6533 29.5731 64 30.453 64 31.3334Z" fill="#313C4E"/>
<path d="M32 11.334L8 34.667V58.667C8 61.6006 10.3999 64.0005 13.3335 64.0005H50.6665C53.6001 64.0005 56 61.6006 56 58.667V34.667L32 11.334Z" fill="#ECEFF1"/>
<path d="M24 42.666H40V63.9995H24V42.666Z" fill="#C5BFBF"/>
</g>
<defs>
<clipPath id="clip0_3_4468">
<rect width="64" height="64" fill="white"/>
</clipPath>
</defs>
</svg>
