<svg width="80" height="80" viewBox="0 0 80 80" fill="none" xmlns="http://www.w3.org/2000/svg">
<path d="M25.4541 38.5464C25.4541 37.7424 24.8035 37.0918 23.9995 37.0918C23.1955 37.0918 22.5449 37.7424 22.5449 38.5464C22.5449 42.3659 26.758 47.6103 27.2382 48.197C27.5266 48.5465 27.9441 48.7283 28.3645 48.7283C28.6884 48.7283 29.0151 48.6203 29.2863 48.3987C29.9071 47.8887 29.9965 46.9726 29.488 46.3504C27.9286 44.4498 25.4541 40.6514 25.4541 38.5464Z" fill="#B4975A"/>
<path d="M56.0003 37.0918C55.1963 37.0918 54.5457 37.7424 54.5457 38.5464C54.5457 40.6443 52.0713 44.447 50.5117 46.3518C50.0032 46.9726 50.094 47.8888 50.7149 48.3987C50.9847 48.6203 51.3115 48.7283 51.6367 48.7283C52.0571 48.7283 52.4733 48.5465 52.7617 48.197C53.2418 47.6103 57.4549 42.3661 57.4549 38.5464C57.4549 37.7424 56.8043 37.0918 56.0003 37.0918Z" fill="#B4975A"/>
<path d="M39.9995 37.0918C39.1955 37.0918 38.5449 37.7424 38.5449 38.5464V47.2737C38.5449 48.0777 39.1955 48.7283 39.9995 48.7283C40.8035 48.7283 41.4541 48.0777 41.4541 47.2737V38.5464C41.454 37.7424 40.8034 37.0918 39.9995 37.0918Z" fill="#B4975A"/>
<path d="M56 13.8182C55.1186 13.8182 54.1975 13.9348 53.2409 14.1125C50.0373 10.378 45.2949 8 40.0001 8C34.7052 8 29.9627 10.378 26.7593 14.1124C25.8026 13.9348 24.8814 13.8181 24.0001 13.8181C15.1775 13.8182 8 20.9957 8 29.8182C8 35.8636 11.4091 41.3593 16.7614 44.0767L16.733 66.0582C16.7316 67.6448 17.348 69.1364 18.4688 70.2585C19.5909 71.3821 21.081 72 22.6677 72H57.3382C60.6109 72 63.2729 69.338 63.2729 66.0653V44.0554C68.6052 41.331 72.0002 35.8437 72.0002 29.8182C72 20.9957 64.8225 13.8182 56 13.8182ZM60.3637 66.0654C60.3637 67.733 59.0058 69.0911 57.3381 69.0911H22.6676C21.8593 69.0911 21.0994 68.7757 20.5269 68.2034C19.9558 67.6309 19.6406 66.8709 19.6419 66.0614L19.6496 60.3637H60.3637V66.0654ZM61.2642 41.7912C61.1875 41.8224 61.1151 41.8594 61.0469 41.9034C60.8636 42.017 60.7131 42.1677 60.6008 42.3409C60.4872 42.5127 60.4105 42.7117 60.3792 42.9247C60.3664 43.0057 60.3622 43.0867 60.3636 43.169V57.4545H19.6532L19.6719 43.1888C19.6733 43.1093 19.6691 43.0283 19.6577 42.9502C19.6265 42.7299 19.5455 42.5254 19.4276 42.3478C19.3167 42.1816 19.1719 42.0368 18.9957 41.9259C18.9233 41.8805 18.8465 41.8407 18.767 41.808C13.9929 39.7202 10.909 35.0184 10.909 29.8182C10.909 22.5994 16.7813 16.7273 24 16.7273C24.2821 16.7273 24.5799 16.7614 24.8722 16.7844C23.4005 19.3421 22.5454 22.2976 22.5454 25.4546C22.5454 26.2586 23.196 26.9092 24 26.9092C24.804 26.9092 25.4546 26.2586 25.4546 25.4546C25.4546 17.4346 31.9801 10.909 40.0001 10.909C48.02 10.909 54.5455 17.4346 54.5455 25.4546C54.5455 26.2586 55.196 26.9092 56 26.9092C56.8041 26.9092 57.4546 26.2586 57.4546 25.4546C57.4546 22.2976 56.5995 19.3422 55.1279 16.7844C55.4201 16.7614 55.7179 16.7273 56 16.7273C63.2189 16.7273 69.091 22.5995 69.091 29.8182C69.091 35 66.0199 39.696 61.2642 41.7912Z" fill="#3C4558"/>
</svg>
