<svg width="80" height="80" viewBox="0 0 80 80" fill="none" xmlns="http://www.w3.org/2000/svg">
<path d="M62.4622 49.5516C62.0985 49.5511 61.7498 49.4065 61.4926 49.1494C61.2355 48.8924 61.0908 48.5439 61.0902 48.1804V42.0591C61.0908 41.6956 61.2355 41.3472 61.4926 41.0901C61.7498 40.8331 62.0985 40.6885 62.4622 40.6879H66.3801C66.5063 40.688 66.63 40.6523 66.7369 40.5852C66.8438 40.518 66.9295 40.422 66.9842 40.3082C67.0388 40.1945 67.0602 40.0676 67.0459 39.9422C67.0315 39.8168 66.982 39.6981 66.903 39.5996L61.3902 32.7127C61.1965 32.4692 61.0908 32.1674 61.0902 31.8562V13.4903C61.0902 13.3126 61.0197 13.1422 60.8941 13.0164C60.7684 12.8907 60.598 12.8199 60.4202 12.8197L56.3004 12.8516C56.1231 12.8532 55.9537 12.9249 55.8291 13.0509C55.7045 13.1769 55.6349 13.3471 55.6354 13.5242L55.6674 23.2944C55.6669 23.5752 55.5801 23.849 55.4189 24.0789C55.2576 24.3089 55.0296 24.4838 54.7657 24.58C54.5018 24.6763 54.2147 24.6892 53.9431 24.6171C53.6716 24.545 53.4288 24.3913 53.2475 24.1768L42.8718 11.9172C42.8516 11.8928 42.8296 11.8701 42.8058 11.8492C42.032 11.1615 41.0325 10.7815 39.9969 10.7815C38.9613 10.7815 37.9618 11.1615 37.188 11.8492C37.1658 11.8687 37.1451 11.8898 37.126 11.9122L33.2461 16.4195C33.1165 16.5692 32.9562 16.6892 32.7761 16.7715C32.5959 16.8537 32.4002 16.8963 32.2022 16.8962C31.876 16.8964 31.5607 16.7789 31.3142 16.5654C31.039 16.3283 30.8692 15.9918 30.8418 15.6296C30.8144 15.2675 30.9318 14.9094 31.1682 14.6336L35.1251 10.0363C35.1565 10.0012 35.1899 9.96782 35.2251 9.93639C36.5177 8.71901 38.2268 8.04102 40.0029 8.04102C41.779 8.04102 43.4881 8.71901 44.7807 9.93639C44.8168 9.97007 44.8503 10.0065 44.8807 10.0453L51.7405 18.1515C51.8291 18.2564 51.9479 18.3316 52.0807 18.3668C52.2135 18.402 52.3539 18.3955 52.483 18.3483C52.612 18.3011 52.7233 18.2153 52.802 18.1027C52.8806 17.9901 52.9227 17.856 52.9225 17.7187V13.4903C52.9235 12.5949 53.2796 11.7364 53.9128 11.1028C54.5459 10.4693 55.4045 10.1124 56.3004 10.1103H60.4482C61.3449 10.1113 62.2044 10.4678 62.8384 11.1014C63.4724 11.7351 63.8291 12.5942 63.8301 13.4903V31.1407C63.8298 31.2926 63.8817 31.4401 63.9771 31.5584L71.6999 41.2016C71.8612 41.4035 71.9623 41.6467 71.9914 41.9034C72.0206 42.1601 71.9766 42.4198 71.8646 42.6526C71.7526 42.8855 71.5772 43.082 71.3584 43.2195C71.1396 43.3571 70.8864 43.4302 70.6279 43.4303H64.5001C64.3224 43.4303 64.152 43.5008 64.0264 43.6264C63.9007 43.752 63.8301 43.9223 63.8301 44.0999V48.1804C63.8296 48.5433 63.6854 48.8911 63.4291 49.148C63.1728 49.4049 62.8252 49.55 62.4622 49.5516Z" fill="#3C4558"/>
<path d="M19.5823 71.9987C18.6773 71.9976 17.8097 71.6378 17.1699 70.9981C16.53 70.3584 16.1702 69.4912 16.1694 68.5867V44.1014C16.1694 43.9238 16.0989 43.7535 15.9732 43.6279C15.8476 43.5024 15.6772 43.4318 15.4995 43.4318H9.37366C9.11056 43.4321 8.85291 43.3569 8.63143 43.2149C8.40994 43.073 8.23396 42.8704 8.12447 42.6313C8.01497 42.3922 7.97656 42.1267 8.01384 41.8664C8.05111 41.6061 8.16249 41.362 8.3347 41.1632L15.3595 33.0011C15.5968 32.7259 15.9337 32.5562 16.2961 32.5292C16.6586 32.5022 17.0169 32.6202 17.2924 32.8572C17.429 32.9745 17.541 33.1176 17.6222 33.2783C17.7034 33.439 17.7521 33.6141 17.7656 33.7936C17.7791 33.9731 17.757 34.1534 17.7007 34.3244C17.6444 34.4954 17.5549 34.6536 17.4374 34.79L13.3135 39.5811C13.2303 39.6784 13.1767 39.7975 13.159 39.9243C13.1413 40.051 13.1603 40.1802 13.2137 40.2966C13.2671 40.4129 13.3528 40.5115 13.4605 40.5808C13.5682 40.6501 13.6934 40.6871 13.8215 40.6875H17.5414C17.905 40.688 18.2536 40.8327 18.5106 41.0897C18.7676 41.3468 18.9121 41.6952 18.9124 42.0586V68.5867C18.9122 68.6747 18.9295 68.7619 18.9631 68.8433C18.9967 68.9246 19.046 68.9986 19.1082 69.0608C19.1705 69.1231 19.2444 69.1725 19.3257 69.2063C19.4071 69.24 19.4943 69.2573 19.5823 69.2573H46.1265C46.3097 69.2524 46.4921 69.2842 46.6628 69.3508C46.8335 69.4175 46.9891 69.5177 47.1205 69.6454C47.2518 69.7732 47.3562 69.926 47.4275 70.0947C47.4988 70.2635 47.5355 70.4448 47.5355 70.628C47.5355 70.8112 47.4988 70.9925 47.4275 71.1613C47.3562 71.33 47.2518 71.4828 47.1205 71.6106C46.9891 71.7383 46.8335 71.8385 46.6628 71.9052C46.4921 71.9718 46.3097 72.0036 46.1265 71.9987H19.5823Z" fill="#3C4558"/>
<path d="M58.3777 71.9995C58.1945 72.0044 58.0122 71.9726 57.8415 71.906C57.6707 71.8393 57.5151 71.7392 57.3838 71.6114C57.2524 71.4836 57.148 71.3308 57.0768 71.1621C57.0055 70.9933 56.9688 70.812 56.9688 70.6288C56.9688 70.4456 57.0055 70.2643 57.0768 70.0955C57.148 69.9268 57.2524 69.774 57.3838 69.6462C57.5151 69.5185 57.6707 69.4183 57.8415 69.3516C58.0122 69.285 58.1945 69.2532 58.3777 69.2581H60.4197C60.5077 69.2581 60.5949 69.2408 60.6763 69.2071C60.7576 69.1734 60.8315 69.1239 60.8938 69.0617C60.956 68.9994 61.0053 68.9254 61.0389 68.8441C61.0726 68.7627 61.0898 68.6756 61.0897 68.5875V64.504C61.0897 64.1403 61.2342 63.7916 61.4915 63.5344C61.7488 63.2773 62.0977 63.1328 62.4616 63.1328C62.8255 63.1328 63.1744 63.2773 63.4317 63.5344C63.689 63.7916 63.8336 64.1403 63.8336 64.504V68.5845C63.8333 69.4896 63.4736 70.3576 62.8336 70.9979C62.1935 71.6382 61.3253 71.9984 60.4197 71.9995H58.3777Z" fill="#3C4558"/>
<path d="M52.2524 71.9987C51.8887 71.9982 51.54 71.8535 51.2829 71.5965C51.0257 71.3395 50.881 70.991 50.8804 70.6275C50.8804 62.4215 46.1716 57.7143 37.9598 57.7143C37.596 57.7143 37.247 57.5698 36.9897 57.3127C36.7324 57.0555 36.5879 56.7068 36.5879 56.3431C36.5879 55.9794 36.7324 55.6307 36.9897 55.3735C37.247 55.1164 37.596 54.9719 37.9598 54.9719C46.1716 54.9719 50.8804 50.2657 50.8804 42.0587C50.8804 41.695 51.025 41.3463 51.2823 41.0891C51.5396 40.832 51.8885 40.6875 52.2524 40.6875C52.6163 40.6875 52.9652 40.832 53.2225 41.0891C53.4798 41.3463 53.6243 41.695 53.6243 42.0587C53.6243 50.2657 58.3342 54.9719 66.5459 54.9719C66.9098 54.9719 67.2588 55.1164 67.5161 55.3735C67.7733 55.6307 67.9179 55.9794 67.9179 56.3431C67.9179 56.7068 67.7733 57.0555 67.5161 57.3127C67.2588 57.5698 66.9098 57.7143 66.5459 57.7143C58.3342 57.7143 53.6243 62.4215 53.6243 70.6275C53.6238 70.991 53.4791 71.3395 53.2219 71.5965C52.9647 71.8535 52.6161 71.9982 52.2524 71.9987ZM52.2524 50.1808C52.132 50.1808 52.0138 50.2133 51.9103 50.2749C51.8068 50.3364 51.7218 50.4248 51.6644 50.5306C50.4685 52.7442 48.6514 54.5603 46.4366 55.7555C46.3307 55.8129 46.2424 55.8978 46.1808 56.0012C46.1192 56.1046 46.0867 56.2227 46.0867 56.3431C46.0867 56.4635 46.1192 56.5816 46.1808 56.685C46.2424 56.7884 46.3307 56.8733 46.4366 56.9307C48.6513 58.1266 50.4683 59.9429 51.6644 62.1566C51.7222 62.2621 51.8074 62.3501 51.9109 62.4114C52.0144 62.4727 52.1325 62.5051 52.2529 62.5051C52.3732 62.5051 52.4914 62.4727 52.5949 62.4114C52.6984 62.3501 52.7836 62.2621 52.8414 62.1566C54.0364 59.9421 55.8537 58.1255 58.0692 56.9307C58.1748 56.8731 58.2629 56.7881 58.3243 56.6847C58.3856 56.5813 58.418 56.4633 58.418 56.3431C58.418 56.2229 58.3856 56.1049 58.3243 56.0015C58.2629 55.8981 58.1748 55.8131 58.0692 55.7555C55.8543 54.5603 54.0372 52.7442 52.8414 50.5306C52.7837 50.4248 52.6986 50.3365 52.5949 50.2749C52.4913 50.2133 52.373 50.1808 52.2524 50.1808Z" fill="#B4975A"/>
<path d="M21.6245 35.2667C21.2611 35.2661 20.9127 35.1216 20.6557 34.8648C20.3987 34.6079 20.2541 34.2597 20.2536 33.8965C20.3027 32.4556 20.0548 31.0199 19.5254 29.6788C18.9959 28.3376 18.1962 27.1196 17.1759 26.1003C16.1556 25.0811 14.9365 24.2824 13.5944 23.7539C12.2522 23.2253 10.8156 22.9783 9.37391 23.028C9.01004 23.028 8.66108 22.8836 8.40379 22.6264C8.1465 22.3693 8.00195 22.0205 8.00195 21.6568C8.00195 21.2932 8.1465 20.9444 8.40379 20.6873C8.66108 20.4301 9.01004 20.2857 9.37391 20.2857C10.8164 20.3355 12.2538 20.0882 13.5966 19.5591C14.9394 19.03 16.1589 18.2305 17.1793 17.2103C18.1998 16.1901 18.9993 14.9709 19.5281 13.6287C20.057 12.2865 20.3039 10.8499 20.2536 9.40819C20.2486 9.22508 20.2804 9.04283 20.3471 8.87221C20.4138 8.70159 20.514 8.54605 20.6419 8.41478C20.7697 8.28352 20.9226 8.17919 21.0914 8.10795C21.2603 8.0367 21.4417 8 21.625 8C21.8083 8 21.9897 8.0367 22.1586 8.10795C22.3274 8.17919 22.4803 8.28352 22.6081 8.41478C22.736 8.54605 22.8362 8.70159 22.9029 8.87221C22.9696 9.04283 23.0014 9.22508 22.9965 9.40819C22.9468 10.8495 23.1942 12.2855 23.7234 13.6272C24.2526 14.9688 25.0522 16.1873 26.0726 17.207C27.093 18.2267 28.3122 19.0257 29.6547 19.5545C30.9971 20.0833 32.434 20.3304 33.8761 20.2807C34.24 20.2807 34.589 20.4251 34.8462 20.6823C35.1035 20.9394 35.2481 21.2882 35.2481 21.6518C35.2481 22.0155 35.1035 22.3643 34.8462 22.6214C34.589 22.8786 34.24 23.023 33.8761 23.023C32.4344 22.9739 30.9979 23.2217 29.656 23.7508C28.3141 24.2799 27.0953 25.0792 26.0755 26.0989C25.0557 27.1186 24.2565 28.337 23.7277 29.6784C23.1989 31.0198 22.9517 32.4556 23.0015 33.8965C23.0012 34.0769 22.9654 34.2554 22.896 34.4219C22.8266 34.5884 22.7251 34.7396 22.5972 34.8669C22.4693 34.9942 22.3176 35.095 22.1507 35.1636C21.9838 35.2322 21.805 35.2672 21.6245 35.2667ZM21.6245 16.3111C21.5089 16.311 21.3953 16.3409 21.2947 16.3978C21.1941 16.4548 21.11 16.5368 21.0505 16.6359C19.9519 18.4568 18.4246 19.9818 16.6017 21.0782C16.5025 21.1377 16.4204 21.2218 16.3634 21.3225C16.3064 21.4231 16.2764 21.5367 16.2764 21.6523C16.2764 21.768 16.3064 21.8816 16.3634 21.9822C16.4204 22.0829 16.5025 22.167 16.6017 22.2265C18.4236 23.3225 19.9495 24.8472 21.0465 26.6678C21.1061 26.767 21.1903 26.849 21.2909 26.906C21.3916 26.963 21.5053 26.9929 21.621 26.9929C21.7367 26.9929 21.8504 26.963 21.9511 26.906C22.0518 26.849 22.136 26.767 22.1955 26.6678C23.2932 24.8473 24.8203 23.3232 26.6434 22.2285C26.7426 22.169 26.8246 22.0849 26.8816 21.9842C26.9386 21.8836 26.9686 21.77 26.9686 21.6543C26.9686 21.5387 26.9386 21.4251 26.8816 21.3245C26.8246 21.2238 26.7426 21.1397 26.6434 21.0802C24.8218 19.9818 23.2968 18.4546 22.2015 16.6319C22.142 16.5326 22.0577 16.4505 21.9569 16.3936C21.8561 16.3367 21.7423 16.3068 21.6265 16.3071L21.6245 16.3111Z" fill="#B4975A"/>
</svg>
