<svg width="80" height="80" viewBox="0 0 80 80" fill="none" xmlns="http://www.w3.org/2000/svg">
<path d="M69.5521 33.0637L68.1573 31.4526L63.2615 17.0575C62.4274 14.626 60.294 13.0149 57.9145 13H22.947C20.5675 13 18.4342 14.626 17.6 17.0575L12.7726 31.2736L10.7624 33.3024C9.01197 34.9283 8 37.3151 8 39.8212V60.7948C8.01368 64.2258 10.5709 67.0004 13.7162 67.0004H17.3265C20.4718 67.0004 23.0291 64.2258 23.0427 60.7948V57.7517H56.9573V60.7948C56.9709 64.2258 59.5282 67.0004 62.6735 67.0004H66.2838C69.4291 67.0004 71.9863 64.2258 72 60.7948V39.2693C71.9863 36.9272 71.1111 34.6897 69.5521 33.0637ZM20.1709 18.0719C20.6085 16.8039 21.7162 15.9834 22.947 15.9834H57.9282C59.159 15.9834 60.2667 16.8188 60.7043 18.0719L64.9709 30.6023H61.7846C61.0325 25.0084 56.2598 21.1448 51.1316 21.9802C47.0427 22.6365 43.8291 26.1421 43.2274 30.6023H15.9043L20.1709 18.0719ZM58.9949 30.6023H45.9897C46.7419 26.6791 50.2701 24.173 53.8667 24.9935C56.4376 25.5901 58.4479 27.783 58.9949 30.6023ZM20.3077 60.7948C20.294 62.5849 18.9675 64.017 17.3265 64.017H13.7162C12.0752 64.017 10.7487 62.5849 10.735 60.7948V56.8865C11.5556 57.4683 12.6359 57.7517 13.7162 57.7517H20.3077V60.7948ZM69.265 60.7948C69.2513 62.5849 67.9248 64.017 66.2838 64.017H62.6735C61.0325 64.017 59.706 62.57 59.6923 60.7948V57.7517H66.2838C67.3641 57.7517 68.4444 57.4683 69.265 56.8865V60.7948ZM66.2838 54.7683H13.7162C12.0889 54.7832 10.7487 53.366 10.735 51.576V39.8212C10.735 38.1803 11.4051 36.614 12.5538 35.5549C12.5675 35.5399 12.5949 35.5101 12.6085 35.4952L14.4684 33.5858H66.2564L67.5692 35.1223C67.5829 35.1521 67.6239 35.167 67.6376 35.1968C68.6632 36.256 69.2513 37.7328 69.2513 39.2693V51.576H69.265C69.2513 53.3511 67.9111 54.7832 66.2838 54.7683Z" fill="#3C4558"/>
<path d="M26.0517 39.6055H15.7953C15.0431 39.6055 14.4277 40.2767 14.4277 41.0972V48.8542C14.4277 49.6746 15.0431 50.3459 15.7953 50.3459H26.0517C26.8038 50.3459 27.4192 49.6746 27.4192 48.8542V41.0972C27.4192 40.2767 26.8038 39.6055 26.0517 39.6055ZM24.6841 47.3624H17.1628V42.5889H24.6841V47.3624Z" fill="#B4975A"/>
<path d="M64.206 39.6055H53.9496C53.1974 39.6055 52.582 40.2767 52.582 41.0972V48.8542C52.582 49.6746 53.1974 50.3459 53.9496 50.3459H64.206C64.9581 50.3459 65.5735 49.6746 65.5735 48.8542V41.0972C65.5735 40.2767 64.9581 39.6055 64.206 39.6055ZM62.8384 47.3624H55.3171V42.5889H62.8384V47.3624Z" fill="#B4975A"/>
<path d="M46.6051 45.8711H33.3949C32.6427 45.8711 32.0273 46.5424 32.0273 47.3628C32.0273 48.1833 32.6427 48.8545 33.3949 48.8545H46.6051C47.3573 48.8545 47.9726 48.1833 47.9726 47.3628C47.9726 46.5424 47.3573 45.8711 46.6051 45.8711Z" fill="#3C4558"/>
<path d="M46.6051 41.2461H33.3949C32.6427 41.2461 32.0273 41.9174 32.0273 42.7378C32.0273 43.5583 32.6427 44.2295 33.3949 44.2295H46.6051C47.3573 44.2295 47.9726 43.5583 47.9726 42.7378C47.9726 41.9174 47.3573 41.2461 46.6051 41.2461Z" fill="#3C4558"/>
</svg>
