<svg width="16" height="22" viewBox="0 0 16 22" xmlns="http://www.w3.org/2000/svg">
<path d="M10.5024 22C9.03236 21.9988 7.57889 21.6747 6.23579 21.0485C4.89269 20.4224 3.68981 19.5081 2.70477 18.3647C1.7123 17.2199 0.963486 15.8671 0.508025 14.396C0.0525632 12.9248 -0.0991354 11.369 0.0629937 9.83179C0.324375 7.43941 1.32037 5.20075 2.90103 3.45285C4.4817 1.70496 6.56147 0.542431 8.82722 0.140302C10.2919 -0.0967606 11.7867 -0.0329388 13.2281 0.32821C13.6056 0.429826 13.9503 0.635283 14.2265 0.923321C14.5027 1.21136 14.7005 1.57151 14.7993 1.96652C14.8982 2.36152 14.8945 2.77702 14.7887 3.17003C14.6828 3.56304 14.4787 3.91927 14.1974 4.20187C10.2085 8.02053 10.5549 13.9584 14.9033 17.4104C15.2108 17.6633 15.4479 17.9979 15.5901 18.3794C15.7323 18.7609 15.7744 19.1753 15.7118 19.5796C15.6493 19.9839 15.4845 20.3633 15.2347 20.6782C14.9848 20.9931 14.6589 21.2321 14.291 21.3703C13.0679 21.789 11.7891 22.0016 10.5024 22Z" />
</svg>
