<svg width="80" height="80" viewBox="0 0 80 80" fill="none" xmlns="http://www.w3.org/2000/svg">
<path d="M36.3919 64.2456C35.5908 61.748 34.1776 59.4884 32.3056 57.7113C31.1002 56.5679 29.5376 55.8685 27.905 55.7445L23.7728 55.4332C23.1769 55.3886 22.5965 55.2348 22.0478 54.9768L17.2807 52.7347C16.5167 52.3738 15.6617 52.3403 14.8692 52.6392C14.3099 52.8488 13.8318 53.2059 13.4747 53.671L9.05231 49.147C7.95355 48.0582 6.26323 47.9577 5.05347 48.8853L4.91334 48.9982C3.66823 50.0684 3.44501 51.9547 4.40488 53.2927L12.8478 65.0504C14.0073 66.6651 15.7838 67.7055 17.7209 67.9052L26.5904 68.8167C27.2247 68.8824 27.8126 69.1912 28.2466 69.686C28.5027 69.9787 28.6379 70.3148 28.7631 70.9695C28.8469 71.4086 28.8989 71.8538 28.9386 72.3039L29.4998 78.4339C29.5599 79.0936 30.1137 79.5884 30.7629 79.5884C30.8013 79.5884 30.8404 79.5872 30.8801 79.5835C31.5783 79.519 32.0929 78.9014 32.0284 78.2032L31.4679 72.0782C31.4214 71.5462 31.3581 71.0167 31.2577 70.4921C31.1021 69.6798 30.8615 68.8179 30.1571 68.0131C29.2995 67.0346 28.1263 66.422 26.8515 66.2893L17.9801 65.3778C16.7654 65.2538 15.6468 64.594 14.9107 63.5697L6.46847 51.812C6.27811 51.5467 6.31532 51.1635 6.54784 50.9439L6.57017 50.9241C6.78037 50.7455 7.06622 50.7542 7.24977 50.9365L13.1576 56.9809C13.7213 57.7756 17.2128 62.3159 23.3214 62.3159C23.3338 62.3159 23.3474 62.3159 23.3598 62.3159C24.0611 62.3134 24.6285 61.743 24.626 61.0423C24.6235 60.3416 24.0556 59.7761 23.3561 59.7761C23.3462 59.7811 23.3332 59.7761 23.322 59.7761C19.1049 59.7761 16.4337 57.0148 15.5314 55.9067L15.413 55.6726C15.3442 55.5361 15.3423 55.5027 15.4 55.37C15.4732 55.2025 15.6027 55.0761 15.7633 55.0153C15.865 54.9768 16.0225 54.9483 16.1986 55.0327L20.967 57.276C21.7973 57.6667 22.6778 57.8986 23.5831 57.9656L27.7127 58.2768C28.7638 58.3574 29.7739 58.8101 30.557 59.5542C32.1208 61.0374 33.3021 62.9285 33.9618 64.9834C34.363 66.3848 34.6557 67.8233 34.8318 69.2594C35.3712 73.6581 35.6565 76.8688 35.636 78.2999C35.6261 79.0019 36.1866 79.5785 36.8873 79.5884C36.8941 79.5884 36.9003 79.5884 36.9065 79.5884C37.5992 79.5884 38.1659 79.0316 38.1758 78.3372C38.2044 76.3591 37.7443 72.1402 37.353 68.9494C37.1608 67.3831 36.8408 65.8131 36.3919 64.2456ZM73.8169 48.9982L73.6768 48.8853C72.4664 47.959 70.7755 48.0606 69.6637 49.1606L65.2556 53.671C64.8984 53.2059 64.4204 52.8488 63.861 52.6392C63.0686 52.3391 62.2129 52.3738 61.4502 52.7335L56.6831 54.9768C56.1337 55.2348 55.5533 55.3886 54.9562 55.4332L50.824 55.7445C49.1926 55.8685 47.6301 56.5679 46.4246 57.7113C44.5526 59.4884 43.1395 61.748 42.3266 64.284C41.8894 65.8131 41.5695 67.3831 41.3773 68.9494C40.986 72.1402 40.5259 76.3591 40.5544 78.3372C40.5643 79.0316 41.1311 79.5884 41.8237 79.5884C41.8299 79.5884 41.8367 79.5884 41.8429 79.5884C42.5436 79.5785 43.1042 79.0019 43.0942 78.2999C43.0738 76.8688 43.359 73.6581 43.8985 69.2594C44.0746 67.8233 44.3672 66.3848 44.7566 65.0219C45.4282 62.9285 46.6094 61.0374 48.1732 59.5542C48.9564 58.8101 49.9665 58.3574 51.0163 58.2768L55.1459 57.9656C56.0525 57.8986 56.933 57.6667 57.7639 57.276L62.5316 55.0314C62.7077 54.9496 62.8658 54.9768 62.9669 55.0153C63.1275 55.0761 63.2571 55.2026 63.3303 55.37C63.3879 55.5027 63.3861 55.5361 63.3172 55.6726L63.2035 55.8975C62.3066 56.991 59.6117 59.7761 55.4076 59.7761C55.3958 59.7761 55.3822 59.7737 55.3741 59.7761C54.6747 59.7761 54.1067 60.3416 54.1042 61.0423C54.1017 61.743 54.6691 62.3134 55.3704 62.3159C55.3828 62.3159 55.3958 62.3159 55.4089 62.3159C61.9593 62.3159 65.5042 57.09 65.6518 56.8668C65.685 56.8169 65.6917 56.7597 65.7169 56.7072L71.4662 50.9501C71.6622 50.753 71.948 50.7443 72.1601 50.9241L72.1805 50.9415C72.4149 51.161 72.4528 51.5454 72.2618 51.812L63.8201 63.5697C63.0835 64.594 61.9649 65.2538 60.7502 65.3778L51.8769 66.2905C50.6039 66.422 49.4307 67.0346 48.5726 68.0143C47.8688 68.8179 47.6282 69.6798 47.4732 70.4909C47.3721 71.0167 47.3089 71.5462 47.263 72.0733L46.7018 78.2032C46.6373 78.9014 47.152 79.519 47.8502 79.5835C47.8899 79.5872 47.9289 79.5884 47.9674 79.5884C48.6166 79.5884 49.1703 79.0936 49.2305 78.4339L49.7922 72.299C49.8313 71.8538 49.8834 71.4086 49.9677 70.9683C50.0924 70.3148 50.2275 69.9787 50.483 69.6873C50.9177 69.1912 51.5055 68.8824 52.138 68.8167L61.0093 67.9052C62.9464 67.7055 64.7229 66.6651 65.8831 65.0504L74.3254 53.2927C75.2852 51.9547 75.062 50.0684 73.8169 48.9982Z" fill="#B4975A"/>
<path d="M27.7479 21.0522C21.8883 21.0522 21.8883 17.2736 21.8883 14.5145C21.8883 10.5443 24.5712 7.19141 27.7479 7.19141C30.9247 7.19141 33.6076 10.5449 33.6076 14.5145C33.6062 17.2736 33.6062 21.0522 27.7479 21.0522ZM27.7479 9.50974C25.8726 9.50974 24.1639 11.8953 24.1639 14.5145C24.1639 17.6497 24.3374 18.7338 27.7479 18.7338C31.1585 18.7338 31.332 17.6497 31.332 14.5145C31.3306 11.8953 29.623 9.50974 27.7479 9.50974ZM33.9763 34.9996C33.7847 34.9996 33.5938 34.9771 33.4074 34.9323C32.102 34.6269 30.8228 34.2151 29.5821 33.701C25.4291 31.9707 22.613 29.4576 20.1622 25.2988C20.0069 25.0352 19.9608 24.7195 20.0339 24.4212C20.1071 24.1229 20.2936 23.8665 20.5523 23.7082C20.8111 23.55 21.121 23.503 21.4137 23.5776C21.7065 23.6521 21.9583 23.8421 22.1136 24.1057C24.2916 27.8014 26.7831 30.0293 30.4457 31.5557C31.5752 32.0233 32.7398 32.3976 33.9282 32.6751C33.9523 32.6811 33.9773 32.682 34.0017 32.6779C34.0262 32.6737 34.0495 32.6646 34.0704 32.6511C34.092 32.6376 34.1106 32.6199 34.1253 32.5989C34.1399 32.578 34.1503 32.5542 34.1558 32.5291C34.1595 32.5139 34.1613 32.4983 34.1612 32.4827C34.161 32.4423 34.1485 32.4029 34.1256 32.3699C34.1026 32.337 34.0703 32.312 34.0329 32.2984C31.7827 31.5433 29.6896 30.3691 27.8603 28.8354C26.1133 27.3146 24.7447 25.3939 23.8666 23.2305C23.7528 22.9482 23.7529 22.6315 23.8668 22.3492C23.9808 22.0669 24.1995 21.8418 24.4753 21.7227C24.7512 21.6037 25.0621 21.6003 25.3404 21.7133C25.6187 21.8263 25.842 22.0466 25.9619 22.3264C26.7029 24.1565 27.8589 25.7818 29.3352 27.0691C30.948 28.4147 32.7917 29.4442 34.7727 30.1053C35.2592 30.2721 35.6818 30.5905 35.981 31.0154C36.2801 31.4403 36.4407 31.9502 36.4399 32.4732C36.4398 32.6699 36.4174 32.8661 36.3733 33.0577C36.2466 33.6089 35.941 34.1005 35.506 34.4528C35.071 34.8052 34.532 34.998 33.9763 34.9996Z" fill="#3C4558"/>
<path d="M26.7161 52C25.9034 51.9991 25.1243 51.6805 24.5496 51.1141C23.975 50.5477 23.6517 49.7798 23.6507 48.9788V37.8604C23.6507 37.6617 23.5706 37.4711 23.4281 37.3306C23.2855 37.1901 23.0922 37.1112 22.8906 37.1112C22.689 37.1112 22.4957 37.1901 22.3531 37.3306C22.2106 37.4711 22.1305 37.6617 22.1305 37.8604V48.9788C22.1227 49.775 21.7963 50.536 21.2223 51.0963C20.6483 51.6567 19.8731 51.971 19.0653 51.971C18.2574 51.971 17.4822 51.6567 16.9082 51.0963C16.3342 50.536 16.0078 49.775 16 48.9788V24.6633C16 20.3789 17.7438 17.7606 19.2066 16.3188C19.424 16.1119 19.7151 15.9974 20.0173 16C20.3195 16.0027 20.6085 16.1222 20.8222 16.3329C21.0358 16.5435 21.157 16.8285 21.1596 17.1263C21.1621 17.4242 21.0459 17.7111 20.8359 17.9254C19.1798 19.5578 18.3045 21.8878 18.3045 24.6633V48.9788C18.3083 49.175 18.3901 49.3619 18.5323 49.4993C18.6744 49.6367 18.8656 49.7137 19.0647 49.7137C19.2638 49.7137 19.4549 49.6367 19.5971 49.4993C19.7392 49.3619 19.821 49.175 19.8249 48.9788V37.8604C19.8249 37.0591 20.1478 36.2906 20.7227 35.724C21.2975 35.1574 22.0771 34.8391 22.89 34.8391C23.7029 34.8391 24.4826 35.1574 25.0574 35.724C25.6322 36.2906 25.9551 37.0591 25.9551 37.8604V48.9788C25.959 49.175 26.0408 49.3619 26.183 49.4993C26.3251 49.6367 26.5163 49.7137 26.7154 49.7137C26.9145 49.7137 27.1056 49.6367 27.2478 49.4993C27.3899 49.3619 27.4717 49.175 27.4756 48.9788V34.0897C27.4756 33.7884 27.597 33.4994 27.8131 33.2864C28.0293 33.0733 28.3224 32.9536 28.6281 32.9536C28.9338 32.9536 29.2269 33.0733 29.443 33.2864C29.6592 33.4994 29.7806 33.7884 29.7806 34.0897V48.9788C29.7797 49.7797 29.4566 50.5475 28.8821 51.1139C28.3076 51.6803 27.5286 51.9989 26.7161 52ZM36.2796 52C35.974 52 35.6808 51.8803 35.4647 51.6673C35.2485 51.4542 35.1271 51.1653 35.1271 50.864V34.5622C35.1291 34.4626 35.1109 34.3636 35.0736 34.271C35.0362 34.1784 34.9806 34.094 34.9098 34.0229C34.839 33.9517 34.7545 33.8952 34.6613 33.8566C34.5681 33.818 34.468 33.7982 34.3669 33.7982C34.2658 33.7982 34.1657 33.818 34.0725 33.8566C33.9793 33.8952 33.8948 33.9517 33.824 34.0229C33.7532 34.094 33.6976 34.1784 33.6602 34.271C33.6229 34.3636 33.6047 34.4626 33.6067 34.5622C33.6067 34.8635 33.4852 35.1525 33.2691 35.3655C33.053 35.5786 32.7598 35.6982 32.4542 35.6982C32.1485 35.6982 31.8553 35.5786 31.6392 35.3655C31.4231 35.1525 31.3016 34.8635 31.3016 34.5622C31.2977 34.163 31.3741 33.767 31.5264 33.397C31.6787 33.027 31.9038 32.6905 32.1888 32.4068C32.4739 32.1231 32.8131 31.8979 33.187 31.7442C33.5608 31.5906 33.9618 31.5114 34.3669 31.5114C34.7719 31.5114 35.173 31.5906 35.5468 31.7442C35.9207 31.8979 36.2599 32.1231 36.5449 32.4068C36.83 32.6905 37.0551 33.027 37.2074 33.397C37.3597 33.767 37.4361 34.163 37.4321 34.5622V50.864C37.4321 51.1653 37.3107 51.4542 37.0946 51.6673C36.8784 51.8803 36.5853 52 36.2796 52Z" fill="#3C4558"/>
<path d="M28.1701 28.4053C27.8598 28.4053 27.5621 28.2871 27.3427 28.0767C27.1233 27.8662 27 27.5809 27 27.2833V19.4169C27 19.1193 27.1233 18.8339 27.3427 18.6235C27.5621 18.4131 27.8598 18.2949 28.1701 18.2949C28.4804 18.2949 28.778 18.4131 28.9975 18.6235C29.2169 18.8339 29.3402 19.1193 29.3402 19.4169V27.2833C29.3402 27.5809 29.2169 27.8662 28.9975 28.0767C28.778 28.2871 28.4804 28.4053 28.1701 28.4053Z" fill="#3C4558"/>
<path d="M49.2237 34.4022C53.2133 34.4022 56.4474 37.8938 56.4474 42.2011C56.4474 46.5082 53.2133 50 49.2237 50C45.2341 50 42 46.5082 42 42.2011C42 37.8938 45.2341 34.4022 49.2237 34.4022Z" stroke="#3C4558" stroke-width="2" stroke-miterlimit="10" stroke-linecap="round" stroke-linejoin="round"/>
<path d="M49.2235 40.2292C50.2313 40.2292 51.0485 41.1113 51.0485 42.1996C51.0485 43.2877 50.2313 44.1699 49.2235 44.1699C48.2156 44.1699 47.3984 43.2877 47.3984 42.1996C47.3984 41.1113 48.2156 40.2292 49.2235 40.2292Z" stroke="#3C4558" stroke-width="2" stroke-miterlimit="10" stroke-linecap="round" stroke-linejoin="round"/>
<path d="M49.2227 34.4021V29.6506H61.0143C62.429 29.6506 63.576 30.8888 63.576 32.4162V39.4609H55.9867C54.9592 36.5057 52.3189 34.4021 49.2227 34.4021Z" stroke="#3C4558" stroke-width="2" stroke-miterlimit="10" stroke-linecap="round" stroke-linejoin="round"/>
<path d="M49.2244 32.793V22.82C49.2244 21.2637 48.0558 20.002 46.6142 20.002H44.9902" stroke="#3C4558" stroke-width="2" stroke-miterlimit="10" stroke-linecap="round" stroke-linejoin="round"/>
<path d="M63.5771 39.461V44.5215" stroke="#3C4558" stroke-width="2" stroke-miterlimit="10" stroke-linecap="round" stroke-linejoin="round"/>
<path d="M63.5801 44.5219C62.179 44.5219 61.043 45.7483 61.043 47.261C61.043 48.7737 62.179 50 63.5801 50C64.9812 50 66.1171 48.7737 66.1171 47.261C66.1171 45.7483 64.9812 44.5219 63.5801 44.5219Z" stroke="#3C4558" stroke-width="2" stroke-miterlimit="10" stroke-linecap="round" stroke-linejoin="round"/>
<path d="M63.5771 42.1992H66.0507C66.3117 42.1992 66.5621 42.0874 66.7467 41.8883L68.9994 39.4593" stroke="#3C4558" stroke-width="2" stroke-miterlimit="10" stroke-linecap="round" stroke-linejoin="round"/>
<path d="M49.2227 40.2285V34.4003" stroke="#3C4558" stroke-width="2" stroke-miterlimit="10" stroke-linecap="round" stroke-linejoin="round"/>
<path d="M47.6442 41.2129L42.9688 38.2987" stroke="#3C4558" stroke-width="2" stroke-miterlimit="10" stroke-linecap="round" stroke-linejoin="round"/>
<path d="M47.6442 43.1854L42.9688 46.0996" stroke="#3C4558" stroke-width="2" stroke-miterlimit="10" stroke-linecap="round" stroke-linejoin="round"/>
<path d="M49.2227 44.1718V50" stroke="#3C4558" stroke-width="2" stroke-miterlimit="10" stroke-linecap="round" stroke-linejoin="round"/>
<path d="M50.8057 43.1854L55.4811 46.0996" stroke="#3C4558" stroke-width="2" stroke-miterlimit="10" stroke-linecap="round" stroke-linejoin="round"/>
<path d="M50.8057 41.2129L55.4811 38.2987" stroke="#3C4558" stroke-width="2" stroke-miterlimit="10" stroke-linecap="round" stroke-linejoin="round"/>
</svg>
