<svg width="16" height="16" viewBox="0 0 16 16" fill="none" xmlns="http://www.w3.org/2000/svg">
<g clip-path="url(#clip0_3647_21987)">
<path d="M8.00667 15.78C7.68667 15.78 7.36667 15.6667 7.11333 15.44L4.61333 13.3333H2.66667C1.19333 13.3333 0 12.14 0 10.6667V2.66667C0 1.19333 1.19333 0 2.66667 0H13.3333C14.8067 0 16 1.19333 16 2.66667V10.6667C16 12.14 14.8067 13.3333 13.3333 13.3333H11.4333L8.86667 15.4533C8.62667 15.6667 8.31333 15.78 8.00667 15.78ZM2.66667 1.33333C1.93333 1.33333 1.33333 1.93333 1.33333 2.66667V10.6667C1.33333 11.4 1.93333 12 2.66667 12H4.86C5.02 12 5.16667 12.0533 5.28667 12.16L7.98667 14.4333L10.7667 12.1533C10.8867 12.0533 11.0333 12 11.1933 12H13.3333C14.0667 12 14.6667 11.4 14.6667 10.6667V2.66667C14.6667 1.93333 14.0667 1.33333 13.3333 1.33333H2.66667ZM6.00667 10.2333C5.88 10.2333 5.74667 10.1933 5.64 10.1133C5.43333 9.96 5.34667 9.68667 5.42667 9.44L6 7.6L4.54667 6.42C4.35333 6.25333 4.28 5.98667 4.36667 5.74667C4.45333 5.50667 4.68667 5.34667 4.94 5.34667H6.77333L7.42 3.60667C7.50667 3.36667 7.74 3.20667 7.99333 3.20667C8.24667 3.20667 8.48 3.36667 8.56667 3.60667L9.21333 5.34667H11.0467C11.3 5.34667 11.5333 5.50667 11.62 5.74667C11.7067 5.98667 11.6333 6.26 11.44 6.42667L9.99333 7.60667L10.5933 9.42667C10.6733 9.67333 10.5933 9.94667 10.3867 10.1C10.18 10.26 9.9 10.2667 9.68 10.1267L8 9.03333L6.34667 10.14C6.24667 10.2067 6.12667 10.24 6.00667 10.24V10.2333Z" fill="#3C4558"/>
</g>
<defs>
<clipPath id="clip0_3647_21987">
<rect width="16" height="16" fill="white"/>
</clipPath>
</defs>
</svg>
