<svg width="98" height="32" viewBox="0 0 98 32" fill="none" xmlns="http://www.w3.org/2000/svg">
<path fill-rule="evenodd" clip-rule="evenodd" d="M32.1856 31.8588L32.4979 31.1281L33.9984 28.9405C35.9503 26.7008 38.8624 24.42 42.3487 22.1562C46.2658 19.6185 51.3807 17.183 56.7879 14.6084C57.2764 14.3758 57.7674 14.142 58.2601 13.9069L66.7683 10.3945C69.1149 9.35184 71.995 8.37813 74.9057 7.39411C76.3553 6.90402 77.8125 6.41138 79.2151 5.90638C82.8045 4.62146 86.8362 3.44327 90.776 2.29197C93.2657 1.56441 95.7186 0.847591 97.9999 0.12136C96.8256 0.119911 95.3521 0.345939 94.0144 0.551141C93.4571 0.636638 92.9233 0.718519 92.4446 0.778826C86.9718 1.47761 81.7194 2.33675 76.1171 3.31049C70.7647 4.2459 65.5838 5.44471 60.1767 6.69589C59.2561 6.90891 58.329 7.12344 57.3933 7.33844C55.9601 7.6718 54.6788 8.04932 53.3794 8.43215C52.1997 8.77973 51.0051 9.13169 49.6685 9.45894C48.5993 9.72043 47.6316 10.0442 46.6465 10.3737C45.659 10.7041 44.6541 11.0403 43.5122 11.3254L39.4312 12.6624L37.3558 13.3424L30.9256 15.7089C29.5575 16.3159 28.0954 16.893 26.6468 17.4648C24.7256 18.2231 22.828 18.9721 21.2046 19.7691C14.3623 23.1186 8.03521 26.2858 3.22544 29.5439C2.11125 30.2991 1.02758 31.0467 -0.000449576 31.79L32.1856 31.8588Z" fill="#B4975A" fill-opacity="0.8"/>
</svg>
