<?xml version="1.0" standalone="no"?>
<!DOCTYPE svg PUBLIC "-//W3C//DTD SVG 20010904//EN" "http://www.w3.org/TR/2001/REC-SVG-20010904/DTD/svg10.dtd">
<svg version="1.0" xmlns="http://www.w3.org/2000/svg"
 width="60" height="60" viewBox="0 0 300 300"
 preserveAspectRatio="xMidYMid meet">
<metadata>
Created by potrace 1.10, written by Peter Selinger 2001-2011
</metadata>
<g transform="translate(0,250) scale(0.1,-0.1)"
 fill="#000000" stroke="none">



<path d="M430 1006 c-113 -28 -219 -118 -272 -231 -117 -251 30 -534 309 -596
66 -15 163 -2 241 31 l52 22 0 142 0 141 -75 76 -75 76 -71 -71 -71 -71 73
-67 c40 -38 76 -68 81 -68 17 0 6 18 -42 70 -27 29 -50 61 -50 70 0 20 61 80
81 80 8 0 38 -24 66 -52 l52 -53 3 -122 3 -121 -50 46 c-27 25 -54 52 -58 60
-6 9 -21 11 -51 7 -87 -13 -187 35 -232 110 -52 89 -38 198 34 267 54 52 92
68 162 68 76 0 116 -18 175 -78 25 -25 46 -43 48 -41 1 2 1 61 -1 132 l-3 127
-37 19 c-78 39 -200 51 -292 27z m244 -45 c26 -11 49 -26 52 -34 3 -8 4 -42 2
-76 l-3 -61 -39 21 c-88 47 -191 53 -263 15 -182 -94 -183 -352 -2 -451 46
-25 66 -29 130 -30 68 -1 78 -3 102 -27 15 -15 27 -31 27 -37 0 -5 6 -11 13
-14 9 -3 8 -8 -3 -19 -58 -58 -257 -48 -359 16 -54 35 -114 104 -147 171 -27
55 -29 69 -29 165 0 94 3 111 28 160 51 102 143 183 241 212 77 23 185 18 250
-11z"/>
<path d="M1060 728 c-77 -53 -98 -136 -52 -209 72 -117 252 -86 278 49 l7 32
-77 0 c-74 0 -76 -1 -76 -25 0 -23 4 -25 47 -25 l46 0 -23 -25 c-18 -19 -33
-25 -68 -25 -89 0 -136 99 -78 167 21 24 32 28 74 28 35 0 56 -6 71 -19 20
-18 22 -18 41 -1 16 15 18 21 7 33 -37 45 -144 56 -197 20z"/>
<path d="M1330 600 l0 -150 25 0 25 0 0 150 0 150 -25 0 -25 0 0 -150z"/>
<path d="M1698 600 l-3 -150 27 0 c14 0 28 6 31 13 4 10 7 10 18 0 16 -16 73
-17 100 -3 25 14 49 62 49 100 0 38 -24 86 -49 100 -29 15 -87 12 -101 -5 -19
-23 -24 -11 -21 45 2 47 1 50 -23 50 l-25 0 -3 -150z m147 5 c32 -31 32 -59 0
-91 -19 -18 -31 -23 -48 -19 -71 22 -59 127 16 134 4 1 19 -10 32 -24z"/>
<path d="M2556 659 c-22 -17 -26 -18 -26 -5 0 9 -8 16 -20 16 -19 0 -20 -7
-20 -110 l0 -110 25 0 c24 0 25 2 25 64 0 75 14 121 34 113 8 -3 18 4 24 18
15 32 -9 40 -42 14z"/>
<path d="M1467 647 c-35 -28 -49 -75 -36 -121 13 -49 51 -76 105 -76 62 0 104
39 111 103 5 43 3 49 -30 82 -29 29 -42 35 -78 35 -31 0 -52 -7 -72 -23z m117
-49 c22 -32 20 -55 -9 -84 -40 -40 -95 -13 -95 47 0 57 73 82 104 37z"/>
<path d="M1994 636 c-28 -28 -34 -42 -34 -76 0 -34 6 -48 34 -76 29 -29 41
-34 83 -34 33 0 56 7 73 20 24 19 24 21 7 34 -15 12 -22 12 -46 0 -57 -28
-118 25 -93 81 17 36 57 49 94 30 23 -11 35 -12 51 -3 21 11 20 11 -7 34 -21
18 -39 24 -78 24 -44 0 -54 -4 -84 -34z"/>
<path d="M2255 644 c-46 -49 -44 -116 3 -166 28 -30 76 -37 113 -18 13 7 19 7
19 0 0 -5 12 -10 28 -10 l27 0 0 110 0 110 -27 0 c-16 0 -28 -5 -28 -10 0 -7
-6 -7 -19 0 -37 19 -90 12 -116 -16z m123 -37 c19 -15 15 -74 -8 -97 -23 -23
-33 -24 -61 -9 -45 24 -43 101 3 118 24 9 44 5 66 -12z"/>
<path d="M2667 650 c-56 -44 -56 -136 0 -180 35 -27 112 -27 144 0 21 17 22
21 9 30 -8 6 -24 8 -35 4 -57 -17 -67 -16 -91 6 -13 13 -24 28 -24 33 0 6 37
8 90 5 l90 -4 0 29 c0 20 -11 40 -34 63 -29 29 -41 34 -79 34 -29 0 -53 -7
-70 -20z m115 -37 c10 -9 18 -19 18 -22 0 -4 -27 -6 -60 -6 -62 0 -78 13 -42
34 26 16 63 13 84 -6z"/>
</g>
</svg>
