<svg width="24" height="24" viewBox="0 0 24 24" fill="none" xmlns="http://www.w3.org/2000/svg">
<path d="M12 24C18.6274 24 24 18.6274 24 12C24 5.37258 18.6274 0 12 0C5.37258 0 0 5.37258 0 12C0 18.6274 5.37258 24 12 24Z" fill="#B4975A"/>
<path d="M19.4999 15.567C19.4967 15.8988 19.3357 16.2092 19.0663 16.4029C18.9057 16.5216 18.727 16.6137 18.5372 16.6756C18.239 16.7692 17.9346 16.8417 17.6263 16.8924C17.6129 17.0017 17.591 17.1097 17.5608 17.2156C17.4744 17.5559 17.2352 17.8369 16.9131 17.9766C16.7328 18.0461 16.5404 18.079 16.3472 18.0734C16.2108 18.0734 16.0595 18.0624 15.9026 18.0516C15.7458 18.0406 15.5603 18.0256 15.3872 18.0256C15.1808 18.0159 14.9747 18.0488 14.7818 18.1224C14.5881 18.2124 14.3808 18.3338 14.1627 18.4606C13.5559 18.8179 12.8686 19.227 12 19.227C11.1313 19.227 10.444 18.8179 9.83723 18.4647C9.61903 18.3379 9.4118 18.2165 9.21816 18.1265C9.02517 18.0529 8.81902 18.0199 8.61272 18.0297C8.43952 18.0297 8.26636 18.042 8.09728 18.0556C7.9282 18.0693 7.79184 18.0774 7.65272 18.0774C7.45955 18.083 7.26717 18.0501 7.0868 17.9806C6.76444 17.8414 6.52509 17.5602 6.43908 17.2197C6.40894 17.1138 6.38705 17.0058 6.37364 16.8965C6.06525 16.8459 5.76084 16.7734 5.46272 16.6797C5.27288 16.6178 5.09423 16.5257 4.93364 16.407C4.66308 16.2125 4.50187 15.9002 4.5 15.567C4.50422 15.202 4.72195 14.8733 5.05636 14.727C5.18892 14.6664 5.32561 14.6154 5.46544 14.5743C6.04636 14.3875 6.90408 14.1134 7.36364 12.6816L6.66684 12.4088C6.07472 12.1884 5.73558 11.5653 5.87184 10.9484C5.92814 10.6894 6.0728 10.458 6.28092 10.2938C6.48384 10.1364 6.73317 10.0506 6.99 10.0498C7.07911 10.0499 7.16789 10.0604 7.25456 10.0811L7.48913 10.1357C7.50005 9.86296 7.50548 9.57524 7.50548 9.28068C7.50661 8.68199 7.62858 8.08973 7.86413 7.53932C8.32238 6.46162 9.17789 5.60174 10.2532 5.13796C10.8046 4.89946 11.3993 4.77735 12 4.77932C12.5965 4.78007 13.1866 4.90209 13.7346 5.13796C14.8085 5.60104 15.6647 6.45721 16.1278 7.53116C16.3642 8.08134 16.4867 8.6737 16.4878 9.27252C16.4878 9.56709 16.4878 9.85345 16.5041 10.1275L16.7387 10.073C17.0787 9.99177 17.4372 10.0701 17.7123 10.2857C17.923 10.4487 18.0701 10.6802 18.1283 10.9402C18.2691 11.5599 17.9291 12.188 17.3333 12.4089L16.6365 12.6816C17.1015 14.1107 17.9592 14.3834 18.5374 14.5675C18.6771 14.6089 18.8138 14.6599 18.9465 14.7202C19.2821 14.868 19.4992 15.2 19.4999 15.567Z" fill="white"/>
<path d="M19.4975 15.567C19.4943 15.8988 19.3333 16.2092 19.0638 16.4029C18.9032 16.5216 18.7246 16.6137 18.5347 16.6756C18.2366 16.7692 17.9322 16.8417 17.6238 16.8924C17.6104 17.0017 17.5885 17.1097 17.5584 17.2156C17.472 17.5559 17.2328 17.8369 16.9107 17.9766C16.7303 18.0461 16.538 18.079 16.3447 18.0734C16.2084 18.0734 16.057 18.0624 15.9002 18.0516C15.7433 18.0407 15.5579 18.0256 15.3847 18.0256C15.1784 18.0159 14.9723 18.0488 14.7793 18.1224C14.5857 18.2124 14.3784 18.3338 14.1602 18.4606C13.5534 18.8179 12.8662 19.227 11.9975 19.227C11.1289 19.227 10.4416 18.8179 9.83479 18.4647C9.61659 18.3379 9.40936 18.2165 9.21572 18.1265C9.02273 18.0529 8.81657 18.0199 8.61028 18.0297C8.43707 18.0297 8.26392 18.042 8.09484 18.0556C7.92576 18.0693 7.7894 18.0774 7.65028 18.0774C7.45711 18.083 7.26473 18.0501 7.08436 17.9806C6.762 17.8414 6.52265 17.5602 6.43664 17.2197C6.4065 17.1139 6.38461 17.0058 6.3712 16.8965C6.06281 16.8459 5.7584 16.7734 5.46028 16.6797C5.27043 16.6178 5.09179 16.5257 4.9312 16.407C4.66064 16.2125 4.49943 15.9002 4.49756 15.567C4.50178 15.202 4.71951 14.8733 5.05392 14.727C5.18648 14.6664 5.32317 14.6154 5.463 14.5743C6.04392 14.3875 6.90164 14.1134 7.3612 12.6816L6.6644 12.4088C6.07228 12.1884 5.73314 11.5653 5.8694 10.9484C5.9257 10.6894 6.07036 10.458 6.27848 10.2938C6.4814 10.1364 6.73073 10.0506 6.98756 10.0498C7.07667 10.0499 7.16545 10.0604 7.25212 10.0811L7.48668 10.1357C7.49761 9.86296 7.50304 9.57524 7.50304 9.28068C7.50417 8.68199 7.62614 8.08973 7.86168 7.53932C8.31993 6.46162 9.17545 5.60174 10.2508 5.13796C10.8022 4.89946 11.3968 4.77735 11.9976 4.77932C12.5941 4.78007 13.1842 4.90209 13.7321 5.13796C14.806 5.60104 15.6622 6.45721 16.1253 7.53116C16.3618 8.08134 16.4842 8.6737 16.4853 9.27252C16.4853 9.56709 16.4853 9.85345 16.5017 10.1275L16.7362 10.073C17.0762 9.99177 17.4347 10.0701 17.7099 10.2857C17.9206 10.4487 18.0677 10.6802 18.1258 10.9402C18.2667 11.5599 17.9266 12.188 17.3308 12.4089L16.634 12.6816C17.099 14.1107 17.9567 14.3834 18.5349 14.5675C18.6747 14.6089 18.8114 14.6599 18.944 14.7202C19.2797 14.868 19.4967 15.2 19.4975 15.567Z" stroke="#B4975A" stroke-miterlimit="10"/>
</svg>
