<svg width="24" height="24" viewBox="0 0 24 24" xmlns="http://www.w3.org/2000/svg">
<path d="M22.4743 5.29594L19.9552 2.77688C19.5891 2.41073 18.9955 2.41073 18.6294 2.77688C18.2633 3.14302 18.2633 3.73659 18.6294 4.10269L19.226 4.69931L18.0025 5.92284C16.4098 4.59412 14.4732 3.792 12.4074 3.6053V1.875H13.2511C13.7689 1.875 14.1886 1.45528 14.1886 0.9375C14.1886 0.419719 13.7689 0 13.2511 0H9.68865C9.17086 0 8.75114 0.419719 8.75114 0.9375C8.75114 1.45528 9.17086 1.875 9.68865 1.875H10.5324V3.6053C5.38908 4.07011 1.25114 8.38912 1.25114 13.7812C1.25114 19.4288 5.8215 24 11.4699 24C17.1175 24 21.6886 19.4296 21.6886 13.7812C21.6886 11.3667 20.8563 9.08034 19.3283 7.24866L20.5518 6.02512L21.1485 6.62175C21.5146 6.98784 22.1081 6.98789 22.4743 6.62175C22.8404 6.25566 22.8404 5.66208 22.4743 5.29594ZM11.4699 22.125C6.86916 22.125 3.12614 18.382 3.12614 13.7812C3.12614 9.18052 6.86916 5.4375 11.4699 5.4375C16.0706 5.4375 19.8136 9.18052 19.8136 13.7812C19.8136 18.382 16.0707 22.125 11.4699 22.125ZM16.3413 13.7812C16.3413 14.299 15.9216 14.7188 15.4038 14.7188H11.4699C10.9522 14.7188 10.5324 14.299 10.5324 13.7812V8.26523C10.5324 7.74745 10.9522 7.32773 11.4699 7.32773C11.9877 7.32773 12.4074 7.74745 12.4074 8.26523V12.8438H15.4038C15.9216 12.8438 16.3413 13.2635 16.3413 13.7812Z"/>
</svg>
