<svg width="24" height="24" viewBox="0 0 24 24" fill="none" xmlns="http://www.w3.org/2000/svg">
<g clip-path="url(#clip0_993_16913)">
<path d="M12 24C18.6274 24 24 18.6274 24 12C24 5.37258 18.6274 0 12 0C5.37258 0 0 5.37258 0 12C0 18.6274 5.37258 24 12 24Z" fill="#B4975A"/>
<path d="M19.773 7.18C19.1883 7.43536 18.5699 7.605 17.9367 7.68368C18.6041 7.28789 19.1031 6.66087 19.3388 5.92158C18.7141 6.29237 18.0306 6.55351 17.3178 6.69368C16.881 6.22655 16.3137 5.90167 15.6898 5.7613C15.0658 5.62092 14.4141 5.67155 13.8193 5.9066C13.2246 6.14165 12.7143 6.55023 12.3549 7.07922C11.9954 7.6082 11.8035 8.2331 11.8041 8.87263C11.8018 9.11674 11.8267 9.36034 11.8783 9.59895C10.6104 9.53667 9.36981 9.20761 8.23771 8.63326C7.1056 8.0589 6.10739 7.25218 5.30829 6.26579C4.89754 6.96749 4.77029 7.79956 4.95254 8.59195C5.13478 9.38434 5.61278 10.0772 6.28881 10.5289C5.78422 10.5153 5.29031 10.3805 4.84881 10.1358V10.1705C4.85023 10.906 5.10482 11.6186 5.56978 12.1886C6.03474 12.7585 6.68172 13.1509 7.40197 13.3C7.1294 13.3716 6.84852 13.4067 6.56671 13.4042C6.36379 13.408 6.16106 13.39 5.96197 13.3505C6.16832 13.9831 6.56559 14.5362 7.09913 14.9337C7.63268 15.3313 8.27629 15.5537 8.94145 15.5705C7.81427 16.4516 6.42472 16.9301 4.99408 16.93C4.73917 16.9322 4.4844 16.9174 4.23145 16.8858C5.69019 17.8263 7.39054 18.3232 9.12618 18.3163C14.992 18.3163 18.1988 13.4579 18.1988 9.24684C18.1988 9.10632 18.1988 8.97053 18.1878 8.83474C18.8123 8.38401 19.3495 7.82328 19.773 7.18Z" fill="white"/>
</g>
<defs>
<clipPath id="clip0_993_16913">
<rect width="24" height="24" fill="white"/>
</clipPath>
</defs>
</svg>
