<svg width="62" height="62" viewBox="0 0 62 62" fill="none" xmlns="http://www.w3.org/2000/svg">
<path d="M31 62C48.1208 62 62 48.1208 62 31C62 13.8792 48.1208 0 31 0C13.8792 0 0 13.8792 0 31C0 48.1208 13.8792 62 31 62Z" fill="#E6ECFF"/>
<path d="M55.8769 49.4748C52.9857 45.6041 49.2316 42.461 44.9128 40.2954C40.594 38.1299 35.8296 37.0015 30.9983 37C26.167 36.9985 21.4019 38.1239 17.0817 40.2867C12.7616 42.4496 9.00543 45.5903 6.11182 49.4592C8.99071 53.3478 12.7407 56.5077 17.0611 58.6855C21.3815 60.8633 26.1522 61.9985 30.9904 62C35.8287 62.0016 40.6 60.8694 44.9218 58.6942C49.2436 56.5191 52.9956 53.3616 55.8769 49.4748Z" fill="#4294FF"/>
<path d="M31 33C37.6274 33 43 27.6274 43 21C43 14.3726 37.6274 9 31 9C24.3726 9 19 14.3726 19 21C19 27.6274 24.3726 33 31 33Z" fill="#4294FF"/>
</svg>
